<svg xmlns="http://www.w3.org/2000/svg" viewBox="0 0 3250.44 726.98"><defs><style>.cls-1{fill:#d31648;}.cls-2{fill:#6d7780;}</style></defs><title>kBIp6U.tif</title><g id="Layer_2" data-name="Layer 2"><g id="Layer_2-2" data-name="Layer 2"><g id="kBIp6U.tif"><path class="cls-1" d="M723.17,0c6.71,17.37,22.33,27.23,34.69,39.62C822,104,886.82,167.78,951.14,232c4.76,4.75,15.09,8.6,11,16.81-3.58,7.1-13.31,3.19-20.23,3.22-71.06.23-142.13.82-213.18-.29-20.61-.32-35.34,5.4-50.06,20.11C535.79,414.55,392,556.3,249.16,699c-14.72,14.7-29.45,20.7-50.11,20.26C141.8,718,84.5,719,27.23,718.64c-9.08-.06-22.37,5-26.38-3.43-4.3-9.09,8.82-14.76,15.05-21q248.49-247.1,497.39-493.77,88.92-88.23,177.76-176.55c7.2-7.2,17.42-12.39,19.38-23.93Z"/><path class="cls-2" d="M2797.11,335.24c26.94-9,35.19,9.13,41.52,35.21,14.63,60.23,31.8,119.87,48.08,179.71,1.22,4.49-.5,11.89,6.32,12.19,6.43.29,7-6.65,8.57-11.5,20.52-64,42.67-127.64,60.69-192.37,7-25,22-22.69,40.19-23.58,18.95-.93,31.26,2.35,37.53,23.57,17.88,60.47,37.93,120.32,57.57,180.26,3,9.2,2.39,24.74,11.51,25.45,7.24.57,7.74-15.39,10.08-24.37,14.88-56.94,29-114.08,44.82-170.76,3.12-11.18.12-29.67,15.36-31.86,21.7-3.13,44.44-2.56,66.27.16,9.53,1.19,2.28,12.12.51,18.44q-31.38,112.38-63,224.7c-9.63,34.39-19.32,68.78-28.53,103.28-5.29,19.78-8.78,36.84-37.58,37s-41.21-10.16-48.89-36.6c-17.9-61.57-38.59-122.33-58-183.46-2.52-7.93-3.15-22-9.64-21.43-8.2.64-7.9,14.44-10.55,22.57-20.84,64-42.69,127.67-60.72,192.42-7.76,27.87-25.62,24.63-45.87,25.79-21.77,1.25-28.83-9.29-34-28.32-28.87-105.39-59-210.45-88.8-315.59C2748.88,335.19,2748.73,335.23,2797.11,335.24Z"/><path class="cls-2" d="M2060.17,524.05c0-54.76.79-109.54-.42-164.27-.42-19.37,5.25-25.45,25-25,56.16,1.36,112.46-1.32,168.53,1.36,50.33,2.39,89.12,27.32,108.72,74.64,18.67,45,9.57,86.59-23.95,122.41-4.3,4.59-8.82,10.25-14.37,12.19-29.23,10.19-26.7,24.76-11.73,47.54,22,33.38,39.72,69.46,59.67,104.16,9.14,15.9,5.83,23.51-13.25,22.52-1-.06-2.12,0-3.18,0-65,2.85-65,2.84-95-53.8-13.32-25.11-26.6-50.24-40.14-75.23-9.4-17.35-56.09-29.34-71.91-18.56-8.6,5.86-5.81,15.15-5.88,23.2-.28,32.64-.92,65.32.19,97.93.63,18.54-5.16,26.09-24.88,26.87-57.43,2.25-57.4,3-57.4-53.81Zm138-24.31c16.5-1.16,35.49,1.82,54.35-3.71,23.69-6.95,36-21.64,34-46s-16.38-38.39-41-39.91c-21.1-1.31-42.31-1.28-63.46-1.19-44.5.21-39.65-4.84-39.87,37.89C2141.94,499.74,2142.12,499.74,2198.17,499.74Z"/><path class="cls-2" d="M1689.56,526.43c0-54.81.81-109.63-.41-164.42-.46-20.76,6.14-27.66,27.21-27.18,55.15,1.25,110.43-1.44,165.49,1.08,48.59,2.23,87.64,24.3,109,69.88,19.67,42,14.38,82-13.93,118.72-4.48,5.82-10.37,10.53-15.14,16.15-9.13,10.74-32,10.38-30.31,27.37,1.35,13.49,12.87,26.06,20.14,38.88,16.13,28.43,32.7,56.62,48.58,85.19C2013.66,716.34,2012,716.73,1986,720c-44.93,5.71-77.63-4.39-93.37-52-7.81-23.59-23.71-44.52-35.71-66.79-15.64-29-41.47-39.63-72.68-31-13.54,3.74-11,13.61-11.1,22.55-.26,33.73-.91,67.48.2,101.18.63,19.29-6.66,26-25.88,25.86-68-.6-57.41,3.24-57.86-54.31C1689.27,619.19,1689.56,572.81,1689.56,526.43Zm142.09-26.67c16.64-1,35.61,1.45,54.53-4.1,23.45-6.88,31.9-22.29,31.13-44.92-.74-21.93-11.91-35.16-33.37-40-24.07-5.46-48.52-3.7-72.85-3.78-38-.14-38,0-38.08,36.69C1773,499.77,1773,499.77,1831.65,499.76Z"/><path class="cls-2" d="M2734.62,526.34c1.15,32.69-.17,65.08-10.47,96.64-21.91,67.15-85,108.17-160.14,103.66-76.61-4.6-133.21-51-146.62-121.1-9.78-51.06-10.38-102.38-.68-153.54,18.46-97.37,90.06-129,163.89-125.08,97.12,5.15,150.73,64.14,154,161.53C2735,501.07,2734.62,513.71,2734.62,526.34Zm-82.85-.24c0-15.73.7-31.51-.26-47.18-.58-9.3-3.26-18.58-5.89-27.61C2636,418.22,2607,397.94,2571.49,399c-37.64,1.15-65.34,23.06-72.22,58.48a355.51,355.51,0,0,0-.11,137.44c6.79,34.53,33.12,55.76,69.49,56.84,42.1,1.25,67.93-17.1,78-53.88C2653.18,574.18,2652.23,550.17,2651.77,526.1Z"/><path class="cls-2" d="M1610.17,719.62c-25.33,6.62-38-8.37-46.51-34.16-13.47-40.74-14.71-40.34-58.93-40.34-28.6,0-57.25,1-85.78-.38-17.87-.9-28.37,4.75-31.93,22.27a38.21,38.21,0,0,1-1.93,6c-20.76,53.55-8.59,46.06-69.22,46.45-29.33.19-29.79-1-19.16-28.51,40.92-105.86,81.73-211.77,123.39-317.34,5.12-13,3.88-33.69,20-36.64,21.43-3.94,44.22-1.47,66.35-.24,8.18.45,10.08,9.55,12.74,16.49C1562.78,467,1606.73,580.67,1650,694.58,1658.82,717.8,1655.58,719.68,1610.17,719.62ZM1469.94,575.54c9.49,0,19-.68,28.46.14,19.52,1.7,24-4.38,16.11-23-12.58-29.84-22.85-60.64-34.19-91-1.77-4.72-3.44-11-9.37-10.57-2.27.16-4.64,6.47-6.08,10.3-8.87,23.48-17.32,47.13-26.23,70.6C1422.12,575.58,1422,575.55,1469.94,575.54Z"/><path class="cls-1" d="M436.54,713.22c3.54-4.07,6.68-8.14,10.3-11.74Q598.58,550.91,750.21,400.23c10.49-10.48,16.85-11.2,27.69-.16,44.36,45.2,89.72,89.43,134.58,134.15,3.49,3.48,10,6.48,8,12.26-2.15,6.41-9,3-13.74,3.35-7.38.54-14.82.13-22.24.13-82.79,0-82.72.06-141.44,59.23-31.22,31.45-62.84,62.51-94,94-9.15,9.24-18,16.17-32.61,16-54-.81-108-.27-162.06-.39C448.53,718.76,441.8,720.6,436.54,713.22Z"/><path class="cls-2" d="M1073.28,525.18c0-54.72,1-109.46-.48-164.14-.55-21.27,6.69-26.53,27.13-26.24,76.26,1.08,152.55.88,228.81.13,19.78-.2,26.6,2.45,18.29,24.35-18.62,49.07-17.45,49.52-71.56,49.51-32.84,0-65.7.7-98.51-.33-16.91-.54-21.14,6-21.73,22-2.33,62.89-2.9,62.86,59.22,62.87,23.31,0,46.62.31,69.92-.1,14.47-.25,19.78,4.17,12.9,18.58a199.75,199.75,0,0,0-12.63,32.29c-4.12,14.81-13.09,19.73-28,19.28-26.46-.79-53,.61-79.43-.51-16.82-.71-22.28,5.44-21.87,21.78.89,35.76-.56,71.58.58,107.32.65,20.27-6.42,27.72-27.3,28.12-55.35,1.08-55.33,1.92-55.33-52.8Q1073.29,596.21,1073.28,525.18Z"/></g></g></g></svg>