<svg xmlns="http://www.w3.org/2000/svg" viewBox="0 0 512 418"><defs><style>.cls-1{fill:#0438cd;}</style></defs><title>lyRwMb.tif</title><g id="Layer_2" data-name="Layer 2"><g id="Layer_1-2" data-name="Layer 1"><g id="lyRwMb.tif"><path class="cls-1" d="M512,418q-75.42-.06-150.85-.12-177.33,0-354.66,0c-2.16,0-4.33.08-6.49.12V0H11.81V43.91H31.67v12H12.35v50.67H31.67v11.89H12.32v50.46H31.75v11.91H12.32v50.41H31.75v12H12.25v50.52h19.5v11H12.33v50.41H31.72v12H12.27v38.3H59.88V386.23h12v19.26h53.57V386.26h12.15v19.26h54.34v-19.4H203v19.43h54.59V386.12h12v19.37h53.39V386.17H335v19.41h54.41V386.26h11.38v19.35h54.12V386.18H467V406h45Z"/><path class="cls-1" d="M88.24,85.16H146V345.62H88.24Zm45.67,249.27V97.33H100.35v237.1Z"/><path class="cls-1" d="M240.59,346.68H226.78c-13,0-26-.19-39,.1-4.39.1-5.62-1.1-5.6-5.55.16-44.13.09-88.26.09-132.38q0-37.72,0-75.44v-6.34h58.29Zm-12-12.25V138.94H194.77V334.43Z"/><path class="cls-1" d="M416,199.41V169.3h10.81v51.32H375.43V209.19H407c-1.9-2.09-2.91-3.31-4-4.43q-47.7-47.73-95.37-95.49a10.61,10.61,0,0,0-8.27-3.47q-43.49.2-87,0a10.15,10.15,0,0,1-6.55-2.39q-45.06-44.7-89.86-89.69c-.69-.69-1.31-1.46-2.16-2.42l9-9.94c1.28,2.15,2.05,4.33,3.53,5.81q41.43,41.64,83,83.18a11.09,11.09,0,0,0,8.71,3.62c28.66-.15,57.32,0,86-.16a11.09,11.09,0,0,1,8.69,3.7q48.84,49.06,97.82,98a39.79,39.79,0,0,1,3.79,5.22Z"/><path class="cls-1" d="M334.86,183V346.38H277.12V183Zm-12,151.41V195H289.23V334.43Z"/><path class="cls-1" d="M371.47,241.24h58.2v5.11c0,31.63-.09,63.26.11,94.88,0,4.46-1.23,5.62-5.61,5.55-15.64-.26-31.29-.11-46.94-.12h-5.76Zm11.89,12v81.4c9.85,0,19.47-.2,29.08.09,4.2.13,5.34-1.22,5.3-5.35-.18-23.66-.09-47.33-.1-71,0-1.63-.15-3.26-.24-5.15Z"/></g></g></g></svg>