<?xml version="1.0" encoding="utf-8"?>
<!-- Generator: Adobe Illustrator 24.0.1, SVG Export Plug-In . SVG Version: 6.00 Build 0)  -->
<svg version="1.1" id="Layer_1" xmlns="http://www.w3.org/2000/svg" xmlns:xlink="http://www.w3.org/1999/xlink" x="0px" y="0px"
	 viewBox="0 0 2410 2382.1" style="enable-background:new 0 0 2410 2382.1;" xml:space="preserve">
<style type="text/css">
	.st0{opacity:0.1;enable-background:new    ;}
	.st1{fill:#333333;}
	.st2{fill:url(#SVGID_1_);}
	.st3{opacity:0.4;fill:url(#SVGID_2_);enable-background:new    ;}
	.st4{fill:#9F9F9F;}
	.st5{fill:#B6B6B6;}
	.st6{fill:#838383;}
	.st7{fill:#BFBFBF;}
	.st8{fill:#404040;}
	.st9{fill:#666666;}
	.st10{opacity:0.4;fill:#33BBE8;enable-background:new    ;}
	.st11{opacity:0.9;}
	.st12{fill:#FFFFFF;}
	.st13{fill:#65C0F7;}
	.st14{fill:#3B9AD4;}
	.st15{opacity:0.4;}
	.st16{opacity:0.4;fill:#0C69A3;enable-background:new    ;}
	.st17{fill:#442FE2;}
	.st18{opacity:0.4;fill:#1096E8;enable-background:new    ;}
	.st19{opacity:0.12;fill:#0A6587;enable-background:new    ;}
	.st20{fill:#290000;}
	.st21{fill:#E75147;}
	.st22{fill:#B91A0F;}
	.st23{fill:#CB1C11;}
	.st24{fill:#FFC670;}
	.st25{fill:#FFAB53;}
	.st26{fill:#FFCF80;}
	.st27{fill:#F5BF67;}
	.st28{fill:#45443E;}
	.st29{fill:#141413;}
	.st30{fill:#D6380D;}
	.st31{fill:#2B2B27;}
	.st32{opacity:0.3;enable-background:new    ;}
	.st33{fill:#E6A050;}
	.st34{fill:#D48D3B;}
	.st35{fill:#FFDD9E;}
	.st36{fill:#C69B58;}
	.st37{fill:#515151;}
	.st38{fill:#BD965A;}
	.st39{fill:#DEB471;}
	.st40{fill:#A67127;}
	.st41{fill:#F6D79A;}
	.st42{fill:#FFF5C4;}
	.st43{fill:#D0A34C;}
	.st44{fill:#F9C476;}
	.st45{fill:#9A6C39;}
	.st46{fill:#F5B266;}
	.st47{fill:#618BBD;}
	.st48{fill:#25498A;}
	.st49{fill:#C4C4C4;}
	.st50{fill:#9F9FA0;}
	.st51{fill:#FC5656;}
	.st52{fill:#1C36B8;}
	.st53{fill:#D92D2C;}
	.st54{fill:#BFB297;}
	.st55{fill:#C7A660;}
	.st56{fill:#AB9A79;}
	.st57{fill:#F34746;}
	.st58{fill:#9E7A2C;}
	.st59{fill:#946F1F;}
	.st60{fill:#FC7C7B;}
	.st61{fill:#D6C193;}
	.st62{fill:#734100;}
	.st63{fill:#E3D4B3;}
	.st64{fill:#FFF68B;}
	.st65{fill:#9DD2FF;}
	.st66{fill:#3C90DB;}
	.st67{fill:#82C5FF;}
	.st68{fill:#B6DCFF;}
	.st69{fill:#52A5EF;}
	.st70{fill:#FFF4AE;}
	.st71{fill:#DB7D00;}
	.st72{fill:#FFE76B;}
	.st73{fill:#FFB315;}
	.st74{fill:#FFD624;}
</style>
<title>img11</title>
<g id="_Layer_">
	<path class="st0" d="M898.6,1609.8L385,1906.4c-45.6,26.3-44.9,69.6,1.5,96.3l621.8,359c46.5,26.8,121.2,27.3,166.9,0.9
		l368.3-212.7c-0.1-0.3-0.1-0.7-0.2-1c0.9-0.2,1.9-0.4,2.9-0.6l435.7-251.6c21-29.6,36.7-54.3,42.7-67.4
		c18.6-40.5-131.4-220.1-131.4-220.1S924.3,1633.7,898.6,1609.8z M2272.8,1608.2c-9.2,32.9-24.7,86.2-28.1,101.2
		c-1.3,5.9-2.5,13.6-4.1,22.2c8.5-2.4,16.7-5.4,24.8-9c8.8-0.4,30.4-4.7,33.9-27C2318.3,1665.3,2295.3,1628.6,2272.8,1608.2
		L2272.8,1608.2z"/>
	<path class="st1" d="M1753,1092c657.7,379.5,569.2,328.4,609.8,351.9c14.6,8.6,47.1,24.9,47.2,55.9c0.1,17.2-11,34.3-33.7,47.5
		l-1204.5,695.4c-45.4,25.7-119.8,25.3-166-1.3l-621.9-359c-23.3-13.6-35.2-31-34.8-49c-0.8-16.8,10.5-33.6,32.3-46.7l1204.5-695.4
		C1631.8,1064.8,1706.6,1065.1,1753,1092z"/>
	
		<radialGradient id="SVGID_1_" cx="1702.22" cy="1248.95" r="1223.38" gradientTransform="matrix(1 0 0 -1 -22.8 2351.47)" gradientUnits="userSpaceOnUse">
		<stop  offset="0" style="stop-color:#39A5E3"/>
		<stop  offset="0.19" style="stop-color:#389DE0"/>
		<stop  offset="0.47" style="stop-color:#3789D8"/>
		<stop  offset="0.82" style="stop-color:#3467CC"/>
		<stop  offset="1" style="stop-color:#3252C4"/>
	</radialGradient>
	<path class="st2" d="M398.8,1873.9c-18.8-11.1-29-25.4-28.7-40.3v-0.5c-0.7-13.8,8.7-27.3,26.5-37.9l1204.2-695.2
		c37.6-21.7,99.1-21.4,137.1,0.5c0,0,543.4,313.5,571.4,329.7c19,10.9,38.7,22.4,38.7,22.4l5,2.9c12.6,7.3,36,20.8,36.1,44.5
		c0.1,14.8-9.7,28.6-27.6,38.9L1157,2234.1c-37.2,21.1-98.4,20.6-136.3-1.3L398.8,1873.9z"/>
	
		<linearGradient id="SVGID_2_" gradientUnits="userSpaceOnUse" x1="1525.5704" y1="1291.2996" x2="1507.9404" y2="550.5995" gradientTransform="matrix(1 0 0 -1 -22.8 2351.47)">
		<stop  offset="0" style="stop-color:#FFFFFF"/>
		<stop  offset="9.000000e-02" style="stop-color:#F7F7F7"/>
		<stop  offset="0.22" style="stop-color:#E3E3E3"/>
		<stop  offset="0.38" style="stop-color:#C1C1C1"/>
		<stop  offset="0.56" style="stop-color:#919191"/>
		<stop  offset="0.76" style="stop-color:#555555"/>
		<stop  offset="0.97" style="stop-color:#0C0C0C"/>
		<stop  offset="1" style="stop-color:#000000"/>
	</linearGradient>
	<path class="st3" d="M2352.9,1455.4l-5-2.9c0,0-19.7-11.4-38.7-22.4c-28-16.2-571.4-329.7-571.4-329.7c-38-22-99.5-22.2-137.1-0.5
		L591.2,1682.8c392.1,50.7,943.5,85.2,1435.3,49.3l334.9-193.4c17.9-10.3,27.7-24.1,27.6-38.9
		C2388.9,1476.2,2365.5,1462.6,2352.9,1455.4z"/>
	<path class="st4" d="M384.3,1882.3c-3.7-2.2-7.3-4.6-10.7-7.2c-36,26.5-32.3,65.4,10.7,90.3l621.8,359v-83.1L384.3,1882.3z"/>
	<path class="st5" d="M1173,2242.1c-45.7,26.4-120.4,26-166.9-0.9v83.1c46.5,26.8,121.2,27.3,166.9,0.9V2242.1z"/>
	<polygon class="st4" points="2376.3,1547.3 1173,2242.1 1173,2325.2 2376.3,1630.4 	"/>
	<path class="st6" d="M2376.3,1630.5c22.5-13,33.3-30.1,33.3-47.3c0.5-0.1,0.5-83.2,0.5-83.2c0,14.7-8.2,29.3-24.6,41.3
		c-2.9,2.2-6,4.2-9.2,6.1V1630.5z"/>
	<polygon class="st4" points="1173,2242.1 1171.8,2286.5 2376.2,1591.1 2376.3,1547.3 	"/>
	<path class="st7" d="M384.2,1882.4v83c-23.5-13.5-35.2-31.3-35.2-48.9v-83.2c0,14.7,8.2,29.6,24.5,41.9
		C377,1877.8,380.5,1880.2,384.2,1882.4z"/>
	<path class="st8" d="M719.3,2137.1l-91.4-52.8c-8.2-4.7-14.8-16.3-14.8-25.7s6.7-13.3,14.8-8.6l91.4,52.8
		c8.2,4.7,14.8,16.2,14.8,25.7S727.5,2141.8,719.3,2137.1z"/>
	<path class="st9" d="M729.9,2131.2l-91.4-52.8c-8.2-4.7-14.9-16.3-14.9-25.7c0.1-1.3,0.3-2.7,0.8-3.9c-6.5-1.9-11.4,1.7-11.4,9.8
		c0,9.5,6.7,21,14.8,25.7l91.4,52.8c6.9,4,12.4,1.7,14.1-4.6C732.2,2132.2,731,2131.8,729.9,2131.2z"/>
	<path class="st8" d="M445.8,1962.1c0,12.9-9.1,18.2-20.3,11.7s-20.3-22.2-20.3-35.1s9.1-18.2,20.3-11.7S445.8,1949.1,445.8,1962.1z
		"/>
	<path class="st9" d="M436.2,1967.9c-11.2-6.5-20.3-22.2-20.3-35.1c-0.1-3,0.6-5.9,1.9-8.5c-7.4-0.7-12.5,4.6-12.5,14.4
		c0,12.9,9.1,28.7,20.3,35.1c8.2,4.7,15.2,3.1,18.4-3.2C441.2,1970.3,438.6,1969.4,436.2,1967.9z"/>
	<path class="st8" d="M863.9,2189.3c0,4.6-3.2,6.5-7.2,4.2c-4.3-2.8-6.9-7.4-7.2-12.5c0-4.6,3.2-6.5,7.2-4.2
		C860.9,2179.6,863.6,2184.2,863.9,2189.3z"/>
	<path class="st8" d="M890.1,2204.4c0,4.6-3.2,6.5-7.2,4.2c-4.3-2.8-6.9-7.4-7.2-12.5c0-4.6,3.2-6.5,7.2-4.2
		C887.1,2194.7,889.8,2199.3,890.1,2204.4z"/>
	<path class="st8" d="M916.2,2219.5c0,4.6-3.2,6.5-7.2,4.2c-4.3-2.8-6.9-7.4-7.2-12.5c0-4.6,3.2-6.5,7.2-4.2
		C913.2,2209.7,915.9,2214.4,916.2,2219.5z"/>
	<path class="st8" d="M942.4,2234.6c0,4.6-3.2,6.5-7.2,4.2c-4.3-2.8-6.9-7.4-7.2-12.5c0-4.6,3.2-6.5,7.2-4.2
		C939.4,2224.9,942.1,2229.5,942.4,2234.6z"/>
	<path class="st8" d="M968.6,2249.7c0,4.6-3.2,6.5-7.2,4.2c-4.3-2.8-6.9-7.4-7.2-12.5c0-4.6,3.2-6.5,7.2-4.2
		C965.6,2240,968.3,2244.6,968.6,2249.7z"/>
	<path class="st8" d="M863.9,2215.3c0,4.6-3.2,6.5-7.2,4.2c-4.3-2.8-6.9-7.4-7.2-12.5c0-4.6,3.2-6.5,7.2-4.2
		C860.9,2205.6,863.6,2210.3,863.9,2215.3z"/>
	<path class="st8" d="M890.1,2230.5c0,4.6-3.2,6.5-7.2,4.2c-4.3-2.8-6.9-7.4-7.2-12.5c0-4.6,3.2-6.5,7.2-4.2
		C887.1,2220.7,889.8,2225.4,890.1,2230.5z"/>
	<path class="st8" d="M916.2,2245.6c0,4.6-3.2,6.5-7.2,4.2c-4.3-2.8-6.9-7.4-7.2-12.5c0-4.6,3.2-6.5,7.2-4.2
		C913.2,2235.8,915.9,2240.5,916.2,2245.6z"/>
	<path class="st8" d="M942.4,2260.7c0,4.6-3.2,6.5-7.2,4.2c-4.3-2.8-6.9-7.4-7.2-12.5c0-4.6,3.2-6.5,7.2-4.2
		C939.4,2250.9,942.1,2255.6,942.4,2260.7z"/>
	<path class="st8" d="M968.6,2275.8c0,4.6-3.2,6.5-7.2,4.2c-4.3-2.8-6.9-7.4-7.2-12.5c0-4.6,3.2-6.5,7.2-4.2
		C965.6,2266.1,968.3,2270.7,968.6,2275.8z"/>
	<path class="st9" d="M906.5,2207.8c-2.6-2.1-4.7-0.3-4.7,3.4c0.3,5.1,3,9.7,7.2,12.5c3.4,2,6.2,0.7,6.9-2.6
		c-0.8-0.1-1.6-0.4-2.3-0.8C909.4,2217.5,906.7,2212.9,906.5,2207.8z M854.1,2177.6c-2.6-2.1-4.7-0.3-4.7,3.4
		c0.3,5.1,3,9.7,7.2,12.5c3.4,2,6.2,0.7,6.9-2.6c-0.8-0.1-1.6-0.4-2.3-0.8C857.1,2187.3,854.4,2182.7,854.1,2177.6z M880.3,2192.7
		c-2.6-2.1-4.7-0.3-4.7,3.4c0.3,5.1,3,9.7,7.2,12.5c3.4,2,6.2,0.7,6.9-2.6c-0.8-0.1-1.6-0.4-2.3-0.8
		C883.2,2202.4,880.6,2197.8,880.3,2192.7L880.3,2192.7z M932.6,2222.9c-2.6-2.1-4.7-0.3-4.7,3.4c0.3,5.1,3,9.7,7.2,12.5
		c3.4,2,6.2,0.7,6.9-2.6c-0.8-0.1-1.6-0.4-2.3-0.8C935.6,2232.6,932.9,2228,932.6,2222.9L932.6,2222.9z M968.3,2251.3
		c-0.8-0.1-1.6-0.4-2.3-0.8c-4.3-2.8-6.9-7.4-7.2-12.5c-2.6-2.1-4.7-0.3-4.7,3.4c0.3,5.1,3,9.7,7.2,12.5
		C964.8,2255.9,967.5,2254.6,968.3,2251.3z M932.6,2249c-2.6-2.1-4.7-0.3-4.7,3.4c0.3,5.1,3,9.7,7.2,12.5c3.4,2,6.2,0.7,6.9-2.6
		c-0.8-0.1-1.6-0.4-2.3-0.8C935.6,2258.7,932.9,2254,932.6,2249z M958.8,2264.1c-2.6-2.1-4.7-0.3-4.7,3.4c0.3,5.1,3,9.7,7.2,12.5
		c3.4,2,6.2,0.7,6.9-2.6c-0.8-0.1-1.6-0.4-2.3-0.8C961.8,2273.8,959.1,2269.2,958.8,2264.1L958.8,2264.1z M880.3,2218.8
		c-2.6-2.1-4.7-0.3-4.7,3.4c0.3,5.1,3,9.7,7.2,12.5c3.4,2,6.2,0.7,6.9-2.6c-0.8-0.1-1.6-0.4-2.3-0.8
		C883.2,2228.5,880.6,2223.8,880.3,2218.8L880.3,2218.8z M906.4,2233.9c-2.6-2.1-4.7-0.3-4.7,3.4c0.3,5.1,3,9.7,7.2,12.5
		c3.4,2,6.2,0.7,6.9-2.6c-0.8-0.1-1.6-0.4-2.3-0.8C909.4,2243.6,906.7,2238.9,906.4,2233.9L906.4,2233.9z M854.1,2203.6
		c-2.6-2.1-4.7-0.3-4.7,3.4c0.3,5.1,3,9.7,7.2,12.5c3.4,2,6.2,0.7,6.9-2.6c-0.8-0.1-1.6-0.4-2.3-0.8
		C857.1,2213.4,854.4,2208.7,854.1,2203.6L854.1,2203.6z"/>
	<polygon class="st10" points="790.8,1545.1 790.8,1878 0,1421.3 0,1088.5 21.9,1101.2 	"/>
	<g class="st11">
		<path class="st12" d="M150.4,1413c-5.4-3.1-10.3-9.1-13.2-16l-55.2-130.7c-4.7-11.2-2.6-21.3,4.7-22.5s17.1,6.8,21.8,18l41.4,98
			l69.9-95.3c4.5-6.1,14.1-3.3,21.6,6.1s10,22.1,5.5,28.2l-83,113.1c-2.8,3.8-7.8,4.3-13.3,1.2L150.4,1413z"/>
		<path class="st12" d="M233.7,1349.7l-15.8,21.5v66.6c0,15.5-10.9,21.8-24.4,14l-102.7-59.3c-13.4-7.8-24.3-26.7-24.3-42.2
			l0.1-118.4c0-15.5,10.9-21.8,24.4-14l97.7,56.4l9.2-12.6c-1.4-1-2.9-1.9-4.3-2.8l-102.6-59.3c-22.1-12.8-40.1-2.4-40.1,23.1
			l-0.1,118.5c0,25.5,18,56.7,40.1,69.5l102.6,59.3c22.1,12.8,40.1,2.4,40.1-23.1L233.7,1349.7z"/>
		<polygon class="st12" points="715.2,1622.6 338.9,1405.3 338.9,1345.7 715.2,1563 		"/>
		<polygon class="st12" points="715.2,1749.9 338.9,1532.6 338.9,1473.1 715.2,1690.3 		"/>
	</g>
	<polygon class="st13" points="812.7,1532.4 790.8,1545.1 21.9,1101.2 0,1088.5 21.9,1075.8 	"/>
	<polygon class="st14" points="812.7,1532.4 812.7,1865.3 790.8,1878 790.8,1545.1 	"/>
	<g class="st15">
		<path class="st16" d="M555,546.5L295.7,696.2c-32.3,18.6-60.5,13.7-74.5-9.2c11.6,0.4,24.9-3.2,38.9-11.3L519.6,526L555,546.5z"/>
	</g>
	<path class="st17" d="M211.7,647.7V469c0-53.6,37.6-118.7,84-145.5L681,101c23.2-13.4,44.2-14.7,59.4-5.9l-37.9-21.9
		c-15.2-8.8-36.2-7.5-59.4,5.9L257.8,301.6c-46.4,26.8-84,91.9-84,145.5v178.7c0,26.8,9.4,45.6,24.6,54.4l37.9,21.9
		C221.1,693.3,211.7,674.5,211.7,647.7z"/>
	<path class="st18" d="M681,101.1L295.7,323.5c-46.4,26.8-84,91.9-84,145.5v178.8c0,53.6,37.6,75.3,84,48.5L555,546.5l102.4,49.3
		V487.4l23.6-13.6c46.4-26.8,84-91.9,84-145.5V149.5C765,96,727.4,74.3,681,101.1z"/>
	<polygon class="st17" points="870,703.2 834.6,682.8 834.6,581.3 870,601.8 	"/>
	<path class="st16" d="M870.1,601.8L848,614.5c-27,15.6-56.7,15.4-70.5-9.7c19.4,0,34.1-10.3,57-23.5L870.1,601.8z"/>
	<path class="st17" d="M812.5,245.3l360.6-208.2c21.7-12.5,41.4-13.7,55.6-5.5l35.5,20.5c-14.2-8.2-33.9-7-55.6,5.5L848,265.8
		c-43.4,25.1-78.6,86-78.6,136.1v167.3c0,25.1,8.8,42.7,23,50.9l-35.5-20.5c-14.2-8.2-23-25.8-23-50.9V381.4
		C733.9,331.3,769.1,270.3,812.5,245.3z"/>
	<path class="st18" d="M848,265.8l360.6-208.2c43.4-25.1,78.6-4.7,78.6,45.4v167.3c0,50.1-35.2,111.1-78.6,136.1L965.9,546.5
		L870,703.2V601.8L848,614.6c-43.4,25.1-78.6,4.7-78.6-45.4V401.9C769.4,351.8,804.5,290.8,848,265.8z"/>
	<path class="st19" d="M1500.8,1376.6c-35,21.2-92,84.8-48.9,122.2s103.1,15.9,132.3,37.4c54.7,40.3,26.7,86.6,59,112.2
		c41.7,33.1,128.5,33.1,174-36c41.7-63.3,15.8-135.2-84.8-212.8S1548.2,1347.8,1500.8,1376.6z"/>
	<path class="st20" d="M1772.7,142.8c-8,2.8-13.5,8.2-18.1,11c-0.4-6.3-15-18.9-36.2-21.6c1.1-0.7,2.2-1.4,3.4-2
		C1735.5,134.6,1758.5,139.8,1772.7,142.8z"/>
	<path class="st20" d="M1795.9,146.1c-1.7,4.3-3.8,8.5-6.2,12.4c-1-3.4-1.7-9.5-4.4-13.4C1788.9,145.6,1792.4,145.9,1795.9,146.1z"
		/>
	<path class="st21" d="M1676.6,113.2c-15.2-4.8-47.5-15.2-56.4-22.7c7.5-40,31.2-67.8,53.7-77.8c10.5-4.7,19.5-8.9,29.8-11.2
		C1717.9,52.8,1692,99.8,1676.6,113.2z"/>
	<path class="st22" d="M1801.1,144.9c-1,2.4-13.1,0.5-15.7,0.1c-3.1-4.6-7.3-4.1-12.6-2.2c-0.9,0-35.1-7.5-51-12.5
		c0.3-1.3,0.5-2.5,0.5-3.8c-6-1.3-12.9-3.3-17.7-4.6c-10.3-3-17.1-5.1-28-8.5c14.9-12.8,41.5-59.9,27.1-111.6
		c11.8-2.6,25.2-2.4,44,3C1808.6,22.3,1819.6,100.2,1801.1,144.9z"/>
	<path class="st23" d="M1722.2,126.4c-0.1,1.3-0.3,2.6-0.5,3.8c-18.1,10.7-43.3,27.8-67.5,28.4c-22.6,0.6-45.9-5.9-58.4-13.4
		c-2.1-1.3-4.3-2.4-6.4-3.5c-10.1-4.9-20.4-7.5-24.8-9c-5.3-1.9-11.6-5-3.4-9.7s40.9-26.2,59-32.5c11.7,9.9,68.8,26.6,84.3,31.2
		C1709.3,123.1,1716.2,125.1,1722.2,126.4z"/>
	<path class="st24" d="M1740.9,246.6c-9.5-2-33.9,16.4-47.2,18.4c-7.6,1.2-17.8-4.2-23.9-8.5c-0.8,6.7-2.2,46.5-2.9,48.6
		c1.8,7.3,5.5,14,10.8,19.5c24.2-13.6,56-36.1,71.4-47.5C1751.6,252,1750.1,248.5,1740.9,246.6z"/>
	<path class="st25" d="M1772.2,216.8c0.9-11.2,4-30,5.6-33c-2.8,1.6-8.9,5.1-10.3,8.4s-7.3,8.2-19,6.6
		c-8.6,40.4-58.8,52.9-78.6,57.7c6,4.3,16.3,9.7,23.9,8.5c13.3-2,37.7-20.5,47.2-18.4c9.2,2,10.7,5.4,8.2,30.5
		c3.2-2.4,5.7-4.2,7.3-5.5c9.1-7,19-20.8,23.9-27.2C1774.4,236.6,1771.4,226.8,1772.2,216.8z"/>
	<path class="st26" d="M1704,165.1c-5.2-7.4-15-9.8-26.9-11.2c-7.3,2.8-15,4.4-22.8,4.8c-12.4,0.3-24.8-1.3-36.7-4.6
		c-0.4,6.9-0.2,13.8,0.5,20.6c-4,4.4-7.3,11.5-4.9,15s4.4,4.9,6.1,5.6c0.2,3,0.7,13.4,1.7,16.9s4.2,13.3,4,17.3s-1.9,14.8,1.2,18.5
		s11.9,12,20.6,10.8c1.1-0.1,2.1-0.3,3.1-0.4C1721.6,219.7,1709.2,172.6,1704,165.1z"/>
	<path class="st27" d="M1789.7,158.5c-1-3.4-1.7-9.5-4.4-13.4c-3.1-4.6-7.4-4.2-12.6-2.3c-8,2.8-13.5,8.2-18.2,11
		c-0.4-6.3-15-18.9-36.2-21.6c-12.5,7.6-26.7,16.3-41.3,21.6c11.9,1.4,21.8,3.8,26.9,11.2s17.7,54.7-54.3,93.3
		c7.1-0.8,12.8-0.9,19.6-1.7c19.4-4.7,70.5-17.1,79.2-57.9c11.7,1.6,17.6-3.3,19-6.6s7.5-6.8,10.3-8.4
		C1784.1,179.6,1791.2,169.3,1789.7,158.5z"/>
	<path class="st28" d="M1804.5,279.4c-7.3-9.4-12.9-11-16.2-25.3c-3.1-13.3-5.1-27.3-16-29.4c0.9,7.2,3.6,14.1,8,19.8
		c-4.9,6.3-14.8,20.2-23.9,27.2c-1.6,1.2-4.1,3.1-7.3,5.5c-15.4,11.4-47.2,33.9-71.4,47.5c0.4,8.7,22.5,30.7,26.7,33.3
		c8.9-3.8,63.5-39.4,70.5-45.2S1811.8,288.8,1804.5,279.4z M1669.3,256.6c-3.2,0.4-6.1,0.6-9.1,0.8c-2.9,5.2-7.2,16.9-9.9,26.1
		c-3.1,10.6-11.7,29.9-13.1,36.9s-1.4,13.4,0,14.2s29.7-12.5,40.5-10.1c-5.3-5.4-9-12.1-10.8-19.5
		C1667.7,303.1,1669.1,263.2,1669.3,256.6z"/>
	<path class="st29" d="M1667,305.1c0.7-2.1,2.1-41.9,2.4-48.5c-1.6,0.2-3.2,0.3-4.7,0.5C1662.6,265.3,1660.5,286.5,1667,305.1z
		 M1772.5,226.3c1.1,6.6,3.7,12.9,7.8,18.2C1781.8,239.6,1782.7,230.5,1772.5,226.3z"/>
	<path class="st30" d="M1857,554.5c-4,16.9-13.8,47.2-14.3,49.3s-2,2.3-3.5,2.4c-3.1,14.4-21.3,58.5-27.9,70.1s-20.3,28.7-44.7,39.4
		s-101.7,26.5-110.4,26.8s-50.3,6.7-64.7,9.2c0.3-2-1.2-2.7-4.7-5.8c3.1-4.2,79.3-65.4,88.5-73.2s60.2-25.1,65.8-26.7
		s5.4-7.7,5.9-11.5s4.4-37.7,5.9-48.9c-4.4-1.7-5.2-3.5-5.2-5.7s2.7-52.2,2.7-59.1s4.7-28.9,25-43.6c-6.2-26.6-5.9-49.7,1.6-66.2
		s13.8-34,10-48.4c-3.5-13.4-8.3-34.3-17.5-45.9c-15.9,11.1-57.4,37.9-65,41.2c-2.4-1.5-10.9-9.6-17.7-17.8
		c-5.5,13-26.8,53.4-32.2,63c-6.1,10.8-23.2,48.7-26.9,64.2c-2.1-0.9-12-4.5-19.2-8.9c5.8-23.2,31.5-71.3,35.5-77.9
		c3.8-6.2,22.9-47.8,26.7-55.8c-12.9,1.8-32.2,10.7-33.3,10c-1.4-0.8-1.4-7.2,0-14.2s10-26.2,13.1-36.9c-0.2,0.6-0.4,1.2-0.6,1.9
		c-5.8,4.2-15.5,9.6-20.5,10.5c-6.8,1.2-19.4,10.3-25.8,14.5s-13.4,4.9-16.9,11.5s-13.4,17.8-19.4,21.8s-7,16.4-5.2,22.7
		s1.6,26.7-0.9,36.1s-4.7,34.7-3.5,51.1c-1.3-0.4-20.4,0.1-41.2-6.9l-3,6.8c0,0,14.2,302.9,13.3,308.5s-9.8,46.4-8.9,53.4
		s23.4,23.9,35.6,27.6s116.7,47.3,163.1,56.7s79.2,2.3,93.2-16.4s13.6-55.8,13.1-62.3s9.4-24.8,12.7-36.5s-4.2-38-4.7-55.8
		s23-78.2,31.9-112.5c7-26.9,5-62.7,1.4-84.6C1860.8,541.2,1858.2,549.3,1857,554.5z"/>
	<path class="st31" d="M1650.3,283.6c2.2-7.4,4.8-14.6,7.8-21.7c-8.5,5.6-24.9,18.2-39.9,22.9c-16.4,5.2-35.8,11-47.6,27.6
		s-23.2,38.9-27.7,55.5s-26.5,59.8-42.4,71.9c25.8,14.3,55.3,13.4,56.9,13.8c-1.2-16.4,0.9-41.7,3.5-51.1s2.8-29.8,0.9-36.1
		s-0.9-18.8,5.2-22.7s15.9-15.2,19.4-21.8s10.5-7.3,16.9-11.5s19-13.4,25.8-14.5c5-0.9,14.7-6.3,20.5-10.5
		C1649.9,284.9,1650.2,284.2,1650.3,283.6z"/>
	<path class="st31" d="M1677.8,324.6c-2.4-0.4-4.8-0.4-7.2,0c-3.8,8-22.9,49.6-26.7,55.8c-4,6.6-29.6,54.7-35.5,77.9
		c7.3,4.5,17.1,8,19.2,8.9c3.8-15.5,20.8-53.4,26.9-64.2c5.4-9.5,26.7-50,32.2-63C1681.9,334.2,1677.9,328.2,1677.8,324.6z"/>
	<path class="st31" d="M1880.2,387.4c-9.4-25.3-44.6-77.6-53.1-87.5c-7.1-8.2-15.1-15.6-23.8-22c0.4,0.5,0.8,1,1.2,1.5
		c7.3,9.4-22.5,27.4-29.5,33.3c-1,0.8-2.9,2.2-5.5,4c9.2,11.7,14,32.6,17.5,45.9c3.8,14.4-2.5,31.9-10,48.4s-7.8,39.7-1.6,66.2
		c-20.3,14.7-25,36.7-25,43.6s-2.7,56.9-2.7,59.1s0.8,4,5.2,5.7c0-1.1,0.1-2.1,0.2-3.2c1.6-0.2,5.6-0.5,13.8-1.3s36.2-0.9,50.5,1.3
		s18.9,12.7,22.4,18c-0.1,1-0.5,3.3-0.7,5.7c1.4-0.1,3-0.3,3.5-2.4s10.3-32.5,14.3-49.3s23.2-67,29.3-92.8
		S1889.5,412.7,1880.2,387.4z"/>
	<path class="st32" d="M1827.1,299.9c-2.3-2.7-5-5.6-7.8-8.3c41.4,55.9,44.5,159.1,29.7,204.3c-18.8-2.3-58.6-11.2-87.6-16.9
		c-62-12-178.1-64.4-208-82.9c-3.3,7.5-21.6,36.5-29.5,42.2l36.6,176.2c0,0,35.6,57.8,71.8,93.6c19.5-15.9,38.9-31.6,43.3-35.3
		c9.1-7.7,60.2-25.1,65.8-26.7s5.4-7.7,5.9-11.5s4.4-37.7,5.9-48.9c0-1.1,0.1-2.1,0.2-3.2c1.6-0.2,5.6-0.5,13.8-1.3
		s36.2-0.9,50.5,1.3s18.9,12.7,22.4,18c-0.1,1-0.5,3.3-0.7,5.7c-3.1,14.4-21.3,58.5-27.9,70.1s-20.3,28.7-44.7,39.4
		c-16.2,7.1-55.9,16.5-83.2,22.1c15.2,5.4,43.6,11.9,72.8,10.2c-0.9,3.8,5.2,26.7,16.4,45.5s7.5,32.8,2.3,45s3.8,20.6,9.8,24.4
		s-10.6,20.5-10.8,39.5c16.3-2.8,28.4-9.3,35.6-18.9c14-18.7,13.6-55.8,13.1-62.3s9.4-24.8,12.7-36.5s-4.2-38-4.7-55.8
		s23-78.2,31.9-112.5c7-26.9,5-62.7,1.4-84.6c7.4-22.1,18-52,22.3-70c6.1-25.8,3.3-49-6.1-74.3S1835.5,309.8,1827.1,299.9z"/>
	<path class="st33" d="M1817.5,582.5c-14.3-2.2-42.3-2.1-50.5-1.3s-12.2,1.2-13.8,1.3c-0.1,1.1-0.2,2.1-0.2,3.2
		c-1.4,11.2-5.4,45.1-5.9,48.9s-0.2,9.8-5.9,11.5s-56.7,19-65.8,26.7s-87.1,68.5-90.2,72.7c3.4,3.1,6.7,4.2,6.4,6.2
		c14.4-2.5,55.9-8.9,64.7-9.2s86.1-16.2,110.4-26.9s38.1-27.8,44.7-39.4s24.8-55.7,27.9-70.1c0.1-2.4,0.5-4.7,0.7-5.7
		C1836.3,595.1,1831.8,584.7,1817.5,582.5z"/>
	<path class="st34" d="M1666.5,680.1l8.4,9.3c19.1-7.8,72.5-36.2,96.5-34.4c-9.6-12.9,1.6-54.2,0.5-74.2c-2,0.1-3.7,0.2-4.9,0.3
		c-8.2,0.8-12.2,1.2-13.8,1.3c-0.1,1.1-0.2,2.1-0.2,3.2c-1.4,11.2-5.4,45.1-5.9,48.9s-0.2,9.8-5.9,11.5s-56.7,19-65.8,26.7
		C1673.9,674,1670.8,676.6,1666.5,680.1z"/>
	<polygon class="st35" points="1445,805.7 1210.3,690.5 1210.3,487.9 1445,603.1 	"/>
	<polygon class="st36" points="1445,607.4 1210.3,492.1 1210.3,487.9 1445,603.1 	"/>
	<polygon class="st12" points="1316.1,734.1 1221.2,687.6 1221.3,639.6 1316.1,686.2 	"/>
	<polygon class="st37" points="1233,690 1227.9,687.5 1227.9,647.2 1233,649.7 	"/>
	<polygon class="st37" points="1238.2,675.2 1235.6,673.9 1235.6,651 1238.2,652.2 	"/>
	<polygon class="st37" points="1244.6,678.3 1240.8,676.5 1240.8,653.5 1244.6,655.4 	"/>
	<polygon class="st37" points="1252.2,682.1 1247.2,679.6 1247.2,656.6 1252.2,659.1 	"/>
	<polygon class="st37" points="1257.4,684.6 1254.8,683.4 1254.8,660.4 1257.4,661.7 	"/>
	<polygon class="st37" points="1270.2,690.9 1267.6,689.7 1267.6,666.7 1270.2,667.9 	"/>
	<polygon class="st37" points="1284.7,698 1282.2,696.8 1282.2,673.8 1284.7,675.1 	"/>
	<polygon class="st37" points="1291.1,701.2 1287.3,699.3 1287.3,676.4 1291.1,678.2 	"/>
	<polygon class="st37" points="1296.2,703.7 1293.7,702.5 1293.7,679.5 1296.2,680.8 	"/>
	<polygon class="st37" points="1303.9,707.5 1298.8,705 1298.8,682 1303.9,684.5 	"/>
	<polygon class="st37" points="1279.6,695.5 1272.8,692.2 1272.8,669.2 1279.6,672.6 	"/>
	<polygon class="st37" points="1265,705.7 1259.9,703.2 1259.9,662.9 1265,665.4 	"/>
	<polygon class="st37" points="1311.6,728.5 1306.5,726.1 1306.5,685.8 1311.6,688.3 	"/>
	<path class="st38" d="M1409,770.1c0.2-0.8,0.6-1.6,1.1-2.3l1.5,2l0.6-7l-5.8,0.2l1.5,2l-1.1,1.2c-0.8,0.9-0.9,2.5-0.3,4.2
		c0.6,1.6,1.7,3,3.2,3.8l7.8,3.8V775l-7.8-3.9C1409.4,771,1409.1,770.6,1409,770.1z M1431,778.1l-3.7-7.7l-2.2,0.7l3.6,7.7
		c-0.8,1.3-4.9-0.7-4.9-0.7V776l-5.5,0.9l5.5,6.4v-2.1l4.2,2c1.4,0.7,2.6,0.4,3.2-0.7C1431.9,781.1,1431.8,779.5,1431,778.1
		L1431,778.1z M1417,760.6c0.5-0.5,1.4-0.6,2-0.2c0.9,0.5,1.6,1.2,2,2.1l0.9,1.9l-1.5,0.5l5.8,5.9l-0.6-7.6l-1.5,0.5l-0.9-1.9
		c-0.9-1.9-2.3-3.5-4.2-4.5c-1.7-0.8-3.2-0.7-4.2,0.4l-3.3,3.7l2.2,2.9L1417,760.6z"/>
	<polygon class="st38" points="1396.6,739.2 1375.5,728.8 1375.5,726.9 1396.6,737.2 	"/>
	<polygon class="st38" points="1382.1,728.8 1379.2,727.4 1379.2,713.1 1382.1,714.5 	"/>
	<polygon class="st38" points="1384.9,717.1 1380.6,708.2 1376.4,712.9 	"/>
	<polygon class="st38" points="1392.8,734 1389.9,732.6 1389.9,718.4 1392.8,719.8 	"/>
	<polygon class="st38" points="1395.6,722.3 1391.3,713.4 1387,718.1 	"/>
	<path class="st38" d="M1418.9,729.7c-0.9,0.4-0.9,17.4-0.9,17.4c0,0.6-0.2,1.9-1.6,1.2c-1.2-0.5-1.9-1.7-2-2.9
		c-0.1-0.5-0.4-1-0.8-1.2c-0.9,2.7,1,4.8,2.8,5.7c2,1,3.3,0.2,3.3-1.9l0.1-17C1419.7,730.4,1419.4,729.9,1418.9,729.7z"/>
	<path class="st38" d="M1418.9,731.2c5.2,2.5,9.1,7.1,10.8,12.6c-0.8-1.3-2.6-2.2-3.7-1.8c-1.1-1.5-2.6-2.3-3.8-1.9
		c-0.6-1.1-1.7-1.8-3-2c-1.6-1.2-2.6-1.7-3.7-1.2c-1.2-1.6-2.7-2.3-3.8-1.9c-1.1-1.5-2.8-2.3-3.7-1.9
		C1410.2,727.7,1416.1,729.8,1418.9,731.2z"/>
	<path class="st38" d="M1431.6,734.2c-0.5,0.5-1.3,0.6-1.8,0.1c0,0-0.1-0.1-0.1-0.1c-0.6-0.6-0.6-1.4-0.2-2.1
		c0.5-0.6,2.5-0.8,2.5-0.8S1432.1,733.6,1431.6,734.2z"/>
	<path class="st38" d="M1426.8,734.1c-0.5,0.5-1.3,0.6-1.8,0.1c0,0-0.1-0.1-0.1-0.1c-0.6-0.6-0.6-1.4-0.2-2.1
		c0.5-0.6,2.5-0.8,2.5-0.8S1427.3,733.5,1426.8,734.1z"/>
	<path class="st38" d="M1431.3,739.2c-0.5,0.5-1.3,0.6-1.8,0.1c0,0-0.1-0.1-0.1-0.1c-0.6-0.6-0.6-1.4-0.2-2.1
		c0.5-0.6,2.5-0.8,2.5-0.8S1431.7,738.6,1431.3,739.2z"/>
	<polygon class="st38" points="1387.6,764.5 1384.5,763 1384.5,752.3 1387.6,753.8 	"/>
	<path class="st38" d="M1392.3,767.2l-12.6-6.2c0-2.1,12.6,4,12.6,5.4V767.2z"/>
	<path class="st38" d="M1389.5,743.1l-1.9,1.5l2.3,1.1c0.4,0.8-3.8,4.9-3.8,4.9l3.1-4.4l-2.9-1.1c-0.6-1.2,1.1-3.2,1.1-3.2l-9.1-4.5
		v10c0.1,0.9,0.5,1.8,1.1,2.5c5,5.5,8.3,7.1,13.3,6.5c0.7-0.1,1.2-0.7,1.1-1.4v-10L1389.5,743.1z"/>
	<path class="st38" d="M1437.2,794.2l-68.9-33.8V697l68.9,33.8V794.2z M1371,759.2l63.5,31.2v-58.4l-63.5-31.2V759.2z"/>
	<polygon class="st38" points="1435.9,763 1369.7,730.5 1369.7,728.1 1435.9,760.6 	"/>
	<polygon class="st38" points="1404.1,776.7 1401.5,775.4 1401.5,714.5 1404.1,715.8 	"/>
	<path class="st39" d="M1304.3,534v64.1c2.8-3,6-5.5,9.6-7.5c1.8,3.8,2.7,8,2.7,12.3c3.9-7.4,5.1-17.1,3.3-27.8
		c2.4,5.6,3.9,11.5,4.3,17.6c1.4-4.6,2.7-9.1,4.1-13.7c2.6,4.4,4.2,9.4,4.7,14.5c0.9-2,1.9-4,2.8-6c4.1,19.1,8.2,38.1,12.3,57.2
		c1-5,2-10,2.9-15V557L1304.3,534z"/>
	<polygon class="st40" points="1304.3,538.2 1351,561.2 1351,557 1304.3,534 	"/>
	<polygon class="st41" points="1331.2,549.4 1445,605.2 1445,603.1 1331.2,547.3 	"/>
	<polygon class="st39" points="1331.2,549.4 1351,559.1 1351,557 1331.2,547.3 	"/>
	<polygon class="st41" points="1324.1,545.9 1210.3,490 1210.3,487.9 1324.1,543.8 	"/>
	<polygon class="st39" points="1324.1,545.9 1304.3,536.1 1304.3,534 1324.1,543.8 	"/>
	<polygon class="st42" points="1679.6,502.4 1445,387.2 1210.3,487.9 1445,603.1 	"/>
	<polygon class="st41" points="1585.7,456.3 1538.9,433.3 1304.3,534 1351,557 	"/>
	<polygon class="st43" points="1565.9,446.5 1558.7,443 1324.1,543.8 1331.2,547.3 	"/>
	<polygon class="st44" points="1679.6,705 1679.6,502.4 1445,603.1 1445,805.7 	"/>
	<path class="st45" d="M1633.2,561.5c-0.2-0.5-0.2-1,0.1-1.4l1.3-2.7l1.9,0.7l0.8-9.4l-7.3,6.9l1.9,0.7l-1.3,2.7
		c-1,2-1.1,4.1-0.3,5.5s2.3,1.8,4,1.1l9.8-4.2v-3.9l-9.8,4.2C1633.9,561.9,1633.4,561.8,1633.2,561.5z M1660.8,546l-4.6-5.4
		l-2.8,3.4l4.6,5.4c0.3,0.4,0.3,0.9,0.1,1.3c-0.2,0.5-0.5,0.9-1,1.2l-5.2,2.2v-2.6l-6.9,7.5l6.9,1.6V558l5.2-2.2
		c1.9-0.9,3.3-2.6,4-4.5C1661.9,549.2,1661.8,547.2,1660.8,546L1660.8,546z M1643.2,540.3c0.5-1.1,1.4-2,2.4-2.5
		c0.8-0.5,1.8-0.3,2.4,0.4l1.1,1.3l-1.9,2.3l7.3,0.7l-0.7-8.8l-1.9,2.3l-1.1-1.3c-1.2-1.4-3.1-1.7-5.2-0.8c-2.3,1.1-4.1,3-5.2,5.3
		l-4.1,8.4l2.8,1L1643.2,540.3z"/>
	<polygon class="st45" points="1614.4,577 1586.9,588.8 1586.9,586.2 1614.4,574.4 	"/>
	<polygon class="st45" points="1595.6,580.8 1591.8,582.3 1591.8,563.8 1595.5,562.2 	"/>
	<polygon class="st45" points="1599.2,562.2 1593.6,555.7 1588.1,566.9 	"/>
	<polygon class="st45" points="1609.4,574.8 1605.7,576.4 1605.7,557.9 1609.4,556.3 	"/>
	<polygon class="st45" points="1613.1,556.2 1607.5,549.7 1602,561 	"/>
	<path class="st45" d="M1670,560.5l-93.3,40v-44.6l93.3-40L1670,560.5z M1580.4,595.6l86-36.9v-37.9l-86,36.9V595.6z"/>
	<polygon class="st45" points="1625.2,578.9 1621.6,580.5 1621.6,537.5 1625.2,536 	"/>
	<path class="st46" d="M1586.9,745.9c-1.9-1.9-6.7-2.8-12.3-0.3s-12.7,5.3-15.5,4.8s-13-3.6-18.6,1.4s-6.1,9.2-4.1,11.2
		s4.4,1.7,7.5,3.4s7.2,4.8,11.4,4.2s8.6-3.1,12.7-3.1s11.4-1.9,15.2-5c4.2-3.4,6.4-7.2,8.4-10.9
		C1591.9,749.7,1590.4,749,1586.9,745.9z"/>
	<path class="st33" d="M1591.6,751.7c0.3-2-1.2-2.7-4.7-5.8c-1.2-1-2.8-1.7-4.4-1.7c-0.9,5.5-10.8,14.1-16.8,14.3
		c-5.2,0.2-18.6-5.8-28.8-2.6c-2.1,3.2-1.9,5.8-0.5,7.2c2,2,4.4,1.7,7.5,3.4s7.2,4.8,11.4,4.2s8.6-3.1,12.7-3.1s11.4-1.9,15.2-5
		C1587.4,759.2,1589.6,755.5,1591.6,751.7z"/>
	<path class="st47" d="M1672.4,1315.4c-2.8,19.2-5.2,50.6-7,81.5c-11.1,15.2-36.9,21.5-56.5,20.8c-7-0.3-13.1-1.4-17.6-3.4
		c-16.9-7.5-47.3-37-46.4-40.8s6.6-6.1,10.3-15.9s11.2-17.8,17.3-24.8s5.6-18.3,3.3-34.2s1.4-44,1.4-58.6s-3.8-90-7.5-105.4
		s-15.9-85.8-17.8-99.8s-24.8-78.3-30-105c-4.9-25.2-9.3-83.2-1.6-109.4c6.5,8,23.1,19.7,33,22.7c4.7,1.4,23,8.8,46.4,17.8
		c2.4,0.9,4.9,1.9,7.4,2.8c-0.2,10.9,7.3,24.7,12.7,30.5c6.1,6.5,23.9,15,29,18.7s5.2,23,8.4,39.4s15.9,77.3,24.8,126
		c-3.8,9.4,2.3,61.8,4.2,97.9S1675.2,1296.2,1672.4,1315.4z"/>
	<path class="st48" d="M1672.4,1315.4c-2.8,19.2-5.2,50.6-7,81.5c-11.1,15.2-36.9,21.5-56.5,20.8c4.3-29.2,31.7-59.2,40.1-80.3
		c9.8-24.8-4.2-54.8-3.8-73.1s11.2-58.1,12.2-73.6s-19.2-30.9-16.4-52.5s14.1-38.4,13.6-52.5s-8.9-64.2-8.9-85.8
		s-13.1-77.8-26.7-85.8c-12.6-7.4-18.7-35.5-19.2-53.5c2.4,0.9,4.9,1.9,7.4,2.8c-0.2,10.9,7.3,24.7,12.7,30.5
		c6.1,6.5,23.9,15,29,18.7s5.2,23,8.4,39.4s15.9,77.3,24.8,126c-3.8,9.4,2.3,61.8,4.2,97.9S1675.2,1296.2,1672.4,1315.4z"/>
	<path class="st47" d="M1843.4,1252.1c-0.5-41.2-12.2-68.9-15.9-79.7s-15-70.3-16.4-84.3s8.4-99.8,8.9-135.9
		c0.3-25.3,0-63.2-1.2-89.2c-2,7.5-4.9,14.7-9,20.3c-14.1,18.7-46.9,25.8-93.2,16.4c-27.7-5.6-76-23.3-113.1-37.6l3.8,1.5
		c-0.2,10.9,7.3,24.7,12.7,30.5c6.1,6.5,23.9,15,29,18.7s5.2,23,8.4,39.4s15.9,77.3,24.8,126c4.2,11.2,8.4,29.5,14.5,36.6
		s18.3,76.8,28.6,99.3s11.7,52.5,13.1,66.1s-2.8,62.8,2.3,78.3s0.5,23-6.1,38.4s-8,40.8-3.8,52s-0.5,8.9-5.2,21.6
		c14.1,16.9,42.2,23,66.5,29.5s29.1-14,29.1-15.5s4.2-30.5,13.6-47.8s9.8-30.5,7-48.3S1843.8,1293.4,1843.4,1252.1z"/>
	<path class="st48" d="M1842,1388.5c-2.8-17.8,1.9-95.1,1.4-136.3s-12.2-68.9-15.9-79.7s-15-70.3-16.4-84.3s8.4-99.8,8.9-135.9
		c0.3-25.3,0-63.2-1.2-89.2c-2,7.5-4.9,14.7-9,20.3c-6.5,8.7-17,14.8-31.1,18c4,24.1,3.1,106.1-1.6,129.4
		c-5,25-16.9,113.1-5.6,134.3s47.5,55.6,53.7,100.6s-0.6,90.6-14.4,103.7s-57.5,36.9-37.5,53.7s43.7,19.4,30,29.4
		c-9.7,7.1-28.1,25.6-27.8,43c5.7,1.6,11.3,3,16.8,4.5c24.4,6.6,29.1-14,29.1-15.5s4.2-30.5,13.6-47.8S1844.8,1406.3,1842,1388.5z"
		/>
	<path class="st30" d="M1608.9,1417.7c-7-0.3-13.1-1.4-17.6-3.4c-12.2-5.4-31.5-22.4-40.9-32.8c-5.1,5.7-13.9,12.8-28,19.2
		c-17.8,8.1-38.7,25.2-43.6,35.8c-4.6,10.1-4.7,30,17.6,30.7c18.4,0.6,55.1-9.4,67.2-17.5s41.2-26.9,52.2-30.6
		c-0.1-0.5-0.2-1-0.3-1.5C1613.2,1417.7,1611,1417.8,1608.9,1417.7z"/>
	<path class="st49" d="M1661.9,1400.8c-0.1,5.7-1.7,12.7-3.2,14.6c-6.6,8.2-30.7,20.4-38.7,21.8s-32.3,9.1-41.5,19
		c-5.5,6-14.8,12.8-25.4,18.4c-7,3.7-14.3,6.6-21.9,8.8c-19,5.2-38.9,1.9-46.4-1.6s-8.9-13.1-11-22.7c-1.8-8.4,0.4-17,4.3-21
		c-4,10.4-3.1,28.6,18.2,29.2c13.5,0.4,36.6-4.7,52.8-10.7c5-1.7,9.9-4,14.4-6.8c12.2-8.1,41.2-26.9,52.2-30.6
		c-0.1-0.5-0.2-1-0.3-1.5C1632.1,1417,1651.1,1411.7,1661.9,1400.8z"/>
	<path class="st50" d="M1661.9,1400.8c-0.1,5.7-1.7,12.7-3.2,14.6c-6.6,8.2-30.7,20.4-38.7,21.8s-32.3,9.1-41.5,19
		c-5.5,6-14.8,12.8-25.4,18.4c-5.2-5.4-5-13-4-18.1c5-1.7,9.9-4,14.4-6.8c12.2-8.1,41.2-26.9,52.2-30.6c-0.1-0.5-0.2-1-0.3-1.5
		C1632.1,1417,1651.1,1411.7,1661.9,1400.8z"/>
	<path class="st32" d="M1608.9,1417.7c-7-0.3-13.1-1.4-17.6-3.4c-5.9-2.6-13.4-7.9-20.6-13.8c-4,18.3-5.9,41.7-19.8,55.4
		c4.5-1.6,8.8-3.7,12.8-6.2c12.2-8.1,41.2-26.9,52.2-30.6c-0.1-0.5-0.2-1-0.3-1.5C1613.2,1417.7,1611,1417.8,1608.9,1417.7z"/>
	<path class="st30" d="M1792.3,1500c-21.6-5.8-46.2-11.3-61.2-24.2c-4.8,8-15.1,27.1-19.6,32.9c-4.9,6.3-23.4,33.7-26.9,47.6
		s-0.2,22.3,9.4,28.1s38.2,9.6,61.8-1.6s36.3-41.2,39.8-49c2.9-6.3,10.9-24.7,14.5-34.3C1805.8,1501.5,1800.1,1502.1,1792.3,1500z"
		/>
	<path class="st49" d="M1803.8,1534.5c-8.7,16.4-9.8,32.8-19.9,45.7c-7.7,9.8-21.7,19.9-39.3,24.8c-5.7,1.6-11.5,2.6-17.4,3
		c-25.6,1.7-38.9-4.7-44.5-14.3s-5.2-20.2-1.7-33.3c3.2-11.9,8.5-20.4,13.5-25.8c-4.6,7.9-8.6,15.9-10,21.6
		c-3.5,13.8-0.2,22.3,9.4,28.1c8.1,4.9,29.7,8.4,50.4,2.6c3.9-1.1,7.7-2.5,11.4-4.2c23.7-11.2,36.3-41.2,39.8-49
		c2.9-6.3,10.9-24.7,14.5-34.3c2.2-1,4.2-2.5,5.8-4.2C1816.4,1504.3,1811.2,1520.4,1803.8,1534.5z"/>
	<path class="st50" d="M1803.8,1534.5c-8.7,16.4-9.8,32.8-19.9,45.7c-7.7,9.8-21.7,19.9-39.3,24.8c-0.8-5.4-0.5-13.1-0.3-18
		c3.9-1.1,7.7-2.5,11.4-4.2c23.7-11.2,36.3-41.2,39.8-49c2.9-6.3,10.9-24.7,14.5-34.3c2.2-1,4.2-2.5,5.8-4.2
		C1816.4,1504.3,1811.2,1520.4,1803.8,1534.5z"/>
	<path class="st32" d="M1792.3,1500c-10.3-2.8-21.3-5.5-31.6-9c22.1,23.8,11.9,68.7-2.2,90.2c21.9-12.2,33.7-40.1,37.1-47.6
		c2.9-6.3,10.9-24.7,14.5-34.3C1805.8,1501.5,1800.1,1502.1,1792.3,1500z"/>
	<path class="st19" d="M1392.4,1863.5l-296.1,171.2c-3.7,2.1-5,6.9-2.8,10.6c0.7,1.2,1.7,2.2,2.8,2.8l79.4,45.8
		c8.6,4.9,19.1,4.9,27.7,0l279.1-161.3c4.7-2.7,6.3-8.8,3.5-13.5c-0.9-1.5-2.1-2.7-3.5-3.5L1392.4,1863.5z"/>
	<path class="st19" d="M1269.9,1818.5l-296.1,171.1c-3.7,2.1-5,6.8-2.8,10.5c0.7,1.2,1.7,2.2,2.8,2.8l82.2,47.2c8.6,5,19.1,5,27.7,0
		l279.1-161.3c4.7-2.7,6.3-8.8,3.5-13.5c-0.9-1.5-2.1-2.7-3.5-3.5L1269.9,1818.5z"/>
	<polygon class="st51" points="1071.1,2047.1 980.8,1994.9 1058.3,2002.3 	"/>
	<polygon class="st52" points="1351,1885.5 1260.7,1833.4 1273.5,1878.1 	"/>
	<polygon class="st53" points="1246.9,1489.5 1260.7,1833.4 1273.5,1878.1 1237.6,1515.3 	"/>
	<path class="st54" d="M1184.3,1556.7c-2.2,1.3-4,0.2-4-2.3v-75.9c0-31.6-21.3-46.3-48.6-31.7c-28.8,15.3-52.5,55.7-52.5,88.7v77.3
		c-0.1,2.8-1.6,5.4-4,7c-2.2,1.3-4,0.2-4-2.3v-75.7c0-36.6,24.6-82.1,56.3-101.8c33.3-20.7,60.9-5.7,60.9,32.5v77.3
		C1188.2,1552.6,1186.7,1555.2,1184.3,1556.7z"/>
	<polygon class="st55" points="1246.9,1489.5 1013.7,1624.2 1058.3,1618.8 1049.1,1644.6 1282.3,1510 1237.6,1515.3 	"/>
	<path class="st56" d="M1194.4,1542.5c-0.3,4.7-2.7,8.9-6.6,11.5c-3.7,2.1-6.6,0.4-6.6-3.8c0.3-4.7,2.7-8.9,6.6-11.5
		C1191.5,1536.5,1194.4,1538.3,1194.4,1542.5z"/>
	<path class="st56" d="M1085.8,1605.2c-0.3,4.7-2.7,8.9-6.6,11.5c-3.7,2.1-6.6,0.4-6.6-3.8c0.3-4.7,2.7-8.9,6.6-11.5
		C1082.8,1599.2,1085.8,1601,1085.8,1605.2z"/>
	<polygon class="st57" points="1013.7,1624.2 1058.3,1618.8 1058.3,2002.3 980.8,1994.9 	"/>
	<polygon class="st58" points="1058.3,1618.8 1058.3,2002.3 1071.1,2047.1 1049.1,1644.6 	"/>
	<polygon class="st59" points="1061.3,1616.5 1049.1,1644.6 1061.3,1636.9 	"/>
	<polygon class="st60" points="1058.3,1780.5 1058.3,2002.3 1071.1,2047.1 	"/>
	<polygon class="st59" points="1234.7,1517.6 1282.3,1510 1351,1885.5 1270.6,1880.4 	"/>
	<path class="st61" d="M1282.3,1510l-44.7,5.3l9.3-25.8l-233.2,134.6l44.7-5.3l-9.2,25.8L1282.3,1510z M1023,1621.1l220.2-127.2
		l-8.5,23.7l38.3-4.6l-220.2,127.2l8.5-23.7L1023,1621.1z"/>
	<polygon class="st30" points="1049.1,1644.6 1282.3,1510 1351,1885.5 1071.1,2047.1 	"/>
	<path class="st62" d="M1225.5,1568.8c-0.3,4.7-2.7,8.9-6.6,11.5c-3.7,2.1-6.6,0.4-6.6-3.8c0.3-4.7,2.7-8.9,6.6-11.5
		C1222.6,1562.9,1225.5,1564.6,1225.5,1568.8z"/>
	<path class="st62" d="M1116.9,1631.6c-0.3,4.7-2.7,8.9-6.6,11.5c-3.7,2.1-6.6,0.4-6.6-3.8c0.3-4.7,2.7-8.9,6.6-11.5
		C1113.9,1625.6,1116.9,1627.3,1116.9,1631.6z"/>
	<path class="st63" d="M1218.8,1576.6c-2.2,1.3-4,0.2-4-2.3v-75.9c0-31.6-21.2-46.3-48.6-31.7c-28.8,15.3-52.5,55.7-52.5,88.7v77.3
		c-0.1,2.8-1.6,5.4-4,7c-2.2,1.3-4,0.2-4-2.3v-75.7c0-36.6,24.6-82.1,56.3-101.8c33.3-20.7,60.9-5.7,60.9,32.5v77.3
		C1222.6,1572.6,1221.1,1575.1,1218.8,1576.6z"/>
	<polygon class="st64" points="1473.5,1928.3 1193.7,2089.9 1103.4,2037.8 1383.2,1876.2 	"/>
	<polygon class="st65" points="1193.7,2089.9 1103.4,2037.8 1180.9,2045.2 	"/>
	<polygon class="st52" points="1473.5,1928.3 1383.2,1876.2 1396,1921 	"/>
	<polygon class="st66" points="1369.4,1532.4 1383.2,1876.2 1396,1921 1360.2,1558.2 	"/>
	<path class="st54" d="M1306.9,1599.6c-2.2,1.3-4,0.2-4-2.3v-75.9c0-31.6-21.2-46.3-48.6-31.7c-28.8,15.3-52.5,55.7-52.5,88.7v77.3
		c-0.1,2.8-1.6,5.4-4,7c-2.2,1.3-4,0.2-4-2.3v-75.7c0-36.6,24.6-82.1,56.3-101.8c33.3-20.7,60.9-5.7,60.9,32.5v77.3
		C1310.7,1595.5,1309.2,1598.1,1306.9,1599.6z"/>
	<polygon class="st55" points="1369.4,1532.4 1136.2,1667 1180.9,1661.7 1171.6,1687.5 1404.8,1552.8 1360.2,1558.2 	"/>
	<path class="st56" d="M1315.8,1584.6c-0.3,4.7-2.7,8.9-6.6,11.5c-3.7,2.1-6.6,0.4-6.6-3.8c0.3-4.7,2.7-8.9,6.6-11.5
		C1312.9,1578.6,1315.8,1580.3,1315.8,1584.6z"/>
	<path class="st56" d="M1207.2,1647.3c-0.3,4.7-2.7,8.9-6.6,11.5c-3.7,2.1-6.6,0.4-6.6-3.8c0.3-4.7,2.7-8.9,6.6-11.5
		C1204.2,1641.3,1207.2,1643,1207.2,1647.3z"/>
	<polygon class="st67" points="1136.2,1667 1180.9,1661.7 1180.9,2045.2 1103.4,2037.8 	"/>
	<polygon class="st58" points="1180.9,1661.7 1180.9,2045.2 1193.7,2089.9 1171.6,1687.5 	"/>
	<polygon class="st59" points="1183.8,1659.4 1171.6,1687.5 1183.8,1679.8 	"/>
	<polygon class="st68" points="1180.9,1823.4 1180.9,2045.2 1193.7,2089.9 	"/>
	<polygon class="st59" points="1357.2,1560.5 1404.8,1552.8 1473.5,1928.3 1393.1,1923.3 	"/>
	<path class="st61" d="M1404.8,1552.8l-44.7,5.3l9.2-25.8L1136.2,1667l44.7-5.3l-9.2,25.8L1404.8,1552.8z M1145.5,1663.9
		l220.2-127.2l-8.5,23.7l38.3-4.6l-220.2,127.2l8.5-23.7L1145.5,1663.9z"/>
	<polygon class="st69" points="1171.6,1687.5 1404.8,1552.8 1473.5,1928.3 1193.7,2089.9 	"/>
	<path class="st62" d="M1348.1,1611.7c-0.3,4.7-2.7,8.9-6.6,11.5c-3.7,2.1-6.6,0.4-6.6-3.8c0.3-4.7,2.7-8.9,6.6-11.5
		C1345.1,1605.8,1348.1,1607.5,1348.1,1611.7z"/>
	<path class="st62" d="M1239.4,1674.5c-0.3,4.7-2.7,8.9-6.6,11.5c-3.7,2.1-6.6,0.4-6.6-3.8c0.3-4.7,2.7-8.9,6.6-11.5
		C1236.5,1668.5,1239.4,1670.2,1239.4,1674.5z"/>
	<path class="st63" d="M1341.3,1619.5c-2.2,1.3-4,0.2-4-2.3v-75.9c0-31.6-21.2-46.3-48.6-31.7c-28.8,15.3-52.5,55.7-52.5,88.7v77.3
		c-0.2,2.8-1.6,5.4-4,6.9c-2.2,1.3-4,0.2-4-2.3v-75.7c0-36.6,24.6-82.1,56.3-101.8c33.3-20.7,60.9-5.7,60.9,32.5v77.3
		C1345.2,1615.4,1343.7,1617.9,1341.3,1619.5z"/>
	<polygon class="st70" points="2275.1,87.6 2267.3,101.4 2238.6,89.7 2208.4,77.3 2225.5,67.3 	"/>
	<polygon class="st71" points="2363.4,262.6 2346.3,272.6 2341.3,236.5 2336.2,199 2353.4,189.6 	"/>
	<polygon class="st72" points="2337.1,121.9 2319.9,131.8 2297.9,67.6 2293.6,55 2310.7,45.1 	"/>
	<path class="st73" d="M2396,165.8l-17.1,9.9l-58.9-43.9l17.1-9.9L2396,165.8z"/>
	<path class="st74" d="M2353.4,189.6l-17.2,9.4l5.1,37.4l4.9,36.1l-52.7-62.4l-52.7,1.6l10.1-61.9l-42.6-72.6l30.2,12.4l28.6,11.7
		l7.8-13.8l18.5-32.6l4.3,12.6l22,64.2l58.5,43.5C2378.8,175.7,2353.4,189.6,2353.4,189.6z"/>
	<polygon class="st70" points="2275.1,348.8 2267.3,362.6 2238.6,350.9 2208.4,338.5 2225.5,328.6 	"/>
	<polygon class="st71" points="2363.4,523.8 2346.3,533.8 2341.3,497.7 2336.2,460.3 2353.4,450.8 	"/>
	<polygon class="st72" points="2337.1,383.1 2319.9,393 2297.9,328.9 2293.6,316.2 2310.7,306.3 	"/>
	<path class="st73" d="M2396,427l-17.1,9.9l-58.9-43.9l17.1-10L2396,427z"/>
	<path class="st74" d="M2353.4,450.8l-17.2,9.4l5.1,37.4l4.9,36.1l-52.7-62.3l-52.7,1.6l10.1-61.9l-42.6-72.6l30.2,12.4l28.6,11.7
		l7.8-13.8l18.5-32.6l4.3,12.6l22,64.2l58.5,43.5C2378.8,436.9,2353.4,450.8,2353.4,450.8z"/>
	<polygon class="st70" points="2275.1,610.1 2267.3,623.8 2238.6,612.1 2208.4,599.7 2225.5,589.8 	"/>
	<polygon class="st71" points="2363.4,785.1 2346.3,795 2341.3,758.9 2336.2,721.5 2353.4,712.1 	"/>
	<polygon class="st72" points="2337.1,644.3 2319.9,654.3 2297.9,590.1 2293.6,577.5 2310.7,567.5 	"/>
	<path class="st73" d="M2396,688.2l-17.1,9.9l-58.9-43.9l17.1-9.9L2396,688.2z"/>
	<path class="st74" d="M2353.4,712.1l-17.2,9.4l5.1,37.4l4.9,36.1l-52.7-62.4l-52.7,1.6l10.1-61.9l-42.6-72.6l30.2,12.4l28.6,11.7
		l7.8-13.8l18.5-32.6l4.3,12.6l22,64.2l58.5,43.5C2378.8,698.1,2353.4,712.1,2353.4,712.1z"/>
	<polygon class="st70" points="2275.1,871.3 2267.3,885.1 2238.6,873.3 2208.4,861 2225.5,851 	"/>
	<polygon class="st71" points="2363.4,1046.3 2346.3,1056.2 2341.3,1020.2 2336.2,982.7 2353.4,973.3 	"/>
	<polygon class="st72" points="2337.1,905.5 2319.9,915.5 2297.9,851.3 2293.6,838.7 2310.7,828.7 	"/>
	<path class="st73" d="M2396,949.5l-17.1,9.9l-58.9-43.9l17.1-9.9L2396,949.5z"/>
	<path class="st74" d="M2353.4,973.3l-17.2,9.4l5.1,37.4l4.9,36.1l-52.7-62.4l-52.7,1.6l10.1-61.9l-42.6-72.6l30.2,12.4l28.6,11.7
		l7.8-13.8l18.5-32.6l4.3,12.6l22,64.2l58.5,43.5C2378.8,959.4,2353.4,973.3,2353.4,973.3z"/>
	<polygon class="st70" points="2275.1,1132.5 2267.3,1146.3 2238.6,1134.6 2208.4,1122.2 2225.5,1112.2 	"/>
	<polygon class="st71" points="2363.4,1307.5 2346.3,1317.5 2341.3,1281.4 2336.2,1243.9 2353.4,1234.5 	"/>
	<polygon class="st72" points="2337.1,1166.8 2319.9,1176.7 2297.9,1112.5 2293.6,1099.9 2310.7,1090 	"/>
	<path class="st73" d="M2396,1210.7l-17.1,10l-58.9-43.9l17.1-10L2396,1210.7z"/>
	<path class="st74" d="M2353.4,1234.5l-17.2,9.4l5.1,37.4l4.9,36.1l-52.7-62.4l-52.7,1.6l10.1-61.9l-42.6-72.6l30.2,12.4l28.6,11.7
		l7.8-13.8l18.5-32.6l4.3,12.6l22,64.2l58.5,43.5C2378.8,1220.6,2353.4,1234.5,2353.4,1234.5z"/>
</g>
<g id="_x37_wbaG5.tif">
	<g>
		<path class="st12" d="M277.5,498.8c13.9-7.8,26.8-15.2,39.8-22.5c3,7.8,0.8,14.3-6,18.2c-10.1,5.8-20.1,11.6-30.2,17.2
			c-3,1.7-4.3,3.7-4.2,7.2c0.2,10.6,0.1,21.2,0.1,33.1c16-9.3,31-18.1,47-27.4c0,4.7,0.2,8.7-0.1,12.6c-0.1,1.1-1.3,2.6-2.3,3.2
			c-19.6,11.6-39.3,23.1-59,34.7c-0.4,0.2-1,0.2-1.7,0.4c-0.2-0.8-0.4-1.4-0.4-2.1c0.2-36.4,0.4-72.8,0.5-109.2c0-3.9,1.4-6,4.8-7.9
			c18.8-10.2,37.4-20.7,56.1-31.1c1.2-0.7,2.5-1.2,4.2-2c0,4.4,0.4,8.4-0.2,12.1c-0.3,1.8-2.4,3.8-4.2,4.8
			c-13.1,7.6-26.3,15-39.6,22.3c-3.1,1.7-4.3,3.6-4.3,7.1c0.1,7.5-0.4,15-0.5,22.5C277.2,493.9,277.4,495.8,277.5,498.8z"/>
		<path class="st12" d="M463.5,346.5c3.3,10.8,6.3,20.8,9.4,30.7c6,19.6,12.1,39.2,18.1,58.7c0.8,2.7,0.9,5-2.5,6.5
			c-3.7,1.6-7.1,4-11.4,6.5c-2.1-7.2-4.1-14.1-6.4-21.6c-1.6,0.8-3.2,1.4-4.7,2.2c-8.6,5-17.2,10.1-25.9,14.9
			c-3.9,2.1-6.2,4.7-7.1,9.2c-1.2,5.9-3.6,11.6-4.7,17.5c-1.1,5.5-3.5,9.4-8.8,11.7c-2.6,1.1-4.9,2.7-8.5,4.8
			c3.8-13.5,7.2-25.7,10.8-37.9c7.2-24.8,14.5-49.6,21.8-74.4c1.8-6.3,3.5-12.5,5.5-18.7c0.4-1.4,1.5-2.9,2.8-3.7
			C455.3,350.8,458.9,349,463.5,346.5z M456.4,375.6c-0.5,0-1.1-0.1-1.6-0.1c-5,18-9.9,36-15.2,55.3c6.3-3.6,11.3-6.5,16.4-9.4
			c11.1-6.3,11.2-6.4,8.1-18.6C461.7,393.8,459,384.7,456.4,375.6z"/>
		<path class="st12" d="M663.9,262.5c0,2.4,0,4.3,0,6.1c4.5-4.9,8.8-9.7,13.3-14.4c1.6-1.6,3.6-2.9,5.6-4c6.2-3.3,8.4-2.8,13.8,2.3
			c4.5-5.6,8.8-11.4,13.6-16.7c2.2-2.4,5.3-4.2,8.3-5.6c6.8-3.4,12.5-0.4,12.6,7.3c0.2,8.3-0.5,16.7-1.2,25
			c-0.8,9.9-2,19.8-2.9,29.7c-1,11-0.3,10-12.2,15.2c0.4-6.3,0.7-12.2,1.2-18.2c1-11.7,2.3-23.3,3.1-35c0.2-2.5-0.9-5.8-2.6-7.4
			c-1-0.9-4.8,0.2-6.7,1.3c-7.3,4.4-11.6,11.4-12.6,19.5c-2,15.9-3.4,31.8-4.3,47.8c-0.3,4.9-2,7.5-6,9.3c-1.9,0.9-3.7,2-6.3,3.5
			c0.5-6.5,0.9-12.3,1.3-18c1-11.9,2.2-23.7,2.8-35.6c0.1-2.6-1.2-6.3-3.1-7.6c-1.5-1-5.4,0.3-7.6,1.6c-9.3,5.7-11.7,14.8-12.3,25
			c-0.9,14.9-2.1,29.8-3.3,44.7c-0.1,1.4-0.8,3.3-1.9,4.1c-3,2.1-6.3,3.8-10.4,6.3c0.5-8.8,0.9-16.3,1.5-23.9
			c1.3-15.4,2.8-30.8,4-46.2C652.5,267.6,652.3,267.6,663.9,262.5z"/>
		<path class="st12" d="M594.7,351c3.2,11,9.7,13,17.1,5.5c10.3-10.4,13.3-23.4,11-37.6c-0.8-4.6-6.5-7-11-4.3
			c-4,2.4-8.4,5.3-10.9,9.1c-3.3,5-7.3,6.8-13.4,7.2c1.5-10.8,2.9-21.4,4.4-32c0.9-6.8,2-13.6,2.9-20.5c0.5-3.8,2.1-6.4,5.7-8.3
			c11.8-6.3,23.4-12.9,35.1-19.3c1-0.6,2.2-1,3.9-1.7c-0.5,4.6-0.6,8.7-1.4,12.7c-0.2,1.2-2,2.3-3.3,3.1
			c-7.4,4.2-14.7,8.8-22.4,12.4c-5.8,2.7-7.8,6.8-8.4,12.6c-0.7,6.7-1.9,13.3-3.1,21.2c3.6-3.3,6-6.2,9.1-8.2
			c3.8-2.5,7.8-4.9,12.1-6.2c5.8-1.8,10.4,1.1,12.3,6.9c3.8,11.5,1.8,22.9-1.5,34.1c-4.6,15.5-13.2,28.3-27.7,36.4
			c-7.9,4.4-13.4,4.1-18.4-0.8c-4-4-5.1-9.7-3.4-13.8C584.8,355.8,590.4,354,594.7,351z"/>
		<path class="st12" d="M361.6,516.8c0.9-34,1.7-66.5,2.5-100.2c-10.6,5.9-20.1,11.2-30.8,17.1c0.3-5.3,0.4-9.6,0.9-13.9
			c0.1-1,1.3-2.1,2.2-2.6c23.7-13.2,47.3-26.3,71-39.5c0.4-0.2,1-0.2,2.3-0.4c-0.4,4.5-0.5,8.7-1.2,12.8c-0.2,1.2-1.8,2.5-3.1,3.2
			c-7.1,4.1-14.2,8.3-21.5,12c-3.9,2-5.3,4.5-5.4,8.8c-0.1,11.4-0.6,22.8-0.9,34.2c-0.5,18.2-1.1,36.4-1.2,54.5
			c0,4.2-1.2,6.6-4.9,8.3C368.6,512.4,365.9,514.3,361.6,516.8z"/>
		<path class="st12" d="M539.4,323.6c-5.8,6.6-11.5,13.2-17.3,19.7c-0.7-0.5-1.3-1-2-1.5c0.6-5.8-0.6-11.8,4.8-16.6
			c10.8-9.7,21.3-19.7,31.9-29.5c-0.2-0.4-0.5-0.9-0.7-1.3c0,1.2,0.1,2.5,0,3.7c-1.2,20.2-2.3,40.5-3.6,60.7
			c-0.9,14.7-2,29.5-3.2,44.2c-0.1,1.2-0.7,2.9-1.6,3.5c-3.5,2.3-7.2,4.3-11.4,6.8c1.8-30,3.6-59.2,5.4-88.4
			C540.9,324.5,540.2,324,539.4,323.6z"/>
	</g>
</g>
<g id="PqAcDN.tif_1_">
	<g>
		<path class="st12" d="M925.8,395.1c12.1-8,24.1-16.1,36.4-23.8c4.1-2.6,8.9-4.2,13.4-6.3c2.4-1.1,3.3-0.4,3.5,2.3
			c1.5,20.6,3.1,41.1,4.7,61.7c0.3,3.6,0.8,7.3,1.2,10.9c0.5,4.2-0.6,7.5-4.1,10.3c-10.8,8.6-22.2,16.3-35.3,21.1
			c-0.3,0.1-0.5,0.5-0.8,0.7c-0.3,0-0.5,0-0.8,0c-0.8-1.9-1.8-3.8-2.2-5.8c-4.6-22.3-9.1-44.7-13.8-67.1c-0.3-1.2-1.5-2.2-2.3-3.4
			C925.8,395.6,925.8,395.3,925.8,395.1z"/>
		<path class="st12" d="M1068.5,293.1c2.5-1,3.9-1.4,5.1-2.1c12.5-7,24.8-14.4,37.5-20.9c5.8-2.9,12.3-4.5,18.7-6
			c6-1.4,11.8,4.6,10.1,10.5c-1.5,5.3-3.6,10.4-5.9,15.5c-1.6,3.5-2.2,6.4,0.3,9.9c3.2,4.4,1.7,9.2-0.2,13.7
			c-0.6,1.5-1.6,2.9-2.6,4.2c-2.9,3.9-3.8,7.9-1.8,12.8c2.1,5.2,1.3,10.4-1.9,15.2c-2.1,3.1-3,6.7-1.8,10.5c2.1,7,0.1,12.7-5.4,17.4
			c-9.5,8.3-19,16.9-30.3,22.7c-14.2,7.2-28.6,13.8-43.1,20.3c-4.8,2.1-10.3,2.6-15.3,4.3c-9.4,3.2-18.8,6.6-28.2,10
			c-2.2,0.8-4.3,2.1-7.2,3.5c-0.6-7.1-1-13.6-1.6-20.1c-1.4-16.2-3.3-32.3-4.1-48.5c-0.3-5.9,1.4-12,3.2-17.7
			c4.7-14.8,14.2-27,22.7-39.7c8.7-13,18-25.8,25.8-39.3c7-12.2,11.7-25.5,11.9-40c0-2.1,0.3-4.3,0.7-6.4c0.2-1,0.7-2.4,1.5-2.8
			c4.8-2.4,9.8-4.9,15.4-3.5c6.3,1.6,10.3,7.7,11,15.7c1,11.6-1.9,22.3-6.5,32.7c-2.6,5.9-4.9,11.9-6.9,18
			C1068.9,285.8,1069,289,1068.5,293.1z"/>
	</g>
</g>
</svg>
