<svg id="API" xmlns="http://www.w3.org/2000/svg" viewBox="0 0 512 512"><defs><style>.cls-1{fill:#474e5d;}.cls-2{fill:#2e3544;}.cls-3{fill:#21b2c8;}.cls-4{fill:#ffcb10;}.cls-5{fill:#ef3f2e;}.cls-6{fill:#faa21b;}.cls-7{fill:#0099af;}.cls-8{fill:#e8ebef;}.cls-9{fill:#65c0f7;}</style></defs><title>img22</title><rect class="cls-1" width="512" height="384" rx="16"/><rect class="cls-2" x="16" y="48" width="480" height="320"/><circle class="cls-3" cx="88" cy="24" r="8"/><circle class="cls-4" cx="56" cy="24" r="8"/><circle class="cls-5" cx="24" cy="24" r="8"/><rect class="cls-5" x="108" y="160" width="64" height="8"/><rect class="cls-5" x="184" y="160" width="64" height="8"/><rect class="cls-6" x="32" y="160" width="64" height="8"/><rect class="cls-4" x="56" y="180" width="48" height="8"/><rect class="cls-6" x="32" y="200" width="32" height="8"/><rect class="cls-7" x="116" y="180" width="64" height="8"/><rect class="cls-8" x="192" y="180" width="32" height="8"/><rect class="cls-3" x="236" y="180" width="32" height="8"/><rect class="cls-8" x="148" y="140" width="80" height="8"/><rect class="cls-4" x="56" y="140" width="80" height="8"/><rect class="cls-4" x="56" y="120" width="48" height="8"/><rect class="cls-7" x="116" y="120" width="64" height="8"/><rect class="cls-3" x="192" y="120" width="80" height="8"/><rect class="cls-3" x="284" y="120" width="32" height="8"/><rect class="cls-8" x="56" y="100" width="64" height="8"/><rect class="cls-8" x="132" y="100" width="48" height="8"/><rect class="cls-8" x="56" y="80" width="64" height="8"/><rect class="cls-5" x="132" y="80" width="64" height="8"/><rect class="cls-8" x="208" y="80" width="32" height="8"/><rect class="cls-4" x="252" y="80" width="64" height="8"/><rect class="cls-7" x="328" y="80" width="64" height="8"/><rect class="cls-6" x="32" y="60" width="32" height="8"/><rect class="cls-4" x="76" y="60" width="64" height="8"/><path class="cls-9" d="M302.08,388.48c5-1.21,10.69-2.73,15.6-4.15a113.73,113.73,0,0,0-5.38-21.88c-5,1-10.75,2.32-15.74,3.56a99.1,99.1,0,0,0-10.77-20.48c3.82-3.38,8.19-7.41,11.86-10.94a121.28,121.28,0,0,0-14.92-16.85c-4,3.23-8.48,7.08-12.29,10.47a97.9,97.9,0,0,0-19-13.16c1.84-4.84,3.84-10.43,5.43-15.19a122,122,0,0,0-21.06-8c-2,4.8-4.22,10.22-6,15a95.38,95.38,0,0,0-23-2.79c-.61-5.05-1.44-10.92-2.25-15.95a111.37,111.37,0,0,0-22.35,2.69c.41,5.09,1,11,1.62,16A100.7,100.7,0,0,0,162.19,315c-2.91-4.23-6.42-9.1-9.43-13.1a118.28,118.28,0,0,0-18.51,12.81c2.77,4.38,6.06,9.34,8.91,13.45a95.81,95.81,0,0,0-15.35,17.32c-4.57-2.42-9.78-5-14.43-7.24a113.44,113.44,0,0,0-10.47,19.94c4.4,2.55,9.61,5.42,14.13,7.78a97.16,97.16,0,0,0-5.52,22.47c-5.1,0-11.06.12-16.15.33a118.89,118.89,0,0,0,0,22.48c5.09.21,11,.34,16.15.33A95.78,95.78,0,0,0,117,434.1c-4.51,2.35-9.72,5.22-14.13,7.77a115.52,115.52,0,0,0,10.47,19.94c4.65-2.2,9.86-4.82,14.43-7.23a99.89,99.89,0,0,0,15.35,17.31c-3,4.26-6.23,9.22-8.91,13.45a116,116,0,0,0,18.51,12.81c3.09-4.09,6.59-9,9.43-13.1a98,98,0,0,0,21.64,8.21c-.62,5.07-1.21,11-1.62,16A111,111,0,0,0,204.55,512c.81-5,1.64-10.89,2.25-16a97.42,97.42,0,0,0,23-2.79c1.79,4.77,4,10.18,6,15a115,115,0,0,0,21.06-8c-1.64-4.92-3.65-10.51-5.43-15.19a94.2,94.2,0,0,0,19-13.16c3.82,3.39,8.34,7.25,12.29,10.47a116.44,116.44,0,0,0,14.92-16.84c-3.67-3.53-8-7.56-11.86-10.94a94.9,94.9,0,0,0,10.77-20.48c5,1.24,10.72,2.53,15.74,3.55a120.15,120.15,0,0,0,5.38-21.88c-4.91-1.41-10.64-2.94-15.6-4.15A96.58,96.58,0,0,0,302.08,388.48Zm-15.32,11.07a80,80,0,1,1-80-80,80,80,0,0,1,80,80Z"/><path class="cls-9" d="M278.76,399.55a72,72,0,1,0-72,72A72,72,0,0,0,278.76,399.55Zm-40,0a32,32,0,1,1-32-32A32,32,0,0,1,238.76,399.55Z"/><path class="cls-4" d="M402,262.56c5.07-1.69,10.64-3.8,15.13-5.66-2.12-10.47-8.54-21.95-10-24.1-4.72,2-10.13,4.42-14.71,6.7a64.53,64.53,0,0,0-17.66-17.66c2.28-4.58,4.74-10,6.7-14.71a81.13,81.13,0,0,0-24.1-10c-1.88,4.54-4,10.12-5.67,15.14a64.91,64.91,0,0,0-25,0c-1.62-4.84-3.72-10.43-5.67-15.14a78,78,0,0,0-12.47,4,80.92,80.92,0,0,0-11.63,6c2,4.78,4.46,10.19,6.7,14.71A65.22,65.22,0,0,0,286,239.5c-4.57-2.28-10-4.74-14.71-6.7a81.13,81.13,0,0,0-10,24.1c4.71,2,10.3,4.05,15.13,5.66a65.7,65.7,0,0,0,0,25c-4.83,1.62-10.42,3.71-15.13,5.66,2.12,10.48,8.55,22,10,24.11,4.72-2,10.14-4.43,14.71-6.7a65.65,65.65,0,0,0,17.66,17.66c-2.25,4.52-4.71,9.93-6.7,14.71a81.13,81.13,0,0,0,24.1,10c1.95-4.71,4-10.3,5.67-15.13a64.91,64.91,0,0,0,25,0c1.69,5,3.79,10.6,5.67,15.13,10.47-2.12,22-8.57,24.1-10-2-4.72-4.42-10.14-6.7-14.71a65.37,65.37,0,0,0,17.66-17.66c4.58,2.27,10,4.74,14.71,6.7a80.82,80.82,0,0,0,10-24.11c-4.49-1.86-10.06-4-15.13-5.66A65.5,65.5,0,0,0,402,262.56Zm-14.77,12.49a48,48,0,1,1-48-48,48,48,0,0,1,48,48v0Z"/><path class="cls-4" d="M379.26,275.05a40,40,0,1,0-40,40A40,40,0,0,0,379.26,275.05Zm-8,0a32,32,0,1,1-32-32A32,32,0,0,1,371.26,275.05Z"/><polygon class="cls-9" points="416 463 344 463 344 479 416 479 416 498 448 471 416 444 416 463"/><polygon class="cls-4" points="376 415 448 415 448 431 376 431 376 450 344 423 376 396 376 415"/></svg>