<?xml version="1.0" encoding="utf-8"?>
<!-- Generator: Adobe Illustrator 24.0.1, SVG Export Plug-In . SVG Version: 6.00 Build 0)  -->
<svg version="1.1" id="Layer_1" xmlns="http://www.w3.org/2000/svg" xmlns:xlink="http://www.w3.org/1999/xlink" x="0px" y="0px"
	 viewBox="0 0 3000 934.6" style="enable-background:new 0 0 3000 934.6;" xml:space="preserve">
<style type="text/css">
	.st0{fill:#381BC9;}
</style>
<g transform="scale(9.345794392523365) translate(10, 10)">
	<g id="SvgjsG2136" transform="matrix(1.11111544387058,0,0,1.11111544387058,-6.42930547909648,-18.556823888473417)">
		<g>
			<path class="st0" d="M34.7,46.4c-2.5,2.4-6.4,2.2-8.8-0.4c-2.3-2.4-2.3-6.3,0.2-8.7c2.4-2.3,6.4-2.2,8.7,0.2
				C37.2,40.2,37.1,44.1,34.7,46.4 M56.7,69.5c-2.5,2.4-6.4,2.2-8.7-0.2c-2.4-2.5-2.3-6.2,0.2-8.7c2.4-2.3,6.3-2.3,8.7,0.2
				C59.2,63.3,59.1,67.3,56.7,69.5"/>
			<path class="st0" d="M47.1,58.5c-3,2.9-7.6,2.6-10.3-0.3c-2.9-3-2.9-7.6,0.1-10.5c2.9-2.7,7.6-2.6,10.4,0.4
				C50.1,51.1,50,55.8,47.1,58.5"/>
			<path class="st0" d="M24.4,56.9c-1.9,1.8-5,1.6-6.8-0.3c-1.8-1.9-1.7-4.9,0.2-6.7c1.9-1.8,5-1.9,6.8,0.1
				C26.4,51.9,26.3,55.1,24.4,56.9"/>
			<path class="st0" d="M43.6,77.1c-1.9,1.8-4.9,1.7-6.7-0.2c-1.8-1.9-1.9-5,0.1-6.8c1.9-1.8,5.1-1.7,6.9,0.2
				C45.7,72.2,45.5,75.3,43.6,77.1"/>
			<g>
				<path class="st0" d="M19.8,17.8C19,16.9,19,15.4,20,14.5c0.9-0.8,2.4-0.8,3.2,0.1c1,1,0.9,2.5,0,3.3
					C22.2,18.9,20.8,18.8,19.8,17.8"/>
				<path class="st0" d="M3.4,33.2c-0.8-0.9-0.8-2.4,0.1-3.2c1-1,2.5-0.9,3.3,0c1,1,0.9,2.5-0.1,3.5C5.8,34.3,4.3,34.2,3.4,33.2"/>
				<path class="st0" d="M-2.2,25.4c-0.7-0.7-0.7-1.9,0.1-2.6c0.8-0.8,2-0.8,2.7,0c0.8,0.8,0.8,2-0.1,2.8
					C-0.3,26.3-1.5,26.3-2.2,25.4"/>
				<path class="st0" d="M12.6,10.9C11.9,10.2,12,9,12.7,8.3c0.8-0.8,2-0.8,2.7,0c0.8,0.8,0.8,2-0.1,2.8
					C14.6,11.8,13.4,11.7,12.6,10.9"/>
				<path class="st0" d="M1.4,13.9c-0.8-0.9-0.8-2.4,0.1-3.2c0.9-0.8,2.4-0.8,3.2,0.1c1,1,0.9,2.5,0,3.3S2.4,14.9,1.4,13.9"/>
				<path class="st0" d="M27.4,26.6c-1.4-1.5-1.3-3.9,0.1-5.2c1.5-1.4,3.7-1.4,5.2,0.1c1.3,1.4,1.3,3.6-0.2,5.1
					C31.1,28,28.8,28.1,27.4,26.6"/>
				<path class="st0" d="M10,43.2c-1.4-1.5-1.4-3.8,0.1-5.2c1.4-1.3,3.8-1.4,5.2,0.1c1.3,1.4,1.1,3.8-0.3,5.1
					C13.6,44.6,11.3,44.6,10,43.2"/>
				<path class="st0" d="M8.1,23.5c-1.3-1.4-1.1-3.8,0.3-5.1c1.5-1.4,3.8-1.4,5.1,0c1.5,1.5,1.4,3.8-0.1,5.2
					C11.9,25,9.6,25,8.1,23.5"/>
				<path class="st0" d="M16.9,34.3c-1.8-1.9-1.6-5,0.3-6.8c1.9-1.8,4.9-1.7,6.7,0.2c1.8,1.9,1.9,5-0.1,6.8
					C21.9,36.3,18.7,36.2,16.9,34.3"/>
			</g>
			<g>
				<path class="st0" d="M76.4,75.3c0.9,0.9,2.4,0.9,3.3-0.1c0.9-0.9,0.9-2.4,0-3.2c-1-1-2.5-1-3.3-0.1
					C75.4,72.8,75.4,74.3,76.4,75.3"/>
				<path class="st0" d="M60.6,91.4c0.9,0.9,2.4,0.9,3.2,0c1-1,1-2.5,0.1-3.4c-1-1-2.5-1-3.5,0C59.6,88.9,59.6,90.4,60.6,91.4"/>
				<path class="st0" d="M68.3,97.2c0.7,0.7,1.9,0.7,2.6,0c0.8-0.8,0.8-2,0.1-2.7c-0.8-0.8-2-0.8-2.8,0
					C67.5,95.2,67.5,96.4,68.3,97.2"/>
				<path class="st0" d="M83.1,82.6c0.7,0.7,1.9,0.7,2.6,0c0.8-0.8,0.8-2,0.1-2.7c-0.8-0.8-2-0.8-2.8,0
					C82.3,80.6,82.3,81.8,83.1,82.6"/>
				<path class="st0" d="M79.9,93.7c0.9,0.9,2.4,0.8,3.2,0c0.9-0.9,0.9-2.4,0-3.2c-1-1-2.5-1-3.3-0.1C78.9,91.3,78.9,92.8,79.9,93.7
					"/>
				<path class="st0" d="M67.7,67.5c1.5,1.5,3.8,1.3,5.2,0c1.5-1.5,1.5-3.7,0-5.2c-1.4-1.4-3.6-1.3-5.1,0.1
					C66.4,63.8,66.3,66.1,67.7,67.5"/>
				<path class="st0" d="M50.8,84.6c1.5,1.5,3.7,1.5,5.2,0c1.3-1.4,1.5-3.7,0-5.2c-1.4-1.4-3.7-1.2-5.1,0.1
					C49.4,81,49.4,83.2,50.8,84.6"/>
				<path class="st0" d="M70.4,86.8c1.4,1.4,3.7,1.2,5.1-0.1c1.5-1.5,1.5-3.7,0.1-5.1c-1.5-1.5-3.7-1.5-5.2,0
					C69,83,68.9,85.4,70.4,86.8"/>
				<path class="st0" d="M59.8,77.9c1.9,1.9,5,1.7,6.8-0.2c1.8-1.9,1.8-4.8,0-6.7c-1.9-1.9-5-2-6.8-0.1C57.9,72.8,58,76,59.8,77.9"
					/>
			</g>
			<path class="st0" d="M45.3,36.8c1.9-1.8,1.8-4.9,0-6.8c-1.8-1.9-4.8-1.9-6.7-0.1c-1.9,1.8-2,4.9-0.2,6.8
				C40.2,38.6,43.4,38.7,45.3,36.8"/>
			<path class="st0" d="M64.7,56.8c1.9-1.8,1.9-4.8,0.1-6.7c-1.8-1.9-4.9-2-6.8-0.2c-1.9,1.8-1.9,5.1-0.1,6.9
				C59.8,58.7,62.9,58.6,64.7,56.8"/>
			<path class="st0" d="M48.1,45.6c-2.4-2.5-2.2-6.4,0.4-8.8c2.4-2.3,6.3-2.3,8.7,0.2c2.3,2.4,2.2,6.4-0.2,8.7
				C54.3,48.1,50.4,48,48.1,45.6 M24.9,67.6c-2.4-2.5-2.2-6.4,0.2-8.7c2.5-2.4,6.3-2.3,8.7,0.2c2.3,2.4,2.3,6.3-0.2,8.7
				C31.2,70.1,27.2,70,24.9,67.6"/>
			<g>
				<path class="st0" d="M76.7,30.7c0.9-0.8,2.4-0.8,3.3,0.2c0.8,0.9,0.8,2.4-0.1,3.2c-1,1-2.5,0.9-3.3,0
					C75.6,33.2,75.7,31.7,76.7,30.7"/>
				<path class="st0" d="M61.3,14.3c0.9-0.8,2.4-0.8,3.2,0.1c1,1,0.9,2.5,0,3.4c-1,1-2.5,0.9-3.5-0.1C60.2,16.7,60.3,15.2,61.3,14.3
					"/>
				<path class="st0" d="M69.1,8.7C69.8,8,71,8,71.7,8.7c0.8,0.8,0.8,2,0,2.7c-0.8,0.8-2,0.8-2.8-0.1C68.2,10.6,68.2,9.4,69.1,8.7"
					/>
				<path class="st0" d="M83.6,23.5c0.7-0.7,1.9-0.7,2.6,0.1c0.8,0.8,0.8,2,0,2.7c-0.8,0.8-2,0.8-2.8-0.1
					C82.7,25.5,82.8,24.3,83.6,23.5"/>
				<path class="st0" d="M80.6,12.3c0.9-0.8,2.4-0.8,3.2,0.1c0.8,0.9,0.8,2.4-0.1,3.2c-1,1-2.5,0.9-3.3,0
					C79.5,14.8,79.6,13.3,80.6,12.3"/>
				<path class="st0" d="M67.8,38.3c1.5-1.4,3.9-1.3,5.2,0.1c1.4,1.5,1.4,3.7-0.1,5.2c-1.4,1.3-3.6,1.3-5.1-0.3
					C66.5,42,66.4,39.7,67.8,38.3"/>
				<path class="st0" d="M51.3,20.9c1.5-1.4,3.7-1.4,5.2,0.1c1.3,1.4,1.4,3.7-0.1,5.2c-1.4,1.3-3.7,1.1-5.1-0.3
					C49.9,24.5,49.9,22.2,51.3,20.9"/>
				<path class="st0" d="M71,19c1.4-1.3,3.8-1.1,5.1,0.3c1.4,1.5,1.4,3.8,0,5.1c-1.5,1.4-3.8,1.4-5.2-0.1C69.5,22.8,69.5,20.5,71,19
					"/>
				<path class="st0" d="M60.2,27.8c1.9-1.8,5-1.6,6.8,0.3c1.8,1.9,1.7,4.9-0.2,6.7c-1.9,1.8-5,1.9-6.8-0.1
					C58.2,32.8,58.3,29.6,60.2,27.8"/>
			</g>
			<g>
				<path class="st0" d="M19.2,87.3c-0.9,0.9-0.9,2.4,0.1,3.3c0.9,0.9,2.4,0.9,3.2,0c1-1,1-2.5,0.1-3.3
					C21.7,86.3,20.2,86.3,19.2,87.3"/>
				<path class="st0" d="M3.1,71.5c-0.9,0.9-0.9,2.4,0,3.2c1,1,2.5,1,3.3,0.1c1-1,1-2.5,0-3.5C5.6,70.5,4.1,70.5,3.1,71.5"/>
				<path class="st0" d="M-2.7,79.2c-0.7,0.7-0.7,1.9,0,2.6c0.8,0.8,2,0.8,2.7,0.1c0.8-0.8,0.8-2,0-2.8C-0.7,78.4-1.9,78.4-2.7,79.2
					"/>
				<path class="st0" d="M11.9,94c-0.7,0.7-0.7,1.9,0,2.6c0.8,0.8,2,0.8,2.7,0.1c0.8-0.8,0.8-2,0-2.8C13.9,93.2,12.7,93.2,11.9,94"
					/>
				<path class="st0" d="M0.7,90.8c-0.9,0.9-0.9,2.4,0,3.2c0.9,0.9,2.4,0.8,3.2,0c1-1,1-2.5,0.1-3.3C3.2,89.8,1.7,89.8,0.7,90.8"/>
				<path class="st0" d="M27,78.6c-1.5,1.5-1.3,3.8,0,5.2c1.5,1.5,3.7,1.5,5.2,0c1.4-1.4,1.3-3.6-0.1-5.1
					C30.7,77.3,28.4,77.2,27,78.6"/>
				<path class="st0" d="M9.9,61.7c-1.5,1.5-1.5,3.7,0,5.2c1.4,1.4,3.7,1.5,5.2,0c1.4-1.4,1.2-3.7-0.1-5.1
					C13.5,60.3,11.3,60.3,9.9,61.7"/>
				<path class="st0" d="M7.6,81.3c-1.4,1.4-1.2,3.7,0.1,5.1c1.5,1.5,3.7,1.5,5.1,0.1c1.5-1.5,1.5-3.7,0-5.2
					C11.5,79.9,9.1,79.8,7.6,81.3"/>
				<path class="st0" d="M16.6,70.7c-1.8,1.9-1.7,5,0.2,6.8c1.9,1.9,4.8,1.8,6.7,0c1.9-1.9,2-5,0.1-6.8
					C21.7,68.8,18.5,68.9,16.6,70.7"/>
			</g>
		</g>
	</g>
	<g id="SvgjsG2137" transform="matrix(2.2676298741966447,0,0,2.2676298741966447,116.46774610856637,-28.827382315836388)">
		<path d="M-2.3,38.9l1.2-1.8c0.2-0.4,0.4-0.5,0.8-0.3c0,0.1,2.1,1.3,4.4,1.3c2,0,2.6-0.8,2.6-1.6c0-1.2-1.3-1.6-3.5-2.1
			c-3.2-0.8-5.4-2.5-5.4-5.1c0-2.5,2.2-4.9,6.2-4.9c2.5,0,4.2,0.8,5.5,1.6c0.3,0.2,0.5,0.5,0.3,0.8l-1.3,1.9C8.4,29,8.1,29.1,7.8,29
			c-0.9-0.4-2.3-1.1-3.8-1.1c-1.9,0-2.4,0.9-2.4,1.5c0,1,1.4,1.5,3.2,1.9c3,0.8,6,2.3,6,5.2c0,2.8-2.7,5-6.8,5c-2.8,0-5.3-1.4-6.1-2
			C-2.4,39.4-2.5,39.1-2.3,38.9L-2.3,38.9z M38.5,24.5c0.4,0,0.6,0.2,0.4,0.6L32.5,41c-0.1,0.2-0.3,0.4-0.5,0.4h-0.4
			c-0.3,0-0.5-0.2-0.6-0.4L26,30.7L21.1,41c-0.1,0.2-0.3,0.4-0.6,0.4h-0.4c-0.2,0-0.4-0.2-0.5-0.4l-6.3-15.8c-0.1-0.4,0-0.6,0.4-0.6
			h2.8c0.3,0,0.5,0.2,0.6,0.4l3.8,10.3l4.3-10.2c0.1-0.2,0.3-0.4,0.6-0.4h0.6c0.3,0,0.5,0.1,0.6,0.4l4.3,10.2L35,24.9
			c0.1-0.2,0.3-0.4,0.6-0.4H38.5L38.5,24.5z M58,24.5c0.4,0,0.6,0.3,0.4,0.6L51.7,39c-3.4,7-6.3,11-7.9,12.6c-0.3,0.3-0.7,0.1-1-0.2
			l-1.5-1.5c-0.4-0.3-0.3-0.7,0-1.1c2.1-2.3,4.7-6.2,6.5-10.1l-7.1-13.6c-0.2-0.3,0-0.6,0.4-0.6h3c0.3,0,0.5,0.1,0.6,0.4l5,10.2
			L54.5,25c0.1-0.3,0.3-0.4,0.6-0.4L58,24.5L58,24.5z M74.7,15.2c0.2,0.1,0.4,0.4,0.2,0.7L74,18c-0.1,0.3-0.4,0.4-0.7,0.3
			c-0.5-0.2-1.5-0.7-2.7-0.7s-3.4,0.7-3.4,3.3v3.7h4c0.3,0,0.4,0.2,0.4,0.4v2.6c0,0.2-0.2,0.4-0.4,0.4h-4v12.8
			c0,0.3-0.2,0.6-0.5,0.6h-1.9c-0.8,0-1.3-0.6-1.3-1.4V28H61c-0.3,0-0.4-0.1-0.4-0.4v-2.1c0-0.6,0.4-1,1-1h1.8v-3.7
			c0-4.6,3.1-6.8,7-6.8C72.1,14,73.6,14.5,74.7,15.2L74.7,15.2z M85.8,40.2c0.1,0.3-0.1,0.4-0.3,0.6c-0.6,0.4-1.8,0.6-3.1,0.6
			c-3.6,0-4.9-1.9-4.9-6.2v-7.2h-2c-0.3,0-0.5-0.2-0.5-0.5V27c0-0.3,0.1-0.5,0.3-0.7c2-1.6,3.5-3.3,4.9-6.7c0.1-0.2,0.2-0.4,0.4-0.4
			h0.4c0.3,0,0.4,0.1,0.4,0.4v4.8h3.6c0.3,0,0.6,0.2,0.6,0.6v2.4c0,0.3-0.3,0.5-0.6,0.5h-2.9c-0.3,0-0.5,0-0.6-0.1v6.9
			c0,2,0.2,3.1,1.9,3.1c0.7,0,1.2-0.1,1.6-0.2s0.7,0.1,0.7,0.4L85.8,40.2z"/>
	</g>
</g>
</svg>
