<svg xmlns="http://www.w3.org/2000/svg" viewBox="0 0 393.02 424.67"><defs><style>.cls-1{fill:#0438cd;}</style></defs><title>Asset 4</title><g id="Layer_2" data-name="Layer 2"><g id="Layer_1-2" data-name="Layer 1"><path class="cls-1" d="M249.71,366.66h6.68c1.16,0,2.32,0,3.48,0,3.28.15,5.37,2.1,5.35,5s-2.05,4.67-5.36,4.76c-2.92.08-5.84,0-8.76,0h-1.38v13.71c2.85.18,5.67.34,8.48.55a40.11,40.11,0,0,1,4.39.5,2.67,2.67,0,0,1,2.26,2.72,18.22,18.22,0,0,1,0,3.22c-.25,2.21-1.52,3.18-4.25,3.27-1.92.07-3.84,0-5.76.07-.95,0-1.91.18-2.86.22-1.76.06-2.68.9-3.26,2.63-1.92,5.77-4.83,11-9.51,15a23.69,23.69,0,0,1-14.64,5.84c-5.39.27-10.79.32-16.19.38-6.2.08-12.4.15-18.59.09-6.88-.06-13.76-.15-20.62-.43-9.31-.39-16.35-4.72-21-12.76a43.7,43.7,0,0,1-2.45-5.06c-1.85-4.41-4.13-5.9-8.9-6a31.13,31.13,0,0,1-6.16-.73c-2-.47-2.74-1.73-2.79-3.93s.59-3.41,2.62-4.05a25.88,25.88,0,0,1,5-1c2.23-.23,4.47-.24,6.71-.36.35,0,.7-.1,1.15-.17v-7.71c0-1.4-.06-2.81,0-4.2.05-.93-.27-1.31-1.18-1.36-2.55-.14-5.09-.31-7.64-.48-.92-.06-1.84-.09-2.74-.22-2.55-.37-3.58-1.5-3.83-4.11-.27-2.89.16-3.79,3-4.33,3.72-.72,7.49-1.11,11.26-1.53,1-.11,1.39-.31,1.37-1.39-.07-3.44-.06-6.88,0-10.32,0-1-.28-1.35-1.25-1.42-2.55-.19-5.08-.45-7.62-.68-1.12-.1-2.24-.12-3.34-.28a3.41,3.41,0,0,1-3.17-3c-.73-4.13-.37-4.76,3.31-5.53s7.4-1.15,11.11-1.7l1.92-.24c-.51-1.95-1-3.78-1.46-5.61-1.44-5.72-2.26-11.64-4.77-17q-5.13-11-10.7-21.69c-7.09-13.69-15.65-26.48-24-39.38-5.45-8.37-10.74-16.85-14.85-26a103.28,103.28,0,0,1-8.07-28.58A116.25,116.25,0,0,1,90.81,138c13.3-27.29,35.2-44.16,64-52.57a119.83,119.83,0,0,1,22.9-4.32c6.8-.6,13.63-1.24,20.45-1.27,25.46-.12,49.31,5.86,70.81,19.87,20.22,13.16,33.09,31.72,39.54,54.84a124.68,124.68,0,0,1,4.69,36,115,115,0,0,1-11,46.62c-4,8.59-9.05,16.52-14.21,24.42-8.43,12.92-16.81,25.87-25,38.94-6.31,10.06-10.07,21.15-12.27,32.78-.53,2.82-.92,5.66-1.43,8.77,3,.21,5.82.4,8.63.61,1.16.08,2.32.11,3.46.28,2.7.38,3.68,1.5,3.69,4.24a10.48,10.48,0,0,1-.31,2.49c-.45,1.88-1.7,2.65-4.36,2.75-2.43.1-4.87.14-7.31.25-3.45.16-3.45.17-3.45,3.61,0,2.92,0,5.84,0,8.76C249.63,365.56,249.68,366.07,249.71,366.66ZM199,342.7v0q19.44,0,38.87,0c1.11,0,1.52-.3,1.63-1.45.25-2.57.59-5.15,1-7.71A121.22,121.22,0,0,1,252,300.24c5.58-11.14,12.45-21.49,19.4-31.81,5.93-8.81,12.09-17.52,17.39-26.71,11.54-20,16.56-41.54,14.15-64.66a114.79,114.79,0,0,0-5.09-24.2c-6.32-19.07-17.57-34.44-34.63-45.24-18.54-11.73-39-17.18-60.8-18.15a130.62,130.62,0,0,0-24.51,1.34,151.15,151.15,0,0,0-28.47,6.81c-13.27,4.62-25.05,11.66-34.51,22.2a104.75,104.75,0,0,0-16.23,24.8,94.36,94.36,0,0,0-9.18,51.21,110.66,110.66,0,0,0,7.31,29.41c4.58,11.72,11,22.45,17.88,32.89,6.24,9.43,12.7,18.73,18.69,28.32,9.49,15.19,16.65,31.35,19.34,49.26.78,5.18,3.15,7,8.42,7Zm-45.23,47.44h85.4V376.93h-85.4Zm0-37.17a1.31,1.31,0,0,0-.13.38c0,4,0,8.08,0,12.11,0,.67.38.77.93.77,1.28,0,2.56,0,3.84,0q39.63,0,79.28,0c1.17,0,1.61-.23,1.58-1.5-.09-3.48,0-7,0-10.44,0-.42,0-.85-.07-1.33Zm85.36,47.86H153.72c1.13,2.12,2.05,4.1,3.2,5.95a15.11,15.11,0,0,0,13.6,7.71c6.08,0,12.15.17,18.23.16,11.56,0,23.11-.11,34.67-.2a13.73,13.73,0,0,0,2.85-.36C233.37,412.49,236.38,406.89,239.17,400.83Z"/><path class="cls-1" d="M364.25,183.93c5.68,0,11.36,0,17,0,2.28,0,4.56,0,6.83.15,3.62.2,5.65,2.95,4.67,6.21a4.57,4.57,0,0,1-4,3.25,22.31,22.31,0,0,1-3.47.23q-21.7,0-43.42,0a12,12,0,0,1-2.73-.29,4.67,4.67,0,0,1-3.76-5c.24-2.64,2-4.26,4.93-4.42,2.35-.12,4.71-.13,7.07-.14C353,183.92,358.62,183.93,364.25,183.93Z"/><path class="cls-1" d="M28.82,183.93c4.39,0,8.79,0,13.18,0q4.86,0,9.71.1a10.15,10.15,0,0,1,2.13.24c2.6.61,3.88,2.25,3.78,4.77a4.59,4.59,0,0,1-4.17,4.5,26.79,26.79,0,0,1-3.58.23q-20.86,0-41.73,0c-1.12,0-2.24-.05-3.35-.16C1.72,193.32,0,191.47,0,188.7s1.93-4.54,5-4.61c5.39-.13,10.78-.11,16.18-.14,2.55,0,5.11,0,7.67,0Z"/><path class="cls-1" d="M201.39,28.5q0,11.46,0,22.91a10.58,10.58,0,0,1-.22,2.39,4.73,4.73,0,0,1-9.38-.68c-.17-4.87-.19-9.75-.21-14.63q0-10.91,0-21.83c0-4.08,0-8.16.23-12.23A4.47,4.47,0,0,1,196.62,0c2.7.05,4.46,1.79,4.65,4.63.07,1.08.11,2.16.11,3.24Q201.4,18.18,201.39,28.5Z"/><path class="cls-1" d="M300.22,89.7a4.9,4.9,0,0,1-4.31-2.79,3.91,3.91,0,0,1,.4-4.61c1.48-1.82,3.14-3.51,4.8-5.18q13.5-13.58,27-27.1a10.47,10.47,0,0,1,1.75-1.44,3.56,3.56,0,0,1,5,.62,28.72,28.72,0,0,1,2.35,3,1,1,0,0,1,.06.94,26.64,26.64,0,0,1-3,4.41c-7.48,7.67-15.05,15.26-22.61,22.86q-3.51,3.52-7.07,7C303.35,88.63,302.07,89.71,300.22,89.7Z"/><path class="cls-1" d="M340,321.73a5.66,5.66,0,0,1-3.59-1.86q-9.19-9.12-18.34-18.28-6.32-6.31-12.58-12.68a12.3,12.3,0,0,1-1-1.06c-1.79-2.25-1.71-3.89.42-5.83,1-.88,2.09-1.58,3.14-2.37,1.41.81,3.08,1.36,4.2,2.46,7.6,7.43,15.09,15,22.61,22.48,2.63,2.62,5.26,5.25,7.85,7.92a10.61,10.61,0,0,1,1.86,2.47C346.1,317.94,343.66,321.73,340,321.73Z"/><path class="cls-1" d="M53.28,321.73c-3.86,0-6.29-3.67-5-6.58a7.91,7.91,0,0,1,1.56-2.24Q65.41,297.23,81,281.63c1.31-1.31,2.86-2.31,4.83-1.5s2.88,2.7,4,4.34c.11.15,0,.56-.14.76a28,28,0,0,1-3,4.4q-15,15.15-30.05,30.17A5.71,5.71,0,0,1,53.28,321.73Z"/><path class="cls-1" d="M92.72,89.17a4.88,4.88,0,0,1-3.65-1.44c-10.63-10.66-21.32-21.28-32-31.95-1.94-1.94-1.83-4.33.13-6.23,2.32-2.27,4.53-2.39,6.6-.32Q80,65.39,96.08,81.59a12,12,0,0,1,1.7,3.22.76.76,0,0,1,0,.47A5.8,5.8,0,0,1,92.72,89.17Z"/><path class="cls-1" d="M191.63,246.09v-1.57c0-7.72,0-15.44,0-23.16,0-2.52-.21-5-.08-7.55.21-3.87-1.81-6.19-5.06-7.6s-6.39-2.52-9.58-3.78a31.47,31.47,0,0,1-9.48-5.29c-5.58-4.87-8-11.12-7.85-18.42.2-8,3.06-14.82,9.37-19.93,3-2.47,6.72-3.81,10.34-5.21s7.23-2.76,10.85-4.11a1.67,1.67,0,0,0,1.19-1.66c.39-3.2.91-6.39,1.39-9.59a5.05,5.05,0,0,1,.26-.92,3.78,3.78,0,0,1,5.47-2.21,3.23,3.23,0,0,1,1.41,1.81,58.64,58.64,0,0,1,1.37,6.42c.3,1.93.39,3.89.51,5.85.05.69.38.94,1,1.11,4,1.09,8,2.07,11.85,3.37,8.37,2.82,14.55,8.07,17.49,16.62a21.14,21.14,0,0,1,1.14,9.79,4.79,4.79,0,0,1-9.53.11c-.29-1.69-.46-3.41-.84-5.08-1.67-7.24-6.33-11.45-13.5-12.91-2.34-.47-4.75-.64-7.13-.88-.24,0-.66.39-.78.69a3.31,3.31,0,0,0,0,1.18q0,11.7,0,23.4c0,2.76,0,5.52.13,8.28s1.85,4.62,4.19,5.83a45.24,45.24,0,0,0,5.09,2.08c4,1.45,8,2.8,11.62,5,8,4.91,11.3,12.15,10.87,21.35A24.57,24.57,0,0,1,227.14,245a30.92,30.92,0,0,1-11.94,7.81c-4,1.59-8.12,3.1-12.2,4.61a1.82,1.82,0,0,0-1.32,1.82c-.37,3.33-.78,6.66-1.42,9.95-.58,3-2.85,4.09-5.66,2.92a2.79,2.79,0,0,1-1.42-1.63,51.86,51.86,0,0,1-1.38-6.29c-.3-2-.39-4.05-.52-6.08a1.16,1.16,0,0,0-1-1.21c-3.55-.94-7.11-1.81-10.62-2.9-6-1.84-11.26-4.8-15-10a25,25,0,0,1-4.76-16.7A4.66,4.66,0,0,1,166.2,223c2.18.84,2.8,2.8,3.14,4.88.29,1.73.42,3.5.86,5.19a15.47,15.47,0,0,0,9.5,10.7C183.43,245.33,187.38,245.79,191.63,246.09Zm-.32-85c-1.23.13-2.3.23-3.36.37a27,27,0,0,0-10.45,3.21c-5.59,3.29-8.08,8.3-8,14.68.05,6,3,10.1,8.13,12.85a42,42,0,0,0,11.09,3.67l2.62.56ZM201.82,246c1.22-.17,2.28-.29,3.34-.45,4.91-.71,9.46-2.23,13.26-5.61,6.3-5.61,8.45-18.88-2.79-24.52a76,76,0,0,0-8.55-3.38c-1.67-.6-3.43-1-5.26-1.48Z"/></g></g></svg>