<svg xmlns="http://www.w3.org/2000/svg" viewBox="0 0 2347.71 272.9"><title>ef2Cwm.tif</title><g id="Layer_2" data-name="Layer 2"><g id="Layer_2-2" data-name="Layer 2"><g id="ef2Cwm.tif"><path d="M60,108.09V56.86c0-1.08,0-2.16,0-3.23.21-3.23.94-4.11,4.21-4.21,5.08-.14,10.17-.05,15.25-.05,10.63,0,21.25.1,31.88-.06a9.92,9.92,0,0,1,7.77,3.19c4.19,4.27,8.4,8.52,12.75,12.62a6.68,6.68,0,0,1,2.41,5.19q-.06,15.69,0,31.38a6.29,6.29,0,0,1-2,4.93c-4.43,4.25-8.76,8.59-13.11,12.91a9.6,9.6,0,0,1-7.41,3c-9.85-.18-19.71-.07-29.57-.07a34.91,34.91,0,0,0-3.69.06c-2.8.31-3.43.94-3.59,3.77-.13,2.3-.06,4.61-.06,6.92,0,9.38,0,18.77,0,28.15,0,5.36-.34,5.63-5.83,5.65-1.85,0-3.7,0-5.54,0-2.29,0-3.35-1.28-3.44-3.46,0-1.23,0-2.46,0-3.69Q60,133.94,60,108.09Zm14.86-22h0c0,6.15,0,12.29,0,18.43,0,3.23.84,4.07,4,4.42a28.93,28.93,0,0,0,3.23.06h19.83c10.87,0,7.62.16,15.1-6.55a7.81,7.81,0,0,0,2.68-6.53,77.13,77.13,0,0,1,0-12c.86-7.48-1.06-13.46-7.39-18-1.81-1.3-3.33-2.51-5.65-2.5-9.07,0-18.14,0-27.21,0-3.91,0-4.53.72-4.58,4.65C74.84,74.09,74.9,80.08,74.9,86.07Z" transform="translate(-60.02 -49.31)"/><path d="M209,262.71c0-11.54.1-23.08,0-34.62a10.29,10.29,0,0,1,3.71-8.43c4.31-3.9,8.36-8.11,12.42-12.28a8.25,8.25,0,0,1,6.45-2.83c11.08.13,22.17.08,33.26,0a6.56,6.56,0,0,1,5.29,2.15q5.82,6.21,12.06,12a6.21,6.21,0,0,1,2.14,4.84c0,5.39.12,10.77,0,16.15-.07,3.4-.68,3.87-4.16,3.93-2.31,0-4.62,0-6.93,0s-3.37-1.24-3.38-3.49c0-3.08-.06-6.15,0-9.23,0-2.64-1.26-4.46-2.86-6.5-3.74-4.78-8.42-6-14.19-5.55-5,.39-10.16.11-15.24.07-2.59,0-4.73.57-6.4,2.87a32.22,32.22,0,0,1-4.85,4.92,8.16,8.16,0,0,0-2.81,6.53q0,30,0,60a8,8,0,0,0,2.61,6.09c10.31,10.3,7.33,8.24,20.37,8.48,2.31.05,4.64-.14,6.93.05,4.57.38,8.15-1,11.67-4.18s5.27-6.13,4.84-10.72a69.19,69.19,0,0,1,0-8.76c.09-2.74.82-3.62,3.52-3.86s5.23-.05,7.85-.13a2.61,2.61,0,0,1,3,2.73c.08,6.77.1,13.54-.11,20.3,0,1.18-1.09,2.5-2,3.44-4.36,4.53-8.72,9.08-13.35,13.32a8.89,8.89,0,0,1-5.4,2c-10.32.18-20.64.21-31,0a9.54,9.54,0,0,1-5.71-2.43c-5.48-5.12-10.62-10.63-16-15.85-1.84-1.78-1.65-3.85-1.66-6,0-11.69,0-23.38,0-35.07Z" transform="translate(-60.02 -49.31)"/><path d="M1448.24,185.37c0,10.91-.1,21.83.08,32.75a9.58,9.58,0,0,1-3.16,7.72c-3.79,3.57-7.57,7.18-11.18,10.93a7.26,7.26,0,0,1-5.66,2.44c-10.16-.05-20.31,0-30.47,0a6.23,6.23,0,0,1-4.9-2c-4.26-4.41-8.82-8.53-13-13a7.85,7.85,0,0,1-1.56-4.56c-.24-3.06-.07-6.15-.07-9.23,0-19.22.07-38.44-.07-57.66a9.81,9.81,0,0,1,3.41-8.07c3.65-3.27,7.07-6.82,10.5-10.34a7.55,7.55,0,0,1,5.78-2.32q15.24.06,30.48,0a7.81,7.81,0,0,1,6.12,2.57c3.5,3.67,7.21,7.13,10.86,10.65a9.31,9.31,0,0,1,2.94,7.36C1448.12,163.53,1448.24,174.45,1448.24,185.37Zm-12.88,0c0-7.23,0-14.47,0-21.7,0-11,.78-8.39-6.93-16.38a7.33,7.33,0,0,0-5.77-2.34c-4.62.07-9.29.46-13.85-.09-6.88-.83-11.71,1.82-15.84,7a8.05,8.05,0,0,0-2.13,5.29c0,18.78,0,37.55.06,56.32a6.22,6.22,0,0,0,1,3.87,92.42,92.42,0,0,0,8.53,8.38,6.55,6.55,0,0,0,3.86,1c4.16.12,8.36-.32,12.47.13,6.24.69,10.86-1.32,14.85-6.21,2.38-2.92,3.83-5.69,3.77-9.47C1435.26,202.62,1435.36,194,1435.36,185.39Z" transform="translate(-60.02 -49.31)"/><path d="M601.41,185.1q0-23.76,0-47.52c0-4.94.54-5.52,5.61-5.53q27.26-.06,54.5,0c4.38,0,5,.75,5.13,5.1.16,7.8.13,7.83-7.88,7.83h-36c-1.39,0-2.77.05-4.16.08-2,0-3.18,1-3.18,3.07,0,8.61-.1,17.22,0,25.83,0,2.86.76,3.35,4.32,3.39,8.16.08,16.32,0,24.47,0,1.7,0,3.39,0,5.08.1s2.88,1,2.91,2.88c0,.31,0,.62.06.92.47,6.56-.43,7.54-7,7.55-8,0-16,0-24,0-5.56,0-5.92.42-5.93,6.11q0,12.93,0,25.84c0,5.83.19,6,5.91,6,13.08,0,26.17,0,39.25,0,6.18,0,6.18,0,6.15,6.12,0,.46,0,.92,0,1.38-.16,4.25-.65,4.81-4.84,4.85-6.77.05-13.55,0-20.32,0q-16.4,0-32.79,0c-7.29,0-7.29,0-7.29-7.5Z" transform="translate(-60.02 -49.31)"/><path d="M474.14,185.57q0-24,0-47.95c0-5,.55-5.56,5.57-5.57,13.85,0,27.7,0,41.55,0a9.37,9.37,0,0,1,7.69,3.27c3,3.44,6.43,6.58,9.79,9.71a9.14,9.14,0,0,1,3.15,7.29c-.13,8.46-.1,16.91,0,25.37a9.89,9.89,0,0,1-3.47,8.1,127.59,127.59,0,0,0-9.77,9.69,9.62,9.62,0,0,1-7.68,3.4c-9.23-.06-18.46,0-27.69,0-5,0-5.18.23-5.19,5.23,0,9.84,0,19.68,0,29.51,0,5.37-.17,5.54-5.31,5.61-9.78.13-8.6-.16-8.62-8.43Q474.11,208.16,474.14,185.57ZM488.9,145a15.92,15.92,0,0,0-.72,2.92c-.05,11.82-.12,23.65,0,35.47,0,3.1.75,3.61,4,3.65,5.84.08,11.68,0,17.52,0,11.24,0,8.65,1,16.71-7.07a7.1,7.1,0,0,0,2-4.34c.21-6.6.16-13.21,0-19.81a6.58,6.58,0,0,0-1.55-3.56,57.09,57.09,0,0,0-4.43-4.65,8.24,8.24,0,0,0-6.55-2.69c-4.6.18-9.22,0-13.83,0Z" transform="translate(-60.02 -49.31)"/><path d="M1034.23,177.64c0,3.05.13,5.76.08,8.47,0,1.83-1.09,2.78-3,2.73-.92,0-1.85,0-2.77,0-8.47,0-16.93,0-25.4,0-5.19,0-5.84.68-5.86,5.86,0,8.92,0,17.84,0,26.76,0,4.75.59,5.33,5.33,5.35,13.4.05,26.79,0,40.18,0h5.94a30.22,30.22,0,0,1-.15,12c-1.71.13-3.34.36-5,.37q-27,0-54,0c-.93,0-1.85,0-2.77-.06a2.22,2.22,0,0,1-2.3-2.36c-.08-1.38-.09-2.76-.09-4.15q0-47.28,0-94.57c0-.62,0-1.23,0-1.85.13-3.7.52-4.15,4.39-4.16q27.48,0,55,0c4.72,0,5.12.55,5.16,5.43.06,7.49.06,7.49-7.62,7.49h-36.94c-1.23,0-2.47,0-3.69.08a3.18,3.18,0,0,0-3.35,3.55v24.92c0,2.42,1.24,3.69,3.66,3.8,1.07,0,2.15,0,3.23,0,8.31,0,16.62,0,24.94,0C1030.66,177.4,1032.16,177.54,1034.23,177.64Z" transform="translate(-60.02 -49.31)"/><path d="M2393,177.79c0,2.86,0,5.29,0,7.71-.05,2.26-1.29,3.3-3.54,3.3-3.7,0-7.39,0-11.09,0-5.85,0-11.71-.07-17.56,0-4.52.07-5,.54-5,5.16,0,8.93,0,17.85,0,26.78,0,5.87.16,6,5.89,6,13.25,0,26.5,0,39.74,0,2,0,3.92.17,6.16.28v11.6c-1.94.18-3.57.45-5.2.45q-27,0-54.06,0c-.93,0-1.85,0-2.77-.07a2.31,2.31,0,0,1-2.42-2.28c-.11-1.38-.14-2.76-.14-4.15V138.07c0-.93,0-1.85,0-2.77,0-2,1-3.16,3.1-3.21,1.08,0,2.16-.05,3.24-.05h53.14c4.8.13,5.18.5,5.18,5.37,0,8,.42,7.57-7.51,7.57h-37c-1.23,0-2.47,0-3.7.05-3,.23-3.45.63-3.64,3.56-.12,1.84-.05,3.7-.05,5.54,0,6.16-.06,12.31,0,18.47.06,4.25.54,4.73,4.88,4.76,8.78.07,17.56,0,26.33,0C2388.88,177.41,2390.68,177.63,2393,177.79Z" transform="translate(-60.02 -49.31)"/><path d="M1757.52,238.49c-.13-1.49-.42-3.13-.42-4.77q0-48.21,0-96.42c0-5,.28-5.25,5.2-5.26q26.78,0,53.57,0a49.27,49.27,0,0,1,5.56.69v11.72c-2.2.19-4.14.48-6.07.49-12.63,0-25.25,0-37.87,0-1.08,0-2.16,0-3.24,0-3.87.17-4.25.45-4.29,4.3-.07,7.84,0,15.68,0,23.53,0,.3,0,.61,0,.92.25,2.95.64,3.46,3.63,3.58,3.53.14,7.08.06,10.62.06,6.15,0,12.31,0,18.47,0,4,.06,4.36.49,4.49,4.61,0,.31,0,.61,0,.92,0,5.18-.56,5.84-5.82,5.87-7.85.06-15.7,0-23.55,0-1.08,0-2.16,0-3.24,0-4.11.17-4.51.55-4.6,4.54-.07,2.92,0,5.85,0,8.77,0,6.3,0,12.61,0,18.91,0,5.62.12,5.75,5.61,5.76,12.63,0,25.25,0,37.87,0h7.92a28.2,28.2,0,0,1,.25,11.54C1817.8,239.42,1762.34,239.56,1757.52,238.49Z" transform="translate(-60.02 -49.31)"/><path d="M921.46,201.53a27.07,27.07,0,0,1,.63,3.83c.06,5.08.13,10.15-.05,15.22a6.59,6.59,0,0,1-1.52,4.06c-4,4.22-8.25,8.21-12.35,12.34a6.94,6.94,0,0,1-5.31,2.24c-9.54-.06-19.08,0-28.62,0a6.33,6.33,0,0,1-5-1.88c-4.7-4.82-9.59-9.47-14.38-14.21a7.55,7.55,0,0,1-2.32-5.76q.1-31.82,0-63.65a8.27,8.27,0,0,1,2.66-6.55c4.36-4.1,8.59-8.34,12.77-12.61a8.07,8.07,0,0,1,6.19-2.5c9.7,0,19.39,0,29.09,0a8.31,8.31,0,0,1,6.52,2.81c3.52,3.84,7.31,7.43,10.9,11.22a4.76,4.76,0,0,1,1.29,2.85c.12,5.95.06,11.91.06,18.45-4,0-7.47.08-10.94,0-1.6,0-2.44-1-2.41-2.76,0-2.45,0-4.92,0-7.37-.08-5.85-6.21-12.15-12-12.22s-11.39,0-17.08,0a7.25,7.25,0,0,0-5.79,2.24c-2,2.13-4.46,3.85-6.16,6.16a10.9,10.9,0,0,0-2,5.92c-.15,17.53-.09,35.05-.09,52.58a8.76,8.76,0,0,0,3.35,7.26,13.34,13.34,0,0,1,1.35,1.26c7.47,7.82,5.71,6.28,15.58,6.44,3.07,0,6.17-.21,9.22.06a9.77,9.77,0,0,0,7.54-2.75c4-3.41,7.08-7.2,6.13-13a38.61,38.61,0,0,1,0-6c0-2.21,1-3.53,3.29-3.59C915.08,201.46,918.13,201.53,921.46,201.53Z" transform="translate(-60.02 -49.31)"/><path d="M1937.3,167.39c0-3.73-.23-6.5,0-9.21.36-3.36-.88-5.87-3.08-8.25-3-3.29-6.25-5.55-11.18-5.05a110,110,0,0,1-14.3.07,8.27,8.27,0,0,0-6.63,2.54c-1.92,2-4.11,3.74-5.83,5.88a7.88,7.88,0,0,0-1.73,4.51c-.12,18.44-.06,36.89-.1,55.34a5.75,5.75,0,0,0,2,4.88,5,5,0,0,1,1,1c4.87,6.87,11.6,8.94,19.67,7.78a15.1,15.1,0,0,1,4.6,0c7.2,1.21,10.74-4.08,14.79-8.32.7-.73.67-2.31.7-3.5.1-3.23,0-6.46.07-9.68.09-2.93.61-3.51,3.48-3.77a41.44,41.44,0,0,1,6-.07c2.72.16,3.64,1,3.7,3.63.11,5.23.15,10.46-.1,15.68a7.72,7.72,0,0,1-2,4.48c-3.65,3.93-7.59,7.6-11.36,11.43a8,8,0,0,1-6.18,2.49q-13.86-.15-27.7,0a7.59,7.59,0,0,1-5.79-2.31q-7-7-14.08-13.95c-2.09-2.07-2-4.7-2-7.33v-53c0-2.92,0-5.84,0-8.76a8.48,8.48,0,0,1,2.86-6.93c4.3-3.92,8.38-8.07,12.4-12.29a7.94,7.94,0,0,1,6.14-2.58q14.54,0,29.08,0a8.26,8.26,0,0,1,6.52,2.83c3.22,3.5,6.74,6.73,9.83,10.33a9.79,9.79,0,0,1,2.27,5.29c.31,4.59,0,9.22.12,13.83,0,1.89-.74,3-2.6,3.06C1944.65,167.46,1941.31,167.39,1937.3,167.39Z" transform="translate(-60.02 -49.31)"/><path d="M1303.87,167.41c0-4.49.15-8-.07-11.54a8.55,8.55,0,0,0-1.57-4.06c-3.59-5.14-8.24-7.8-14.87-6.93-4.24.55-8.62-.07-12.91.19a9.35,9.35,0,0,0-5,1.85,45.94,45.94,0,0,0-6.92,6.74,7.86,7.86,0,0,0-1.5,4.64c-.11,18.15-.06,36.29-.11,54.43a7.31,7.31,0,0,0,2.46,5.71c.12.1.19.24.3.35,8,8.05,8,8.05,19.53,8.05a14.23,14.23,0,0,1,2.77,0c7.41,1.51,12.24-2.61,16.55-7.66a6.57,6.57,0,0,0,1.23-3.75c.18-3.38,0-6.77.11-10.15s.43-3.69,3.79-3.75c10-.17,9.23-.62,9.23,8.7,0,3.38.21,6.79-.13,10.14a9.87,9.87,0,0,1-2.14,5.34c-3.5,3.86-7.43,7.34-11.08,11.08a7.91,7.91,0,0,1-6.2,2.41c-9.24-.07-18.47-.05-27.71,0a7,7,0,0,1-5.42-2c-4.78-4.77-9.7-9.4-14.46-14.19-2-2-2.18-4.62-2.17-7.32,0-14.91,0-29.82,0-44.74,0-5.53,0-11.07,0-16.6a9.54,9.54,0,0,1,3.33-7.7c4.31-3.91,8.4-8.07,12.43-12.26a7.45,7.45,0,0,1,5.75-2.38q14.77,0,29.55,0a7.69,7.69,0,0,1,6,2.77c3.09,3.41,6.32,6.69,9.64,9.86a7.61,7.61,0,0,1,2.55,5.69c0,4.61,0,9.22,0,13.84,0,1.8-.53,3.11-2.46,3.18C1311.15,167.48,1307.81,167.41,1303.87,167.41Z" transform="translate(-60.02 -49.31)"/><path d="M722.91,238.37a20.58,20.58,0,0,1,.24-3.67c1.19-4.6,2.49-9.17,3.77-13.74,1-3.4,2-6.77,2.88-10.18,2-7.87,3.89-15.79,6-23.63,2-7.56,4.35-15,6.38-22.58S746,149.42,748,141.86a51.94,51.94,0,0,1,2.6-7.85,3.88,3.88,0,0,1,2.85-1.78,108.35,108.35,0,0,1,11.54-.08,4.47,4.47,0,0,1,2.91,1.76,12.88,12.88,0,0,1,1.82,4.21q5,18.9,9.81,37.85c2,7.72,3.81,15.47,5.82,23.18s4.28,15.66,6.4,23.49c1,3.69,2,7.39,2.9,11.12a34.72,34.72,0,0,1,.45,4.73c-3.9,1.26-7.59.85-11.16.47-2.21-.24-2.84-2.51-3.36-4.52-1.65-6.38-3.46-12.71-5-19.12-.58-2.46-1.89-3.19-4.22-3.18-8.78.06-17.56,0-26.33.05-3.43,0-4,.68-4.83,3.75-1.69,6.69-3.32,13.39-5.16,20-.32,1.13-1.44,2.69-2.41,2.86C729.49,239.39,726.25,239.72,722.91,238.37ZM772,201.17c-4.28-16.15-8.48-32-12.7-48-3.52.24-3.53,2.66-4,4.65-1.15,4.76-2.17,9.55-3.41,14.28-2.16,8.29-4.48,16.54-6.67,24.82a39.21,39.21,0,0,0-.67,4.31C748.77,202.76,767.91,202.69,772,201.17Z" transform="translate(-60.02 -49.31)"/><path d="M2239.06,239.2c-1.78-6.44-3.49-12.48-5.12-18.53q-3.48-12.85-6.87-25.74c-.9-3.41-1.71-6.85-2.57-10.27-1.95-7.73-3.85-15.48-5.87-23.2s-4.23-15.68-6.35-23.52c-.24-.89-.51-1.78-.69-2.68-.37-1.84.28-3.07,2.28-3.15,2.46-.1,4.93-.15,7.39-.06,2.92.11,3.67,2.46,4.34,4.68.87,2.94,1.59,5.92,2.35,8.89,2.8,11,5.5,22,8.39,33,2,7.7,4.39,15.31,6.48,23,1.16,4.29,2.08,8.65,3.11,13,.35,1.45.68,2.91,1.06,4.57,2.78-.83,3.5-2.77,4-4.91,2.35-9.21,4.75-18.41,7.08-27.62,2-8,4-16.09,6-24.12q3.53-13.82,7.2-27.6c.22-.82.83-2.14,1.34-2.18a87.79,87.79,0,0,1,10-.18c.38,0,1,1.49,1,2.28a18.44,18.44,0,0,1-.71,4.54c-2.94,10.48-6,20.92-8.88,31.42-2.14,7.84-4,15.75-6.09,23.61-2,7.54-4.2,15-6.26,22.58-1.62,5.9-3,11.87-4.77,17.74-1.3,4.45-1.45,4.42-6.12,4.46C2247.14,239.23,2243.46,239.2,2239.06,239.2Z" transform="translate(-60.02 -49.31)"/><path d="M68.05,276.05c7.52-19.23,182.6-203.87,200.6-212.48a7.19,7.19,0,0,1-.73,2.18c-13.29,15.66-26.48,31.42-40,46.89-10.9,12.48-22.09,24.7-33.32,36.88q-16.55,17.92-33.42,35.53-13,13.62-26.32,27c-8.41,8.48-17,16.82-25.44,25.24-4.24,4.21-8.37,8.54-12.7,12.66-8.55,8.13-17.2,16.17-25.83,24.21A20.66,20.66,0,0,1,68.05,276.05Z" transform="translate(-60.02 -49.31)"/><path d="M1574.8,227.14v11.61c-1.89.16-3.52.43-5.15.43q-26.54,0-53.08,0c-1.07,0-2.15-.08-3.22-.17a2.26,2.26,0,0,1-2.24-2.43c0-1.22-.08-2.45-.08-3.68v-95c0-.92,0-1.85,0-2.77a2.66,2.66,0,0,1,2.8-3,64.75,64.75,0,0,1,7.37-.08,3.23,3.23,0,0,1,3.3,3.65c0,1.07,0,2.15,0,3.22v79.76c0,.61,0,1.23,0,1.84,0,6,.3,6.24,6.23,6.24q19.15,0,38.3,0C1570.85,226.85,1572.65,227,1574.8,227.14Z" transform="translate(-60.02 -49.31)"/><path d="M2049.24,192.11v40.13c0,1.08,0,2.16,0,3.23-.2,3.14-.5,3.5-3.47,3.68-2,.12-4,0-6,0s-3.18-.83-3.2-3c0-1.38,0-2.76,0-4.15q0-40.12,0-80.26c0-7.13,0-7.13-7.25-7.14-6.16,0-12.31,0-18.47,0-3.65,0-4.49-.71-4.56-4.19-.2-8.76-.33-8.47,7.64-8.46q29.79.06,59.57,0c1.08,0,2.16,0,3.24,0a2.63,2.63,0,0,1,2.7,2.59c.08.61.05,1.23.07,1.84.28,8.21.28,8.2-7.84,8.2-5.85,0-11.7-.07-17.55,0-4.15.07-4.77.72-4.79,4.94C2049.22,163.82,2049.25,178,2049.24,192.11Z" transform="translate(-60.02 -49.31)"/><path d="M1647.65,226.87h50c0,3.68,0,6.85,0,10a2.16,2.16,0,0,1-2.35,2.28c-1.08,0-2.16,0-3.23,0h-51.7c-1.23,0-2.47,0-3.69-.09a2.85,2.85,0,0,1-2.88-3q-.09-1.84-.09-3.69V138.38c0-.77,0-1.54,0-2.31.19-2.81.83-3.69,3.47-3.92a53.11,53.11,0,0,1,6.91,0c2.24.09,3.3,1.35,3.19,3.61-.07,1.38,0,2.77,0,4.15q0,39.89,0,79.78C1647.26,221.8,1647.48,223.91,1647.65,226.87Z" transform="translate(-60.02 -49.31)"/><path d="M2151,239.17c-3.65,0-6.69,0-9.74,0a2.47,2.47,0,0,1-2.72-2.51c-.09-1.22-.1-2.45-.1-3.68q0-47.49,0-95c0-.93,0-1.85,0-2.77a2.86,2.86,0,0,1,3.17-3.14c2.3,0,4.61,0,6.91.07a2.68,2.68,0,0,1,2.81,3c0,.92,0,1.84,0,2.76q0,47.49,0,95C2151.31,234.67,2151.11,236.48,2151,239.17Z" transform="translate(-60.02 -49.31)"/></g></g></g></svg>