<svg xmlns="http://www.w3.org/2000/svg" viewBox="0 0 1789.64 1030.67"><defs><style>.cls-1{fill:#7e2e33;}.cls-2{fill:#eaa75d;}.cls-3{fill:#ededed;}</style></defs><title>ueCmK9</title><g id="Layer_2" data-name="Layer 2"><g id="Layer_2-2" data-name="Layer 2"><g id="ueCmK9"><path class="cls-1" d="M1789.21,467.25c0,38.71,1.14,77.46-.3,116.12-1.68,45.46.55,91-2.4,136.34-3.54,54.19-36.25,103.08-99.74,119.41-72.06,18.54-144.26,36.56-216.4,54.76Q1338,927.26,1205.68,960.54c-62.68,15.7-125.53,30.73-188.12,46.79-28,7.18-55.64,16-84.26,20.28-32.16,4.79-64.51,4.22-96.19-3.6-76.77-19-153.37-38.59-230.07-57.82-85.37-21.4-170.81-42.52-256.16-64C266.77,881,182.44,860.64,98.77,837.86c-55.23-15.05-88.06-52.69-95.91-110-4.33-31.62-3.11-63.48-.53-95.28.83-10.15.62-20.4.62-30.6,0-83.79.36-167.59-.18-251.38-.41-63.7,37.63-118,98.92-136.23C163.61,195.9,226,179,288.19,161.5Q426.25,122.58,564.3,83.68C652.24,58.92,740.24,34.35,828.12,9.36,873.5-3.55,918.2-3,963.67,10.29c78.73,23,158,44.25,237,66.35q138.7,38.79,277.36,77.75c71.62,20.07,143.36,39.74,214.84,60.3,41.23,11.87,70.71,38.07,86.66,78.12,6.06,15.22,10.14,31,9.78,48.12-.87,42.09-.28,84.21-.28,126.32ZM17.43,532.55H16.38c0,60-.17,120,.06,180,.2,50.88,31.7,94.21,80.07,109.55,20.64,6.55,41.73,11.7,62.75,17Q346.57,886.12,533.94,933q147.75,37.13,295.41,74.58c38.45,9.7,77.19,12.9,116.09,3.21q150.29-37.43,300.44-75.36,118.69-29.83,237.36-59.79c67.56-17.08,135.37-33.26,202.52-51.81,54.85-15.15,86.4-58.11,87-115,1.36-119.1,1.56-238.21,3.51-357.29,1-59.75-38.74-112.36-98-126.51-33-7.9-65.6-17.88-98.33-27.06q-114.78-32.22-229.53-64.56C1220.79,97.07,1091,61.22,961.38,24.43c-41.87-11.89-83-14.79-125.31-2.21C777.42,39.64,718.29,55.44,659.38,72q-153.43,43.09-306.85,86.25c-78.54,22.13-156.89,45-235.61,66.44C53.78,241.89,17.76,286.94,17.48,352.6,17.23,412.58,17.43,472.57,17.43,532.55Z"/><path class="cls-2" d="M17.43,532.55c0-60-.2-120,.05-179.95.28-65.66,36.3-110.71,99.44-127.93C195.64,203.2,274,180.36,352.53,158.23Q505.92,115,659.38,72c58.91-16.54,118-32.34,176.69-49.76,42.33-12.58,83.44-9.68,125.31,2.21,129.57,36.79,259.41,72.64,389.12,109Q1465.3,165.54,1580,198c32.73,9.18,65.28,19.16,98.33,27.06,59.21,14.15,98.93,66.76,98,126.51-2,119.08-2.15,238.19-3.51,357.29-.64,56.87-32.19,99.83-87,115-67.15,18.55-135,34.73-202.52,51.81q-118.65,30-237.36,59.79-150.2,37.75-300.44,75.36c-38.9,9.69-77.64,6.49-116.09-3.21Q681.63,970.28,533.94,933,346.62,885.89,159.26,839c-21-5.28-42.11-10.43-62.75-17C48.14,806.71,16.64,763.38,16.44,712.5c-.23-60-.06-120-.06-180Zm1726-106.71c0-24.52.09-52.17,0-79.82-.17-40.36-24.59-73.94-63.24-86.36-15.76-5.07-31.84-9.14-47.78-13.62q-150.33-42.22-300.67-84.42c-124-34.67-248.1-68.77-371.91-104-38.43-11-76.2-15.67-115.36-4.47q-171,48.93-342.17,97Q309.69,204.4,117,258.43c-40.27,11.36-66.38,46-66.88,87.79-.91,77,.47,153.94-1.77,230.91-1.23,42.51-.43,85.07-.45,127.61,0,47.42,24.37,78.54,70.57,90.21q53.15,13.41,106.3,26.74,181,45.7,362.09,91.43,125.42,31.65,250.86,63.2c33.06,8.37,66.49,11.09,99.74,3.21,52.49-12.44,104.64-26.34,156.94-39.56q160.65-40.59,321.33-81.09c84-21.13,168-42.51,252.26-62.85,49-11.83,73.07-49.43,72.68-91.49C1739.81,612.68,1741.55,520.82,1743.47,425.84Z"/><path class="cls-1" d="M1743.47,425.84c-1.92,95-3.66,186.84-2.81,278.7.39,42.06-23.7,79.66-72.68,91.49-84.23,20.34-168.22,41.72-252.26,62.85Q1255,899.27,1094.39,940c-52.3,13.22-104.45,27.12-156.94,39.56-33.25,7.88-66.68,5.16-99.74-3.21q-125.4-31.71-250.86-63.2-181.07-45.68-362.09-91.43Q171.62,808.28,118.46,795c-46.2-11.67-70.58-42.79-70.57-90.21,0-42.54-.78-85.1.45-127.61,2.24-77,.86-153.94,1.77-230.91.5-41.8,26.61-76.43,66.88-87.79Q309.61,204.1,502.32,150.1q171.15-48.24,342.17-97c39.16-11.2,76.93-6.48,115.36,4.47,123.81,35.26,247.94,69.36,371.91,104q150.38,42.06,300.67,84.42c15.94,4.48,32,8.55,47.78,13.62,38.65,12.42,63.07,46,63.24,86.36C1743.56,373.67,1743.47,401.32,1743.47,425.84ZM949.89,441.45c6.32,16.22,18.42,17.3,32,16.51,15.1-.88,26.55-8.49,36.75-18.39,6.19-6,9.55-6.61,13.62,2.17,4.87,10.53,14.37,15.08,25.87,15.66,17.67.88,32.57-5.95,45.15-17.46,7.91-7.24,16.27-9.24,26.58-8.47,6.57.49,8.67,1.72,5.64,8.06-4.15,8.64-1.18,15.2,7.21,18.58s16,1.46,20.82-6.92a99.34,99.34,0,0,0,4.94-10.36c4.75-10.91,10.52-21.53,13.87-32.85,5.59-18.87,20.13-28.82,35.1-38.65,2.49-1.64,5.75-5.36,8.84-1.81,2.3,2.65-.92,5.35-2.26,7.9-8.08,15.42-17.75,30-24.15,46.32-5.49,14-3.78,23.75,4.91,31.7,6.56,6,19.92,5.95,31.08-.49,18.78-10.85,32.57-27,45.69-43.77,4.24-5.44,8.1-11.44,1.08-16.46-6.12-4.37-12.31-3-17.59,3.8-7.29,9.35-15.35,18.25-25.37,24.89-3.25,2.15-6.79,8-10.64,4.3s1-8.68,3.43-11.9c9.24-12.39,15.43-26.35,22.15-40.06a30.87,30.87,0,0,0,3.33-17.29c-1.8-16.13-15.19-24-30.24-18.33-6,2.24-10.72,6.68-17,9.27-2.83-9.41-9.08-12.75-18.27-12.83-9.57-.08-11.81,6.82-14.78,13.38-6.14,13.54-12.18,27.13-18.31,40.68-4.1,9.06-11.55,14.49-20.33,18.38-1.87.83-4,2-5.73-.18-1.22-1.53-.62-3.22.06-4.78,2.94-6.68,4.21-13.79,5.49-20.91,5.44-30.12-15.75-50.24-45.37-42.82a68.87,68.87,0,0,0-15.37,6.06c-18.6,9.87-31.8,25-42,43.21s-25.22,31.83-42.17,43.51c-2.73,1.88-6.1,4-9.44,1.7-3.94-2.69-3-6.81-1.47-10.38a188.72,188.72,0,0,1,8.11-17.28c8.94-16.42,18.15-32.69,27.21-49.05,2.88-5.2,7-10.78.35-15.81-6.44-4.88-13.53-4.64-20,.26-4.89,3.68-7.31,9.31-10.23,14.49-14.81,26.28-28.72,53.27-54.65,71-5.07,3.47-10.51,11.06-16.33,6.5-6.34-5-1.16-12.85,2-18.58,13.88-25.34,28.46-50.31,42.23-75.72,3.85-7.11,8.8-9.28,16.36-9,7.11.31,14.71,1.37,20.92-3.54,4.72-3.74,9.64-8.32,8-14.87-1.68-6.9-8.3-4.26-13-4.37-6.11-.14-10.52-.12-9.48-8.95,1.2-10.21-7.74-15.91-17.5-12.42a18.5,18.5,0,0,0-10.81,10.29C951.9,305,944.72,308.19,934.66,307c-9.72-1.18-17.34,2.91-23.25,10.54-4,5.19-1.61,8.83,3.11,11.29,2.11,1.11,5,.94,7.48,1.12,12.62.9,12.83,1,6.4,12.54Q915.08,366.39,901.13,390c-7,11.86-16.46,21.64-27.06,30.26-2.72,2.21-6.66,5.59-10.18,2.19-3.11-3,.62-6.24,2.08-9,10-19.23,20.18-38.36,30.15-57.61,2.45-4.72,7.12-9.91,2.35-15.14-5.05-5.54-11.74-3.94-17.69-1-4.67,2.33-8.71,4.59-14.15,1.3-10.25-6.2-21.27-5.08-32.06-1.5-24.3,8-43.62,22.79-57,44.63-9.48,15.42-20.91,29-35.47,39.64-6,4.43-12.52,14.68-20.18,7.87-6-5.37,1.14-14.35,4.54-20.65,13.32-24.68,27.54-48.87,41.08-73.42,3.32-6,7.57-8.38,14.31-8.25s13.74,1.32,20.09-2,12-8.24,10.62-15.79-8.73-4.66-13.89-5.11a9.12,9.12,0,0,0-1.28,0c-5.72.21-9.74.33-7.44-8.23,2.53-9.43-5.52-15.87-15.29-13.65a17.49,17.49,0,0,0-12.35,10.23c-4.48,9.8-11.58,13.6-22.35,12.3-8.39-1-16.06,1.62-21.48,8.66-5.67,7.35-3.38,12.83,5.73,14.11,4.79.68,10-1,15.8,2-8.85,15.46-17.47,30-25.57,44.8-8.95,16.35-20,31.72-24.44,50.27-4.54,19.12,4.61,30,24.12,31.08,16.22.88,28.95-5.71,40.45-15.64,5.84-5,9.34-7.94,13.55,1.82,3.29,7.64,10.7,12.19,19.2,13.12,12.38,1.35,24.67,1.33,35.63-6.22,3.29-2.26,6.67-6.28,11.08-1.73,13.44,13.86,26.91,8.85,40.06-.21,5.54-3.81,9.55-6.25,14.15,1.47,3.17,5.31,9.38,6.55,15.63,7.15C921.37,459.43,936.48,454.06,949.89,441.45ZM714,178.64a93.41,93.41,0,0,0-43.37,9.56c-43.49,21-70.69,56.06-86.24,100.72-9,25.74-1.15,47.5,20.39,64.22,10.38,8.06,22,14.57,31,24.35,12.39,13.44,12.87,29.23,1.26,42.42-15.55,17.67-50.93,15.3-64.27-4.19-5.72-8.36-6.56-16.34.56-24.33a19.46,19.46,0,0,0,3.62-5.2c3.65-8.68.85-15.82-6-21.5-7.35-6.07-13.36-2.27-19,3.15-21.49,20.73-14.75,63.35,12.83,79.51,18.32,10.73,38.24,14.46,58.89,9.29,26.29-6.57,44.53-22.19,50.93-49.59,6-25.56-7.62-42-26.07-56.29-9.07-7-18.57-13.5-26.45-21.93-13.22-14.16-15.91-28.13-7.61-45.52,15.11-31.65,38.94-55.56,68.83-73.16,13.34-7.85,28.37-11.68,44.13-6.87,11.92,3.64,15.56,10.26,12.51,22.19a79.58,79.58,0,0,1-10.22,23.23c-15.93,24.91-35,47-58.84,64.63-4,3-9.16,5.79-5.88,12.25s8.62,9.56,15.68,8.14c5.43-1.08,10-4.35,14.61-7.54,13.41-9.37,23.92-21.72,34.05-34.21,17.2-21.23,32.56-43.68,37.26-71.5,3.08-18.18-3.35-29.21-20.5-36.13A73.77,73.77,0,0,0,714,178.64ZM954.86,599h.26c0,17,.25,34-.12,51-.15,6.86,1.46,10,9.13,9.76,19.56-.48,39.13,0,58.7-.25,14.37-.2,25.81-6.63,31.93-19.63,6.24-13.26,5.1-26.76-4.67-38.26-3.9-4.59-3.93-8-2-13.53,8.18-23.67-7.37-46.54-32.54-47.67-17.41-.78-34.88,0-52.32-.33-6.86-.13-8.65,2.59-8.49,9.12C955.14,565.83,954.86,582.43,954.86,599Zm517.76.23-3.59.11c-5.89-15.33-12.65-30.39-17.38-46.07-3.4-11.26-9.54-14.17-20.38-13.32-7.53.58-9.66,1.36-6.41,9.47,13.26,33.14,25.69,66.61,38.65,99.88,1.56,4,1.6,10.45,7.83,10.13,5.27-.28,5.07-6.19,6.54-9.88,6.19-15.6,12-31.34,18-47l3-.19c5.14,13.28,9.72,26.82,15.68,39.72,2.81,6.07,1.63,17.14,10.19,17,7.43-.12,6.85-10.61,9.22-16.58,12.21-30.82,23.91-61.85,35.66-92.85,1.18-3.1,4.77-7-1.42-9.17-11.49-3.93-20,.62-24.28,12.2-5.79,15.77-12,31.37-18.09,47.1-6-2.58-5.89-6.94-7.23-10.34-5.27-13.46-10.25-27-15.56-40.49-1.17-3-1.14-7.68-5.4-7.8-5.19-.15-4.84,5.13-6.12,8.42C1485.16,566.08,1478.92,582.68,1472.62,599.24Zm-760.37.11h.2c0,17,.17,34-.09,51-.09,6,1,9.64,8.22,9.4,13.6-.46,27.29.61,40.81-.51,32.3-2.68,55.17-29,54.26-61.31-.9-31.62-26.14-56.64-58.4-57.58-11.9-.34-23.83.13-35.73-.24-7-.22-9.72,1.9-9.45,9.46C712.66,566.16,712.25,582.76,712.25,599.35Zm502.47,59.95c-6.66-10.19-11.87-18.94-17.88-27.1-5.11-7-5-11.46,1.78-18,13.12-12.66,15.54-29,9.28-45.87-5.94-16-18.23-25.81-35.17-27.48-13.88-1.37-28-.39-42-.55-4.48,0-7.25,1.24-7.22,6.42q.32,53.46.42,106.92c0,4.3,2,5.58,6.09,6.17,15.69,2.21,17.29.93,17-15.3,0-1.27-.08-2.55-.11-3.82-.34-12.93,1.68-14.51,14.45-13.18,5,.52,7.47,3.47,9.82,7,4.66,7.08,9.35,14.16,13.81,21.36,1.81,2.92,3,5.82,7.47,5.27C1199.09,660.33,1205.78,660,1214.72,659.3ZM383.46,596.66c-2.83,38.47,33.88,67,61,64,33.43-3.62,57.81-25.49,58-60.83.2-34-27.17-59.33-61.68-59.51C416.21,540.22,384.45,562.7,383.46,596.66Zm898,2.25h.2c0,16.56.52,33.14-.21,49.66-.4,9.23,3,11.45,11.59,11.28,22.49-.42,45-.36,67.5.35,9.55.3,8.88-5.15,8.68-11.32s2.08-13.06-8.72-12.54c-15.25.75-30.56.37-45.85.36-5,0-10.88.87-10.55-7.15.3-7,5.44-6.37,10.13-6.35,10.19,0,20.38.2,30.57.17,3.22,0,6.61.79,8.05-4,3.79-12.62-.51-19-13.35-19h-7.64c-28,0-27.81,0-27.66-27.53,0-7.14,2.35-9.76,9.54-9.56,15.7.43,31.43-.13,47.12.47,8.48.32,8.9-4.45,8.34-10.44-.53-5.61,3.08-13.41-8.08-13.23-23.77.39-47.56.28-71.33,0-6.77-.07-8.66,2.48-8.48,9.07C1281.8,565.79,1281.5,582.35,1281.5,598.91ZM289.3,659.37c16.52.24,30.93-5.3,42.79-16.66,3.32-3.18,11-7.23,3.07-12.9-5.48-3.9-9.47-14-19.53-4-15.07,15-37.72,14.1-51.23-.31-13.33-14.22-14-36.87-1.42-49.87,15.27-15.81,38.21-17.17,53.18-1.25,9.4,10,13.12,0,18.37-3.15,7.92-4.68,1.88-9.2-1.72-13-17.87-18.74-47.86-23.34-70.46-11-23.85,13.05-36.36,41.17-29.92,67.26C238.73,640.12,262.74,659,289.3,659.37Zm295.37-71.31h-.12c0-13.17-.4-26.35.13-39.49.44-11.12-7.38-7.83-13.08-8.3-6-.5-10.51-.13-10.38,8.39.49,34,.49,67.93.22,101.9-.05,7.44,2.65,9.3,9.62,9.22,22.93-.24,45.87-.2,68.79.39,7.56.19,10.26-2.48,9.07-9.48-1-5.68,4-14.61-8.3-14.26-15.28.44-30.59-.24-45.86.2-7.85.23-10.47-2.71-10.21-10.36C585,613.55,584.67,600.8,584.67,588.06ZM709.94,735.21c-18.59-.18-33,14.2-33.1,33.15-.15,18,14.17,33.07,31.78,33.43,18,.37,33-14.75,32.94-33.31C741.49,750.25,727.37,735.39,709.94,735.21Zm401,0c-18.63-.4-32.9,13.52-33.47,32.67-.54,17.94,13.62,33.33,31.15,33.87,18.09.55,32.85-13.9,33.6-32.89C1142.9,751.34,1128.25,735.59,1110.93,735.21Zm-184,33.16H927c0,8.06-.16,16.13.06,24.19.13,4.43,1.31,8.9,6.85,9.07,9.32.29,18.67.18,28,0,3.08-.07,6.18-1.27,5.88-5.16-.3-3.66-3.31-4.65-6.46-4.77-4.24-.16-8.49-.17-12.73-.13-5.58.06-10-.71-10.26-8s3.6-8.51,9.55-8.36a65,65,0,0,0,10.1-1c3.15-.42,5.88-1.56,5.77-5.42s-3-4.73-6.14-4.84c-3.82-.12-7.65-.35-11.46-.14-6.35.34-7.92-3-7.86-8.66.06-5.41,2.3-7.73,7.67-7.56,5.09.16,10.19,0,15.29-.09,3.78-.1,6.92-1.6,6.86-5.83s-3.58-5.42-7.19-5.49c-7.64-.16-15.28,0-22.92-.14-8.26-.16-11.35,4.14-11.13,11.92C927.08,754.78,926.92,761.58,926.92,768.37Zm-54.72,1h.06q0,12.09,0,24.19c0,3.57.53,7.56,4.76,7.76,10.15.46,20.33.34,30.5,0a4.89,4.89,0,0,0,4.79-5c0-4.05-3.17-4.56-6.24-4.66-4.67-.15-9.34-.26-14-.12-6.1.18-9.54-1.79-9.49-8.7,0-6.56,3.55-7.83,8.93-7.6,3,.12,6,.06,8.91-.06,4.11-.17,8.25-1.47,8.42-6,.19-5.25-4.49-5.23-8.37-5.34s-7.64,0-11.45-.22c-5.86-.31-6.25-4.52-6.37-9.06-.12-4.84,2.12-7,6.85-6.93,5.52,0,11,.08,16.55-.23,3.72-.21,6.71-2,6.34-6.3-.32-3.67-3.37-4.73-6.47-4.83-6.78-.23-13.6.21-20.36-.3-9.69-.72-14.34,2.77-13.47,13C872.66,755.78,872.2,762.61,872.2,769.4Zm169.4-34.23c-15,.12-25.81,7.48-31.48,21.51a32.71,32.71,0,0,0,7.53,35.23c9.82,9.76,25.5,13.11,37.66,7.34,4.45-2.11,12.58-3.45,9.28-10.87s-8.47-.9-12.89.34a34.67,34.67,0,0,1-8.77,1.27c-13.89.22-23.16-8.32-23.32-21.25-.17-13.7,9.35-23,23.42-23,4.44,0,8.18,2,12.06,3.7s7.82,2.54,9.69-2.23c1.57-4-2.07-6-4.85-7.88C1054.38,735.56,1048,735.17,1041.6,735.17ZM642.19,801.81c5.82.63,11.75-1.53,17.32-4.87,3.36-2,7-4.32,4.51-9-2.16-4.07-5.67-2.5-8.9-1.13a40.34,40.34,0,0,1-7.11,2.69c-18.17,3.77-32.35-9.34-28.72-26.44,3-14,17.37-20.26,33.55-14.68,3.8,1.31,8.54,5.22,11.07-.24,2.65-5.69-3-8-7.09-10.08-11.26-5.72-28.53-3.21-38.3,5.36-10.15,8.9-14.12,23.95-9.49,35.93C614.51,793.55,626.26,801.7,642.19,801.81Zm116.32-33.7h.43c0,8.91-.16,17.82.09,26.73.08,3,1.58,6.11,5.12,6.34,2.65.16,5.76-1.79,5.33-4.38-3-18,5.91-23.8,22.3-22.87a4.82,4.82,0,0,0,4.76-5.08c-.16-3.77-3.23-4.7-6.33-4.89-3.81-.22-7.64-.2-11.46-.11-5.72.12-8.51-2.29-8.69-8.29-.18-6.29,2.79-8.19,8.52-8,5.08.2,10.2.07,15.28-.21,3.23-.18,5.82-1.74,5.93-5.4s-2.43-4.92-5.61-5.71c-26.59-6.64-35.72.17-35.67,26.73ZM816,769.65h0c0,7.21-.19,14.42.08,21.61.15,3.84-1.65,9.78,4.86,9.65,5.85-.11,5.07-5.63,5.3-9.77.84-14.69.84-14.65,14.72-15.9a38.39,38.39,0,0,0,7.44-1.45c2.58-.77,4.68-2.41,4.26-5.44s-2.84-4.12-5.5-4.28a112.13,112.13,0,0,0-12.7-.19c-6,.3-8.24-2.29-8.26-8.24,0-6.2,2.77-8.26,8.52-8,4.65.21,9.32.12,14,0,3.62-.13,7.08-1.28,7.34-5.46.27-4.35-3.16-5.76-6.78-5.84q-12.71-.28-25.43-.06c-5.94.1-7.93,3.83-7.88,9.28C816.08,753.55,816,761.6,816,769.65Zm221.35-481.14c-14.2-.14-16.67,11.48-21.77,19.75-4.46,7.23-.05,13.69,8.54,12.71,9.12-1.05,17.18-4.87,22.77-12.62,3-4.21,6.14-8.6,2.83-14C1046.74,289.51,1041.87,288.25,1037.38,288.51Zm130.5,507.66c-.19-4.15-2.34-7.36-6.52-7.71-4.43-.37-7,3-7.08,7.06s2.69,7.16,7.11,7.05C1165,802.48,1167.57,800.34,1167.88,796.17Z"/><path class="cls-2" d="M949.89,441.45c-13.41,12.61-28.52,18-46,16.3-6.25-.6-12.46-1.84-15.63-7.15-4.6-7.72-8.61-5.28-14.15-1.47-13.15,9.06-26.62,14.07-40.06.21-4.41-4.55-7.79-.53-11.08,1.73-11,7.55-23.25,7.57-35.63,6.22-8.5-.93-15.91-5.48-19.2-13.12-4.21-9.76-7.71-6.86-13.55-1.82-11.5,9.93-24.23,16.52-40.45,15.64-19.51-1.06-28.66-12-24.12-31.08,4.41-18.55,15.49-33.92,24.44-50.27,8.1-14.81,16.72-29.34,25.57-44.8-5.84-3-11-1.31-15.8-2-9.11-1.28-11.4-6.76-5.73-14.11,5.42-7,13.09-9.68,21.48-8.66,10.77,1.3,17.87-2.5,22.35-12.3a17.49,17.49,0,0,1,12.35-10.23c9.77-2.22,17.82,4.22,15.29,13.65-2.3,8.56,1.72,8.44,7.44,8.23a9.12,9.12,0,0,1,1.28,0c5.16.45,12.51-2.45,13.89,5.11S808.25,324,801.91,327.3s-13.38,2.11-20.09,2-11,2.24-14.31,8.25C754,362.09,739.75,386.28,726.43,411c-3.4,6.3-10.59,15.28-4.54,20.65,7.66,6.81,14.14-3.44,20.18-7.87,14.56-10.67,26-24.22,35.47-39.64,13.41-21.84,32.73-36.58,57-44.63,10.79-3.58,21.81-4.7,32.06,1.5,5.44,3.29,9.48,1,14.15-1.3,6-3,12.64-4.57,17.69,1,4.77,5.23.1,10.42-2.35,15.14C886.15,375,876,394.16,866,413.39c-1.46,2.8-5.19,6-2.08,9,3.52,3.4,7.46,0,10.18-2.19,10.6-8.62,20.08-18.4,27.06-30.26Q915,366.36,928.4,342.46c6.43-11.54,6.22-11.64-6.4-12.54-2.53-.18-5.37,0-7.48-1.12-4.72-2.46-7.12-6.1-3.11-11.29,5.91-7.63,13.53-11.72,23.25-10.54,10.06,1.22,17.24-2,21.48-11.55A18.5,18.5,0,0,1,967,285.13c9.76-3.49,18.7,2.21,17.5,12.42-1,8.83,3.37,8.81,9.48,8.95,4.72.11,11.34-2.53,13,4.37,1.6,6.55-3.32,11.13-8,14.87-6.21,4.91-13.81,3.85-20.92,3.54-7.56-.33-12.51,1.84-16.36,9-13.77,25.41-28.35,50.38-42.23,75.72-3.14,5.73-8.32,13.61-2,18.58,5.82,4.56,11.26-3,16.33-6.5,25.93-17.73,39.84-44.72,54.65-71,2.92-5.18,5.34-10.81,10.23-14.49,6.49-4.9,13.58-5.14,20-.26,6.63,5,2.53,10.61-.35,15.81-9.06,16.36-18.27,32.63-27.21,49.05A188.72,188.72,0,0,0,983,422.42c-1.5,3.57-2.47,7.69,1.47,10.38,3.34,2.28,6.71.18,9.44-1.7,17-11.68,32-25.37,42.17-43.51s23.42-33.34,42-43.21a68.87,68.87,0,0,1,15.37-6.06c29.62-7.42,50.81,12.7,45.37,42.82-1.28,7.12-2.55,14.23-5.49,20.91-.68,1.56-1.28,3.25-.06,4.78,1.77,2.22,3.86,1,5.73.18,8.78-3.89,16.23-9.32,20.33-18.38,6.13-13.55,12.17-27.14,18.31-40.68,3-6.56,5.21-13.46,14.78-13.38,9.19.08,15.44,3.42,18.27,12.83,6.3-2.59,11-7,17-9.27,15-5.63,28.44,2.2,30.24,18.33a30.87,30.87,0,0,1-3.33,17.29c-6.72,13.71-12.91,27.67-22.15,40.06-2.4,3.22-7.39,8.09-3.43,11.9s7.39-2.15,10.64-4.3c10-6.64,18.08-15.54,25.37-24.89,5.28-6.78,11.47-8.17,17.59-3.8,7,5,3.16,11-1.08,16.46-13.12,16.81-26.91,32.92-45.69,43.77-11.16,6.44-24.52,6.48-31.08.49-8.69-7.95-10.4-17.72-4.91-31.7,6.4-16.28,16.07-30.9,24.15-46.32,1.34-2.55,4.56-5.25,2.26-7.9-3.09-3.55-6.35.17-8.84,1.81-15,9.83-29.51,19.78-35.1,38.65-3.35,11.32-9.12,21.94-13.87,32.85a99.34,99.34,0,0,1-4.94,10.36c-4.83,8.38-12.41,10.32-20.82,6.92s-11.36-9.94-7.21-18.58c3-6.34.93-7.57-5.64-8.06-10.31-.77-18.67,1.23-26.58,8.47-12.58,11.51-27.48,18.34-45.15,17.46-11.5-.58-21-5.13-25.87-15.66-4.07-8.78-7.43-8.18-13.62-2.17-10.2,9.9-21.65,17.51-36.75,18.39C968.31,458.75,956.21,457.67,949.89,441.45ZM793.27,416.1c-.78,15.94,6.3,21,18.22,14.77,15.83-8.28,27.17-21.44,36-36.76,4.45-7.74,8.39-15.85,9.35-24.86,1.32-12.32-6-17.73-17.27-12.57a59.51,59.51,0,0,0-14.7,9.9C809.1,380.75,797.21,397.43,793.27,416.1Zm262.47-5c-.22,15.66,7.7,21.31,22.83,16.26,16.71-5.56,35.2-30.36,35.4-47.47.17-13.81-9.28-20.38-23.15-16.09C1073.16,369.21,1056,392.34,1055.74,411.06Z"/><path class="cls-2" d="M714,178.64a73.77,73.77,0,0,1,32.12,5.7c17.15,6.92,23.58,17.95,20.5,36.13-4.7,27.82-20.06,50.27-37.26,71.5-10.13,12.49-20.64,24.84-34.05,34.21-4.57,3.19-9.18,6.46-14.61,7.54-7.06,1.42-12.44-1.76-15.68-8.14s1.87-9.29,5.88-12.25c23.89-17.67,42.91-39.72,58.84-64.63A79.58,79.58,0,0,0,740,225.47c3-11.93-.59-18.55-12.51-22.19-15.76-4.81-30.79-1-44.13,6.87-29.89,17.6-53.72,41.51-68.83,73.16-8.3,17.39-5.61,31.36,7.61,45.52,7.88,8.43,17.38,14.92,26.45,21.93,18.45,14.26,32,30.73,26.07,56.29-6.4,27.4-24.64,43-50.93,49.59-20.65,5.17-40.57,1.44-58.89-9.29-27.58-16.16-34.32-58.78-12.83-79.51,5.61-5.42,11.62-9.22,19-3.15,6.88,5.68,9.68,12.82,6,21.5a19.46,19.46,0,0,1-3.62,5.2c-7.12,8-6.28,16-.56,24.33,13.34,19.49,48.72,21.86,64.27,4.19,11.61-13.19,11.13-29-1.26-42.42-9-9.78-20.64-16.29-31-24.35-21.54-16.72-29.35-38.48-20.39-64.22,15.55-44.66,42.75-79.77,86.24-100.72A93.41,93.41,0,0,1,714,178.64Z"/><path class="cls-3" d="M954.86,599c0-16.58.28-33.18-.13-49.75-.16-6.53,1.63-9.25,8.49-9.12,17.44.34,34.91-.45,52.32.33,25.17,1.13,40.72,24,32.54,47.67-1.92,5.55-1.89,8.94,2,13.53,9.77,11.5,10.91,25,4.67,38.26-6.12,13-17.56,19.43-31.93,19.63-19.57.28-39.14-.23-58.7.25-7.67.19-9.28-2.9-9.13-9.76.37-17,.12-34,.12-51Zm48.73,37.5v0c5.92,0,11.85-.16,17.77,0,8.2.29,13.4-3.7,13.76-11.57.39-8.6-5.1-13.1-13.6-13.33-10.15-.27-20.31-.33-30.47-.27-14,.08-13.81.47-13.7,14.32.07,8.08,2.5,11.83,11,10.94C993.39,636.08,998.51,636.51,1003.59,636.51Zm-2.45-48.23v0c3.79,0,7.59-.07,11.38,0,8.41.19,14.4-3.06,14.32-12.11-.08-8.62-5.44-12.78-14-12.76-6.75,0-13.5,0-20.25,0-16.29,0-15.93,0-14.56,16.25.55,6.5,2.82,9.08,9.22,8.64C991.84,588,996.5,588.28,1001.14,588.28Z"/><path class="cls-3" d="M1472.62,599.24c6.3-16.56,12.54-33.16,19-49.68,1.28-3.29.93-8.57,6.12-8.42,4.26.12,4.23,4.84,5.4,7.8,5.31,13.45,10.29,27,15.56,40.49,1.34,3.4,1.24,7.76,7.23,10.34,6.06-15.73,12.3-31.33,18.09-47.1,4.25-11.58,12.79-16.13,24.28-12.2,6.19,2.12,2.6,6.07,1.42,9.17-11.75,31-23.45,62-35.66,92.85-2.37,6-1.79,16.46-9.22,16.58-8.56.14-7.38-10.93-10.19-17-6-12.9-10.54-26.44-15.68-39.72l-3,.19c-6,15.68-11.84,31.42-18,47-1.47,3.69-1.27,9.6-6.54,9.88-6.23.32-6.27-6.12-7.83-10.13-13-33.27-25.39-66.74-38.65-99.88-3.25-8.11-1.12-8.89,6.41-9.47,10.84-.85,17,2.06,20.38,13.32,4.73,15.68,11.49,30.74,17.38,46.07Z"/><path class="cls-3" d="M712.25,599.35c0-16.59.41-33.19-.18-49.75-.27-7.56,2.46-9.68,9.45-9.46,11.9.37,23.83-.1,35.73.24,32.26.94,57.5,26,58.4,57.58.91,32.31-22,58.63-54.26,61.31-13.52,1.12-27.21.05-40.81.51-7.26.24-8.31-3.35-8.22-9.4.26-17,.09-34,.09-51Zm23.42-.8h.13c0,5.5,0,11,0,16.5,0,23.53.42,23.93,24.11,21.26,22.61-2.55,36.67-22.35,31.64-44.53-4.47-19.72-18.6-28.41-44.55-28.54-8.49,0-12.54,1.73-11.51,11.21C736.35,582.39,735.67,590.51,735.67,598.55Z"/><path class="cls-3" d="M1214.72,659.3c-8.94.71-15.63,1-22.25,1.85-4.42.55-5.66-2.35-7.47-5.27-4.46-7.2-9.15-14.28-13.81-21.36-2.35-3.57-4.8-6.52-9.82-7-12.77-1.33-14.79.25-14.45,13.18,0,1.27.09,2.55.11,3.82.3,16.23-1.3,17.51-17,15.3-4.14-.59-6.08-1.87-6.09-6.17q-.12-53.46-.42-106.92c0-5.18,2.74-6.47,7.22-6.42,14,.16,28.1-.82,42,.55,16.94,1.67,29.23,11.43,35.17,27.48,6.26,16.89,3.84,33.21-9.28,45.87-6.82,6.57-6.89,11.07-1.78,18C1202.85,640.36,1208.06,649.11,1214.72,659.3Zm-67.68-76c0,4.23.24,8.48,0,12.7-.45,6.49,2.18,9.42,8.81,8.93,5.87-.43,11.84.62,17.63-1.38,10-3.44,15-10.93,14.06-21.42-.84-9.77-7.91-17.12-17.84-18.55C1148.25,560.51,1146.88,561.71,1147,583.32Z"/><path class="cls-3" d="M383.46,596.66c1-34,32.75-56.44,57.32-56.31,34.51.18,61.88,25.47,61.68,59.51-.21,35.34-24.59,57.21-58,60.83C417.34,663.62,380.63,635.13,383.46,596.66Zm23.26,3.5c0,20.51,15.72,36.32,36.13,36.25,20.59-.08,36.56-15.69,36.76-36a36.69,36.69,0,0,0-37.22-37C422.18,563.61,406.76,579.47,406.72,600.16Z"/><path class="cls-3" d="M1281.5,598.91c0-16.56.3-33.12-.15-49.67-.18-6.59,1.71-9.14,8.48-9.07,23.77.24,47.56.35,71.33,0,11.16-.18,7.55,7.62,8.08,13.23.56,6,.14,10.76-8.34,10.44-15.69-.6-31.42,0-47.12-.47-7.19-.2-9.51,2.42-9.54,9.56-.15,27.51-.35,27.51,27.66,27.53h7.64c12.84,0,17.14,6.36,13.35,19-1.44,4.76-4.83,4-8.05,4-10.19,0-20.38-.12-30.57-.17-4.69,0-9.83-.65-10.13,6.35-.33,8,5.53,7.15,10.55,7.15,15.29,0,30.6.39,45.85-.36,10.8-.52,8.53,6.46,8.72,12.54s.87,11.62-8.68,11.32c-22.49-.71-45-.77-67.5-.35-8.64.17-12-2.05-11.59-11.28.73-16.52.21-33.1.21-49.66Z"/><path class="cls-3" d="M289.3,659.36c-26.56-.33-50.57-19.24-56.87-44.82-6.44-26.09,6.07-54.21,29.92-67.26,22.6-12.36,52.59-7.76,70.46,11,3.6,3.77,9.64,8.29,1.72,13-5.25,3.1-9,13.15-18.37,3.15-15-15.92-37.91-14.56-53.18,1.25-12.55,13-11.91,35.65,1.42,49.87,13.51,14.41,36.16,15.34,51.23.31,10.06-10,14.05.1,19.53,4,8,5.67.25,9.72-3.07,12.9C320.23,654.07,305.82,659.61,289.3,659.36Z"/><path class="cls-3" d="M584.67,588.06c0,12.74.32,25.49-.12,38.21-.26,7.65,2.36,10.59,10.21,10.36,15.27-.44,30.58.24,45.86-.2,12.28-.35,7.33,8.58,8.3,14.26,1.19,7-1.51,9.67-9.07,9.48-22.92-.59-45.86-.63-68.79-.39-7,.08-9.67-1.78-9.62-9.22.27-34,.27-67.94-.22-101.9-.13-8.52,4.42-8.89,10.38-8.39,5.7.47,13.52-2.82,13.08,8.3-.53,13.14-.13,26.32-.13,39.49Z"/><path class="cls-2" d="M709.94,735.21c17.43.18,31.55,15,31.62,33.27.06,18.56-14.89,33.68-32.94,33.31-17.61-.36-31.93-15.42-31.78-33.43C677,749.41,691.35,735,709.94,735.21Zm19.91,33.49c.12-13.07-8.55-23-20.08-23-11.76,0-21,9.58-21.43,22s10,23.63,21.72,23.37C720.05,790.92,729.75,779.93,729.85,768.7Z"/><path class="cls-2" d="M1110.93,735.21c17.32.38,32,16.13,31.28,33.65-.75,19-15.51,33.44-33.6,32.89-17.53-.54-31.69-15.93-31.15-33.87C1078,748.73,1092.3,734.81,1110.93,735.21Zm19.58,33.49c.1-13.32-8.1-22.63-20.18-22.94-12.42-.31-21.55,9.63-21.3,23.2.2,11.25,10,21.92,20.32,22.23C1120.07,791.5,1130.43,780.5,1130.51,768.7Z"/><path class="cls-2" d="M926.92,768.37c0-6.79.16-13.59,0-20.38-.22-7.78,2.87-12.08,11.13-11.92,7.64.16,15.28,0,22.92.14,3.61.07,7.13,1.12,7.19,5.49s-3.08,5.73-6.86,5.83c-5.1.13-10.2.25-15.29.09-5.37-.17-7.61,2.15-7.67,7.56-.06,5.62,1.51,9,7.86,8.66,3.81-.21,7.64,0,11.46.14,3.19.11,6,.9,6.14,4.84s-2.62,5-5.77,5.42a65,65,0,0,1-10.1,1c-5.95-.15-9.79,1.14-9.55,8.36s4.68,8.05,10.26,8c4.24,0,8.49,0,12.73.13,3.15.12,6.16,1.11,6.46,4.77.3,3.89-2.8,5.09-5.88,5.16-9.33.2-18.68.31-28,0-5.54-.17-6.72-4.64-6.85-9.07-.22-8.06-.06-16.13-.06-24.19Z"/><path class="cls-2" d="M872.2,769.4c0-6.79.46-13.62-.11-20.36-.87-10.27,3.78-13.76,13.47-13,6.76.51,13.58.07,20.36.3,3.1.1,6.15,1.16,6.47,4.83.37,4.3-2.62,6.09-6.34,6.3-5.5.31-11,.25-16.55.23-4.73,0-7,2.09-6.85,6.93.12,4.54.51,8.75,6.37,9.06,3.81.21,7.64.11,11.45.22s8.56.09,8.37,5.34c-.17,4.54-4.31,5.84-8.42,6-3,.12-5.94.18-8.91.06-5.38-.23-8.89,1-8.93,7.6-.05,6.91,3.39,8.88,9.49,8.7,4.66-.14,9.33,0,14,.12,3.07.1,6.19.61,6.24,4.66a4.89,4.89,0,0,1-4.79,5c-10.17.29-20.35.41-30.5,0-4.23-.2-4.75-4.19-4.76-7.76q0-12.11,0-24.19Z"/><path class="cls-2" d="M1041.6,735.19c6.43,0,12.78.37,18.33,4.17,2.78,1.91,6.42,3.86,4.85,7.88-1.87,4.77-5.9,3.89-9.69,2.23s-7.62-3.69-12.06-3.7c-14.07,0-23.59,9.27-23.42,23,.16,12.93,9.43,21.47,23.32,21.25a34.67,34.67,0,0,0,8.77-1.27c4.42-1.24,9.64-7.65,12.89-.34s-4.83,8.76-9.28,10.87c-12.16,5.77-27.84,2.42-37.66-7.34a32.71,32.71,0,0,1-7.53-35.23C1015.79,742.65,1026.57,735.29,1041.6,735.19Z"/><path class="cls-2" d="M642.19,801.81c-15.93-.11-27.68-8.26-33.16-22.43-4.63-12-.66-27,9.49-35.93,9.77-8.57,27-11.08,38.3-5.36,4.07,2.07,9.74,4.39,7.09,10.08-2.53,5.46-7.27,1.55-11.07.24-16.18-5.58-30.6.73-33.55,14.68-3.63,17.1,10.55,30.21,28.72,26.44a40.34,40.34,0,0,0,7.11-2.69c3.23-1.37,6.74-2.94,8.9,1.13,2.47,4.65-1.15,7-4.51,9C653.94,800.28,648,802.44,642.19,801.81Z"/><path class="cls-2" d="M758.51,768.11V763c0-26.56,9.08-33.37,35.67-26.73,3.18.79,5.71,2,5.61,5.71s-2.7,5.22-5.93,5.4c-5.08.28-10.2.41-15.28.21-5.73-.23-8.7,1.67-8.52,8,.18,6,3,8.41,8.69,8.29,3.82-.09,7.65-.11,11.46.11,3.1.19,6.17,1.12,6.33,4.89a4.82,4.82,0,0,1-4.76,5.08c-16.39-.93-25.28,4.84-22.3,22.87.43,2.59-2.68,4.54-5.33,4.38-3.54-.23-5-3.29-5.12-6.34-.25-8.91-.09-17.82-.09-26.73Z"/><path class="cls-2" d="M816,769.65c0-8,.05-16.1,0-24.15,0-5.45,1.94-9.18,7.88-9.28q12.72-.22,25.43.06c3.62.08,7,1.49,6.78,5.84-.26,4.18-3.72,5.33-7.34,5.46-4.66.17-9.33.26-14,0-5.75-.25-8.55,1.81-8.52,8,0,6,2.26,8.54,8.26,8.24a112.13,112.13,0,0,1,12.7.19c2.66.16,5.09,1.31,5.5,4.28s-1.68,4.67-4.26,5.44a38.39,38.39,0,0,1-7.44,1.45c-13.88,1.25-13.88,1.21-14.72,15.9-.23,4.14.55,9.66-5.3,9.77-6.51.13-4.71-5.81-4.86-9.65-.27-7.19-.08-14.4-.08-21.61Z"/><path class="cls-2" d="M1037.38,288.51c4.49-.26,9.36,1,12.37,5.87,3.31,5.37.2,9.76-2.83,14-5.59,7.75-13.65,11.57-22.77,12.62-8.59,1-13-5.48-8.54-12.71C1020.71,300,1023.18,288.37,1037.38,288.51Z"/><path class="cls-2" d="M1167.88,796.17c-.31,4.17-2.85,6.31-6.49,6.4-4.42.11-7.15-2.89-7.11-7.05s2.65-7.43,7.08-7.06C1165.54,788.81,1167.69,792,1167.88,796.17Z"/><path class="cls-1" d="M793.27,416.1c3.94-18.67,15.83-35.35,31.58-49.52a59.51,59.51,0,0,1,14.7-9.9c11.32-5.16,18.59.25,17.27,12.57-1,9-4.9,17.12-9.35,24.86-8.81,15.32-20.15,28.48-36,36.76C799.57,437.1,792.49,432,793.27,416.1Z"/><path class="cls-1" d="M1055.74,411.06c.27-18.72,17.42-41.85,35.08-47.3,13.87-4.29,23.32,2.28,23.15,16.09-.2,17.11-18.69,41.91-35.4,47.47C1063.44,432.37,1055.52,426.72,1055.74,411.06Z"/><path class="cls-1" d="M1003.59,636.51c-5.08,0-10.2-.43-15.23.1-8.51.89-10.94-2.86-11-10.94-.11-13.85-.26-14.24,13.7-14.32,10.16-.06,20.32,0,30.47.27,8.5.23,14,4.73,13.6,13.33-.36,7.87-5.56,11.86-13.76,11.57-5.92-.2-11.85,0-17.77,0Z"/><path class="cls-1" d="M1001.14,588.28c-4.64,0-9.3-.26-13.92.06-6.4.44-8.67-2.14-9.22-8.64-1.37-16.25-1.73-16.22,14.56-16.25,6.75,0,13.5,0,20.25,0,8.59,0,14,4.14,14,12.76.08,9-5.91,12.3-14.32,12.11-3.79-.09-7.59,0-11.38,0Z"/><path class="cls-1" d="M735.67,598.55c0-8,.68-16.16-.18-24.1-1-9.48,3-11.25,11.51-11.21,26,.13,40.08,8.82,44.55,28.54,5,22.18-9,42-31.64,44.53-23.69,2.67-24.14,2.27-24.11-21.26,0-5.5,0-11,0-16.5Z"/><path class="cls-1" d="M1147.05,583.32c-.17-21.61,1.2-22.81,22.6-19.72,9.93,1.43,17,8.78,17.84,18.55.9,10.49-4.07,18-14.06,21.42-5.79,2-11.76.95-17.63,1.38-6.63.49-9.26-2.44-8.81-8.93C1147.28,591.8,1147,587.55,1147.05,583.32Z"/><path class="cls-1" d="M406.72,600.16c0-20.69,15.46-36.55,35.67-36.66a36.69,36.69,0,0,1,37.22,37c-.2,20.27-16.17,35.88-36.76,36C422.44,636.48,406.68,620.67,406.72,600.16Z"/><path class="cls-1" d="M729.85,768.7c-.1,11.23-9.8,22.22-19.79,22.44-11.68.26-22.09-10.95-21.72-23.37s9.67-22,21.43-22C721.3,745.71,730,755.63,729.85,768.7Z"/><path class="cls-1" d="M1130.51,768.7c-.08,11.8-10.44,22.8-21.16,22.49-10.36-.31-20.12-11-20.32-22.23-.25-13.57,8.88-23.51,21.3-23.2C1122.41,746.07,1130.61,755.38,1130.51,768.7Z"/></g></g></g></svg>