<svg xmlns="http://www.w3.org/2000/svg" viewBox="0 0 133.56 152.06"><defs><style>.cls-1{fill:#8ac12f;}.cls-2{fill:#509130;}.cls-3{fill:#89c242;}.cls-4{fill:#84c01e;}.cls-5{fill:#87c008;}.cls-6{fill:#f4f5de;}.cls-7{fill:#fafcf6;}</style></defs><title>lQ6ZwW.tif</title><g id="Layer_2" data-name="Layer 2"><g id="Layer_1-2" data-name="Layer 1"><g id="lQ6ZwW.tif"><path class="cls-1" d="M20.58,40.26l5.92-2c.31,1.82,1.74,2.25,3.23,2.49.24,0,.59-.53.9-.82l-2.45-2.07c3.87-2.17,3.23-6.31,4.27-9.71a2.88,2.88,0,0,1,.87-.19l1,3.13,1-.6L33.31,28l1.14-4.89.81-1.51.3.09.3,0,.6.52c0,1.92,1.37,1.92,2.74,1.86-4.63,9.54-1.81,12,7.67,8.06.13-.06.32,0,.49,0,.13,1.23.7,2.11,2,2.13.23,0,.71-.64.66-.91-.28-1.57-1.63-1.09-2.63-1.25l1.88-2,5.2-1.1,1.75.11c1.27,1.38,1.7.48,2-.74C62.08,26,68,27.65,70.17,22.07c.62-.13,1.76-.22,1.78-.4.1-1.3-.93-1.42-1.91-1.51-.36-2.29-.71-4.58-1.07-6.87L71.62,17c.22-2,.43-3.95.64-5.92,1.82,2.16,1.57,4.88,2,7.42.24,1.43-1,3.79,1.42,4A8.62,8.62,0,0,0,80.77,21c2.08-1.4-.15-2.86-.59-4.22-1-3.13-3.49-5.09-6.05-6.93.41-.82.59-1.6-.69-1.59A4.15,4.15,0,0,0,72,8.85l1.1.89-.84,1.31c-1.58.69-2.7-3.08-4.47-.46l-1.54-.35c-.89-.82,3.21-3.37-1-3l-1-2.07,4.6-.7.32-.29c9.22.69,14.62,5.84,17,14.55.45,1.49,1.69,1.37,2.85,1.4l1.49,1.06c.17-.68.35-1.36.52-2,0-.29,0-.58,0-.88l1.88,0,0,2A17.24,17.24,0,0,0,92.05,24Q92,83.06,92,142.15c0,2.07.72,4.34-1,6.19l-2,.51,1,1.48-4.54.17c-25.37-4.22-50.68-8.83-76.14-12.44-8-1.14-10.67-3.46-8.71-11.56,1.84-7.65,2.47-15.6,3.63-23.41.21,1.1.43,2.2.64,3.3.2-.17.55-.31.59-.51.24-1.33.15-2.58-1.14-3.42,0-.6.1-1.19.14-1.79.13-.09.37-.18.36-.27a3.36,3.36,0,0,0-.19-.74c2.25-18.1,4.48-36.21,6.82-54.29.12-.93,1.23-1.73,1.87-2.58-.2,2.07-.44,4.13-.6,6.2-.07.88.52,2.61.84,2.07,1.07-1.82,1.31-4.13,2-6.22.75-2.35-1.21-1.66-2.2-2.07,1.34-1.53,3.14-1.88,5-2,1,1.44,2.39,1.21,3.79,1ZM55.26,79.74l-.36-.21.35.22.87,2.11c-2.47-1.5-5-2.9-7.39-4.53s-3.92-4.06-2.94-7.11c.9-2.81,2.79-4.7,6.06-4.53,1.89,1.73,4.22,1,6.39,1.13.83.29,1.67.59,2.51.85a3.73,3.73,0,0,0,.28-.59l-2.79-.26L52,65.63c1.27-.24,2.74-1,3.78-.64C66.81,69,68.3,61.5,69.63,53.7a2.84,2.84,0,0,1,.15-.47c1.28-3.61-.17-5.09-3.81-5.49-6.34-.69-12.46.45-18.59,1.65l-1.09-2.91c-.47.34-1.28.63-1.34,1-.23,1.66,1.4,1.39,2.26,1.93l-8.82,5.49c-.16-1.41-.65-2.61-2.26-2.8-.26,0-.58.49-.88.76l3.15,2c-6.59,6.58-9.24,14.67-9,23.84l-1.91-3a7.53,7.53,0,0,0-.08,7.93c2.19-.09,1.85-1.9,2.2-3.24l2.59,6.3c-1,.21-1.83.55-1.49,1.82.06.23.4.39.61.59l1.24-1.71,6.17,6.05c-.7.51-1.42,1-2.07,1.57a6.45,6.45,0,0,0,.64,1.06l2.35-1.9c4.64,3.38,11.57,5.63,6.84,13.7-1.16-.84,1.69-4.37-2.25-3.33-3.27-.68-1.3,2-1.87,3l1.09,2.08c-2.68,1.71-4.94.21-7.24-1,.21-2.2-1.42-.62-2.09-1-1.57-.06-3-.46-3.74-2,1.51-.34,2.32-1.19,1.77-2.79-.09-.26-.73-.33-1.12-.49l-.66,3.27c-2.13-.85-3.22-.18-3.67,2.12-.53,2.64-1.37,5.22-2.08,7.83l-2.12-.08c-.35-1.92-.68-3.84-1.05-5.75-.13-.74-.11-1.92-1.27-1.36-.47.23-.47,1.42-.68,2.17a3.42,3.42,0,0,0,0,4.92l3,0c.54,1.09-1.43,4,2.11,2.91,12.87,9.77,25.76,10.14,37.63,1.09l1,2.48c.59-.44,1.5-.76,1.71-1.33.52-1.44-.49-2-1.75-2.19,6.28-10.21,6.95-20.4-.15-30.55.69-.57,1.92-1.12,2-1.71,0-1.3-1-.66-1.72-.47-.86-2-2.52-2.14-4.35-1.92l-2.77-2,1.59-1.29ZM66.12,44.89a7.6,7.6,0,0,0-7.87,0l8.85,1.66Zm4.07,62.69a20.7,20.7,0,0,0,.9-11.29c0-.16-.91-.34-1-.26-1.79,3.21-.62,6.72-.95,10.08,0,.49,0,1,0,1.47l.31,1.89Zm-55.62,27,2.8-1.64a14.64,14.64,0,0,0-3.1-.47,6.58,6.58,0,0,0-2.83.83C11.61,135,13.1,134.13,14.57,134.59Zm59.77-29.24c-.24-1.6-.44-3-.65-4.45-.18,1.7-.48,3.4-.52,5.1a36.65,36.65,0,0,0,.41,4.28Zm-58,30.81-1.68.77a12.89,12.89,0,0,0,2.09.92c.34.1.8-.22,1.2-.35Zm12.25-12.41a6.82,6.82,0,0,0-1.46-1c-.2-.07-.6.44-.91.68l1.37,1.52ZM10.74,112.23l-.8-2.41a12.84,12.84,0,0,0-.35,2.28,12.58,12.58,0,0,0,.41,2.24Zm72-98c-.56.46-1.19.86-1.15,1a4.53,4.53,0,0,0,1,1.44c.09.08,1-.48,1-.59A9.94,9.94,0,0,0,82.7,14.26Zm-57.92,95-.72-1a6.07,6.07,0,0,0-.54,1.73,3.77,3.77,0,0,0,.57,1.4ZM28.57,70l-.48-1.91A7.58,7.58,0,0,0,27.48,70a5.41,5.41,0,0,0,.47,1.7Zm19.27.16a7,7,0,0,0-.46,1.93c0,.32.47.62.74.92a4.86,4.86,0,0,0,.81-1.47C49,71.23,48.43,70.85,47.84,70.13Zm2,73c-1-.47-1.29-.76-1.6-.75a12.06,12.06,0,0,0-1.77.28c.28.21.55.57.85.6A16.7,16.7,0,0,0,49.89,143.16Zm-10.21-2.91-1.11.8a3.73,3.73,0,0,0,1.3.29,4.71,4.71,0,0,0,1.31-.61ZM30.34,63.83a3.92,3.92,0,0,0-1.27-.43c-.17,0-.5.53-.44.73s.45.61.69.9ZM71.88,52.32c-.11.28-.35.58-.28.77s.46.24.71.35c.11-.25.36-.55.29-.74S72.15,52.45,71.88,52.32Zm9.46,95.39a7.12,7.12,0,0,0-1.51-.3c-.27,0-.54.28-.8.43a5.68,5.68,0,0,0,1.31.41C80.59,148.26,80.87,148,81.34,147.71ZM7,89.42,6.76,90.5a2.61,2.61,0,0,0,.62,0s.1-.29,0-.42A5.1,5.1,0,0,0,7,89.42Zm45.48-43a4.67,4.67,0,0,0-.76-.4c-.11,0-.27.09-.41.15.11.2.22.56.32.56A3,3,0,0,0,52.46,46.46ZM84.8,19.1a3.46,3.46,0,0,0-.74-.23c-.08,0-.28.27-.26.32a2.88,2.88,0,0,0,.43.56ZM32.66,139.5l-.18.65c.14,0,.33.16.43.11a3.75,3.75,0,0,0,.6-.47ZM68.4,27.16a3.66,3.66,0,0,0-.17.67s.31.16.41.11a4,4,0,0,0,.61-.48ZM35.12,97.65l-.19-.34c-.08.09-.23.19-.24.29s.11.23.18.35Z"/><path class="cls-2" d="M92.88,20.23l0-2c2.73,0,4,2.21,5.35,3.88,3.71,4.51,8,7.09,14.06,6,3.5-.63,4.9,1,5.4,4.48q7.73,53.38,15.72,106.74c.29,1.93.22,3-2,3.52-12.82,3-25.61,6.16-38.41,9.26Z"/><path class="cls-3" d="M92.88,20.23,93,152.06l-7.56-1.56,4.54-.17,1-2c1.67-1.85,1-4.12,1-6.19Q92,83.05,92.05,24A17.24,17.24,0,0,1,92.88,20.23Z"/><path class="cls-1" d="M38.64,15.21q3.26-3.68,6.52-7.33l3.12,2.85-8.8,12.6-.82-2.62-2.2,1.43-.6-.52c0-.43-.12-.87-.18-1.3L36.34,19Q37.48,17.09,38.64,15.21Z"/><path class="cls-3" d="M64.25,5.14l1,2.07-3.09.86c1-4-2.34-2.3-3.88-3,.67-1.63,4.71-.21,3.39-3-1.08-2.25-3.54.11-5.4.11l-2.94,1-.92-.7c6-3.73,11.63-3.48,16.8,1.61l-.32.29C67.25,4.2,65.59,3.64,64.25,5.14Z"/><path class="cls-4" d="M52.37,2.54l.92.7c0,.63,0,1.26,0,1.88l-1,2.32L52,7.55l-1.73,1.5-2,1.68L45.16,7.88l4.13-3.7,1-.74Z"/><path class="cls-5" d="M28.18,37.86l2.45,2.07c-.31.29-.66.86-.9.82-1.49-.24-2.92-.67-3.23-2.49Z"/><path class="cls-6" d="M33.32,28a2.88,2.88,0,0,0-.87.19c-.07-2-.37-4.06,2-5.09L33.31,28Z"/><path class="cls-5" d="M20.58,40.26l1.61,1.6c-1.4.16-2.83.39-3.79-1Z"/><path class="cls-5" d="M4.34,102.46c1.29.84,1.38,2.09,1.14,3.42,0,.2-.39.34-.59.51-.21-1.1-.43-2.2-.64-3.3A.48.48,0,0,1,4.34,102.46Z"/><path class="cls-6" d="M38.64,15.21q-1.16,1.88-2.3,3.77Q37.48,17.09,38.64,15.21Z"/><path class="cls-5" d="M91,19.12c-.17.68-.35,1.36-.52,2L89,20.1c0-.37,0-.74-.05-1.11a.62.62,0,0,1,.65-.25Z"/><path class="cls-3" d="M89,19c0,.37,0,.74.05,1.11-1.17,0-2.41.09-2.86-1.4Z"/><path class="cls-6" d="M35.68,20.32c.06.43.13.87.18,1.3l-.3,0-.3-.09Z"/><path class="cls-5" d="M4.65,99.66a3.36,3.36,0,0,1,.19.74c0,.09-.23.18-.36.27C4.54,100.33,4.6,100,4.65,99.66Z"/><path class="cls-3" d="M91,19.12l-1.4-.38,1.42-.5C91,18.54,91,18.83,91,19.12Z"/><path class="cls-3" d="M50.33,3.44l-1,.74Z"/><path class="cls-7" d="M29.37,78.76c-.21-9.17,2.44-17.26,9-23.84h0l8.82-5.49.17,0c6.13-1.2,12.25-2.34,18.59-1.65,3.64.4,5.09,1.88,3.81,5.49a2.84,2.84,0,0,0-.15.47C68.3,61.5,66.81,69,55.75,65c-1-.38-2.51.4-3.78.64l-.12.06c-3.27-.17-5.16,1.72-6.06,4.53-1,3,.47,5.43,2.94,7.11s4.92,3,7.4,4.53h0l2.77,2,3.22,2.92L63,87.88l0,.06c7.1,10.15,6.43,20.34.15,30.55l-.91,1c-11.87,9.05-24.76,8.68-37.63-1.09,0-.94,0-1.88,0-2.83.71-2.61,1.55-5.19,2.08-7.83.45-2.3,1.54-3,3.67-2.12h0c.78,1.55,2.17,2,3.74,2l2.09,1c2.3,1.17,4.56,2.67,7.24,1l3-1.72c4.73-8.07-2.2-10.32-6.84-13.7-.3-.25-.61-.49-.92-.73l-6.17-6.05a.72.72,0,0,0-.36-.7q-1.29-3.15-2.59-6.3Z"/><path class="cls-3" d="M55.29,25.09c-.26,1.29-.53,2.57-.79,3.85L49.3,30c.31-1.34.63-2.69.94-4l1,.95c.71-1.26,1.65-2.52.11-3.85l.85-2,2,0Z"/><path class="cls-4" d="M69.18,107.58c0-.49,0-1,0-1.47.33-3.36-.84-6.87.95-10.08.05-.08.93.1,1,.26a20.7,20.7,0,0,1-.9,11.29Z"/><path class="cls-5" d="M63.25,12.3,61.87,14c-3.87.24,0-3.4-2-4.08l.12,0,1.1-1L61,9l1.15-.9h0l3.09-.86c4.25-.34.15,2.21,1,3l0,0-1.91,1.15,0-.06Z"/><path class="cls-4" d="M19.48,110.59c.21-.75.21-1.94.68-2.17,1.16-.56,1.14.62,1.27,1.36.37,1.91.7,3.83,1.05,5.75h0l-3,0Z"/><path class="cls-5" d="M68.16,11.12a.58.58,0,0,1-.37-.53c1.77-2.62,2.89,1.15,4.47.46h0c-.21,2-.42,3.95-.64,5.92L69,13.29l0,0C68.73,12.55,68.45,11.84,68.16,11.12Z"/><path class="cls-4" d="M13.36,42.77c1,.41,2.95-.28,2.2,2.07-.67,2.09-.91,4.4-2,6.22-.32.54-.91-1.19-.84-2.07.16-2.07.4-4.13.6-6.2l.19.16Z"/><path class="cls-5" d="M46.46,107.94l-3,1.72c-.36-.7-.73-1.39-1.09-2.08,2-.15,2-1.52,1.87-3C48.15,103.57,45.3,107.1,46.46,107.94Z"/><path class="cls-4" d="M14.57,134.59c-1.47-.46-3,.41-3.13-1.28a6.58,6.58,0,0,1,2.83-.83,14.64,14.64,0,0,1,3.1.47Z"/><path class="cls-5" d="M29.37,78.76l.21,1.7c-.35,1.34,0,3.15-2.19,3.24,0-2.64,0-5.29.07-7.93Z"/><path class="cls-4" d="M74.34,105.35l-.76,4.93a36.65,36.65,0,0,1-.41-4.28c0-1.7.34-3.4.52-5.1C73.9,102.33,74.1,103.75,74.34,105.35Z"/><path class="cls-4" d="M62.22,119.53l.91-1c1.26.2,2.27.75,1.75,2.19-.21.57-1.12.89-1.71,1.33Z"/><path class="cls-5" d="M66.12,44.89l1,1.68-8.85-1.66Z"/><path class="cls-5" d="M39.48,23.33a.63.63,0,0,1-.28.67c-1.37.06-2.71.06-2.74-1.86l2.2-1.43Z"/><path class="cls-5" d="M30.35,105.66l.66-3.27c.39.16,1,.23,1.12.49.55,1.6-.26,2.45-1.77,2.79Z"/><path class="cls-5" d="M38.7,93.51c.31.24.62.48.92.73l-2.35,1.9a6.45,6.45,0,0,1-.64-1.06C37.28,94.5,38,94,38.7,93.51Z"/><path class="cls-4" d="M62.08,86.76l-3.22-2.92c1.83-.22,3.49,0,4.35,1.92,0,.31,0,.62,0,.93Z"/><path class="cls-3" d="M27.46,75.77c0,2.64-.05,5.29-.07,7.93A7.51,7.51,0,0,1,27.46,75.77Z"/><path class="cls-5" d="M38.4,54.92l-3.15-2c.3-.27.62-.79.88-.76,1.61.19,2.1,1.39,2.26,2.8Z"/><path class="cls-5" d="M47.38,49.39l-.17,0c-.86-.54-2.49-.27-2.26-1.93.06-.39.87-.68,1.34-1Z"/><path class="cls-3" d="M66.12,44.89l-7.87,0A7.6,7.6,0,0,1,66.12,44.89Z"/><path class="cls-5" d="M16.31,136.16l1.61,1.34c-.4.13-.86.45-1.2.35a12.89,12.89,0,0,1-2.09-.92Z"/><path class="cls-5" d="M47.42,32.08c1,.16,2.35-.32,2.63,1.25.05.27-.43.92-.66.91-1.33,0-1.9-.9-2-2.13Z"/><path class="cls-5" d="M28.56,123.75l-1,1.17-1.37-1.52c.31-.24.71-.75.91-.68A6.82,6.82,0,0,1,28.56,123.75Z"/><path class="cls-5" d="M24.6,115.61c0,1,0,1.89,0,2.83-3.54,1.1-1.57-1.82-2.11-2.91h0Z"/><path class="cls-4" d="M10.74,112.23,10,114.34a12.58,12.58,0,0,1-.41-2.24,12.84,12.84,0,0,1,.35-2.28Z"/><path class="cls-3" d="M44.21,104.61c.1,1.45.09,2.82-1.87,3C42.91,106.56,40.94,103.93,44.21,104.61Z"/><path class="cls-5" d="M82.7,14.26a9.94,9.94,0,0,1,.87,1.8c0,.11-.88.67-1,.59a4.53,4.53,0,0,1-1-1.44C81.51,15.12,82.14,14.72,82.7,14.26Z"/><path class="cls-5" d="M32.17,86.76a.72.72,0,0,1,.36.7l-1.24,1.71c-.21-.2-.55-.36-.61-.59C30.34,87.31,31.19,87,32.17,86.76Z"/><path class="cls-5" d="M33.31,28l1.93,2.54-1,.6-1-3.13Z"/><path class="cls-5" d="M24.78,109.24l-.69,2.12a3.77,3.77,0,0,1-.57-1.4,6.07,6.07,0,0,1,.54-1.73Z"/><path class="cls-5" d="M58.24,66.82c-2.17-.15-4.5.6-6.39-1.13l.12-.06,6.27,1.19Z"/><path class="cls-4" d="M28.57,70,28,71.67a5.41,5.41,0,0,1-.47-1.7,7.58,7.58,0,0,1,.61-1.91Z"/><path class="cls-5" d="M47.84,70.13c.59.72,1.14,1.1,1.09,1.38A4.86,4.86,0,0,1,48.12,73c-.27-.3-.72-.6-.74-.92A7,7,0,0,1,47.84,70.13Z"/><path class="cls-5" d="M49.89,143.16a16.7,16.7,0,0,1-2.52.13c-.3,0-.57-.39-.85-.6a12.06,12.06,0,0,1,1.77-.28C48.6,142.4,48.92,142.69,49.89,143.16Z"/><path class="cls-5" d="M39.68,140.25l1.5.48a4.71,4.71,0,0,1-1.31.61,3.73,3.73,0,0,1-1.3-.29Z"/><path class="cls-5" d="M70.17,22.07,70,20.16c1,.09,2,.21,1.91,1.51C71.93,21.85,70.79,21.94,70.17,22.07Z"/><path class="cls-5" d="M64.25,5.14c1.34-1.5,3-.94,4.6-.7Z"/><path class="cls-3" d="M19.48,110.59l0,4.92A3.42,3.42,0,0,1,19.48,110.59Z"/><path class="cls-5" d="M30.34,63.83l-1,1.2c-.24-.29-.59-.56-.69-.9s.27-.73.44-.73A3.92,3.92,0,0,1,30.34,63.83Z"/><path class="cls-5" d="M74.13,9.8l-1-.06L72,8.85a4.15,4.15,0,0,1,1.44-.64C74.72,8.2,74.54,9,74.13,9.8Z"/><path class="cls-5" d="M63.22,86.69c0-.31,0-.62,0-.93.7-.19,1.77-.83,1.72.47,0,.59-1.26,1.14-2,1.71l0-.06Z"/><path class="cls-5" d="M55.26,79.74l2.42.82-1.59,1.29h0c-.3-.7-.59-1.41-.88-2.11Z"/><path class="cls-5" d="M91,148.34l-1,2c-.34-.49-.68-1-1-1.48Z"/><path class="cls-5" d="M58.24,66.82l2.79.26a3.73,3.73,0,0,1-.28.59c-.84-.26-1.68-.56-2.51-.85Z"/><path class="cls-5" d="M71.88,52.32c.27.13.65.2.72.38s-.18.49-.29.74c-.25-.11-.64-.17-.71-.35S71.77,52.6,71.88,52.32Z"/><path class="cls-3" d="M56.25,29.05l2-.74C58,29.53,57.52,30.43,56.25,29.05Z"/><path class="cls-5" d="M81.34,147.71c-.47.26-.75.55-1,.54a5.68,5.68,0,0,1-1.31-.41c.26-.15.53-.43.8-.43A7.12,7.12,0,0,1,81.34,147.71Z"/><path class="cls-5" d="M7,89.42a5.1,5.1,0,0,1,.45.69c.05.13,0,.42,0,.42a2.61,2.61,0,0,1-.62,0Z"/><path class="cls-5" d="M52.46,46.46a3,3,0,0,1-.85.31c-.1,0-.21-.36-.32-.56.14-.06.3-.19.41-.15A4.67,4.67,0,0,1,52.46,46.46Z"/><path class="cls-5" d="M36.19,108.7l-2.09-1C34.77,108.08,36.4,106.5,36.19,108.7Z"/><path class="cls-5" d="M69.18,107.58h1l-.7,1.89Z"/><path class="cls-5" d="M84.8,19.1l-.57.65a2.88,2.88,0,0,1-.43-.56c0-.05.18-.32.26-.32A3.46,3.46,0,0,1,84.8,19.1Z"/><path class="cls-5" d="M32.66,139.5l.85.29a3.75,3.75,0,0,1-.6.47c-.1.05-.29-.07-.43-.11Z"/><path class="cls-5" d="M68.4,27.16l.85.3a4,4,0,0,1-.61.48c-.1,0-.41-.09-.41-.11A3.66,3.66,0,0,1,68.4,27.16Z"/><path class="cls-5" d="M35.12,97.65l-.25.3c-.07-.12-.19-.24-.18-.35s.16-.2.24-.29Z"/><path class="cls-5" d="M55.25,79.75l-.35-.22.36.21Z"/><path class="cls-4" d="M58.24,5.11l-2,.2c0-1,0-2,0-3.07,1.86,0,4.32-2.36,5.4-.11C63,4.9,58.91,3.48,58.24,5.11Z"/><path class="cls-5" d="M56.23,2.24c0,1,0,2.05,0,3.07l-.19.21-.29,0-2.48-.38c0-.62,0-1.25,0-1.88Z"/><path class="cls-3" d="M53.28,5.12l2.48.38L52.32,7.44Z"/><path class="cls-3" d="M52,7.55l-1.73,1.5Z"/><path class="cls-1" d="M63.22,86.69,63,87.88l-.93-1.12Z"/><path class="cls-3" d="M59.82,9.9c2,.68-1.82,4.32,2,4.08l-3.29,4.25-1.17-.12c-.14-1.36-.14-2.81-2-2.92A8.93,8.93,0,0,1,59.82,9.9Z"/><path class="cls-1" d="M57.41,18.11l1.17.12-2.09,3.92c-.35.8-.71,1.59-1.06,2.39a.43.43,0,0,1-.14.55c-.34-1.31-.69-2.63-1-3.95-.33-.73-.66-1.46-1-2.18l.89-1.89,1.06,0Z"/><path class="cls-4" d="M51.37,23.1c1.54,1.33.6,2.59-.11,3.85l-1-.95C50.62,25,51,24.07,51.37,23.1Z"/><path class="cls-5" d="M57.41,18.11l-2.2-1c-.06-.44-.13-.88-.19-1.33a.63.63,0,0,1,.34-.57C57.27,15.3,57.27,16.75,57.41,18.11Z"/><path class="cls-4" d="M53.26,19c.34.72.67,1.45,1,2.18l-2,0C52.57,20.4,52.92,19.68,53.26,19Z"/><path class="cls-3" d="M61,8.93l-1.1,1Z"/><path class="cls-3" d="M62.15,8.08,61,9Z"/><path class="cls-3" d="M55,15.76c.06.45.13.89.19,1.33l-1.06,0Z"/><path class="cls-1" d="M68.16,11.12c.29.72.57,1.43.85,2.15C68.73,12.55,68.45,11.84,68.16,11.12Z"/><path class="cls-3" d="M64.37,11.41l1.91-1.15Z"/><path class="cls-3" d="M55.43,24.54c.35-.8.71-1.59,1.06-2.39C56.14,23,55.78,23.74,55.43,24.54Z"/><path class="cls-3" d="M63.25,12.3l1.16-1Z"/></g></g></g></svg>